M48
;DRILL file {KiCad 4.0.5} date Wed Jan 11 14:09:25 2017
;FORMAT={-:-/ absolute / metric / decimal}
FMAT,2
METRIC,TZ
T1C0.300
T2C0.800
T3C0.850
T4C1.016
T5C1.097
T6C1.150
T7C3.000
%
G90
G05
M71
T1
X104.25Y-62.4
X104.4Y-59.25
X106.Y-60.
X106.2Y-56.25
X106.2Y-57.
X106.35Y-79.8
X106.75Y-76.25
X106.75Y-77.
X106.95Y-56.25
X106.95Y-57.
X107.25Y-79.8
X107.5Y-76.25
X107.5Y-77.
X107.85Y-66.75
X107.85Y-67.5
X108.15Y-79.8
X108.25Y-76.25
X108.25Y-77.
X108.6Y-67.5
X109.Y-76.25
X109.Y-77.
X109.05Y-82.8
X109.2Y-62.4
X109.2Y-85.2
X109.35Y-71.5
X109.425Y-59.25
X109.65Y-79.65
X110.05Y-82.48
X110.4Y-67.5
X110.55Y-56.25
X110.55Y-57.
X110.7Y-79.8
X111.Y-60.
X111.15Y-67.575
X111.199Y-66.779
X111.3Y-56.25
X111.3Y-57.
X111.9Y-67.5
X112.6Y-71.5
X112.8Y-79.8
X112.8Y-82.8
X113.55Y-79.8
X113.85Y-82.8
X114.15Y-62.4
X114.3Y-66.75
X114.3Y-67.5
X114.3Y-79.8
X114.425Y-59.25
X114.45Y-85.2
X114.9Y-56.25
X114.9Y-57.
X114.9Y-82.8
X115.05Y-67.5
X115.05Y-79.8
X115.5Y-51.15
X115.65Y-56.25
X115.65Y-57.
X115.85Y-71.5
X116.Y-60.
X116.Y-64.5
X117.15Y-79.5
X117.265Y-72.521
X117.6Y-69.6
X117.6Y-70.35
X117.6Y-71.1
X118.05Y-85.2
X118.2Y-51.3
X118.35Y-62.4
X118.35Y-64.5
X118.35Y-79.8
X119.Y-55.
X119.25Y-71.1
X119.4Y-50.55
X120.45Y-63.45
X120.9Y-72.15
X120.9Y-72.9
X120.9Y-71.4
X121.5Y-79.65
X121.95Y-61.5
X123.6Y-81.9
X123.6Y-82.65
X124.408Y-60.508
X124.426Y-61.258
X124.95Y-58.95
X126.079Y-61.662
X126.15Y-58.95
X127.2Y-77.55
X127.425Y-69.9
X128.1Y-62.4
X128.1Y-63.15
X128.1Y-63.9
X128.1Y-64.65
X128.25Y-82.35
X128.4Y-61.2
X129.15Y-73.05
X129.3Y-66.
X129.9Y-70.35
X129.9Y-71.1
X129.9Y-71.85
X130.2Y-68.85
X130.5Y-76.65
X130.95Y-68.85
X131.7Y-69.45
X131.85Y-61.2
X132.Y-71.25
X132.75Y-65.313
X132.75Y-66.45
X132.891Y-64.263
X133.05Y-59.7
X133.65Y-55.65
X134.4Y-59.4
X135.Y-65.7
X135.15Y-59.7
X135.3Y-77.4
X136.65Y-77.4
X137.12Y-58.786
X137.85Y-68.7
X137.877Y-58.388
X138.3Y-59.55
X138.62Y-58.492
X138.7Y-57.699
X138.75Y-78.15
X138.75Y-81.6
X139.Y-66.
X139.415Y-57.472
X139.8Y-72.15
X140.091Y-57.797
X140.471Y-67.879
X141.15Y-64.207
X141.163Y-62.687
X141.192Y-63.458
X141.6Y-57.75
X141.75Y-71.7
X142.05Y-59.675
X142.052Y-58.925
X142.35Y-74.7
X142.575Y-64.05
X142.575Y-65.4
X142.575Y-66.9
X142.65Y-68.25
X142.681Y-72.151
X142.908Y-69.512
X143.1Y-54.45
X143.7Y-69.6
X143.85Y-71.7
X144.3Y-57.45
X144.825Y-60.45
X144.825Y-61.95
X144.9Y-63.9
X144.9Y-65.4
X145.05Y-66.6
X145.05Y-68.55
X145.05Y-69.75
X145.05Y-67.8
X146.1Y-56.7
X148.35Y-56.7
X149.1Y-74.7
T2
X102.5Y-69.5
X104.5Y-69.5
T3
X135.501Y-55.563
X140.501Y-55.563
T4
X135.Y-87.
X137.54Y-87.
X140.08Y-87.
X144.5Y-73.42
X144.5Y-75.96
X144.5Y-78.5
X147.Y-59.34
X147.Y-61.88
X147.Y-64.42
X147.Y-66.96
X147.Y-69.5
X147.5Y-73.42
X147.5Y-75.96
X147.5Y-78.5
T5
X108.42Y-53.
X110.96Y-53.
X113.5Y-53.
X117.34Y-53.
X119.88Y-53.
X121.38Y-87.
X122.42Y-53.
X123.92Y-87.
X124.96Y-53.
X126.46Y-87.
X127.5Y-53.
X129.Y-87.
T6
X134.501Y-52.863
X141.501Y-52.863
T7
X103.Y-53.
X103.Y-87.
X147.Y-53.
X147.Y-87.
T0
M30
