G04 #@! TF.FileFunction,Legend,Top*
%FSLAX46Y46*%
G04 Gerber Fmt 4.6, Leading zero omitted, Abs format (unit mm)*
G04 Created by KiCad (PCBNEW 4.0.5) date Wed Jan 11 14:09:31 2017*
%MOMM*%
%LPD*%
G01*
G04 APERTURE LIST*
%ADD10C,0.100000*%
%ADD11C,0.150000*%
%ADD12C,0.125000*%
G04 APERTURE END LIST*
D10*
D11*
X106860440Y-56098800D02*
X115059560Y-56098800D01*
X106860440Y-55700020D02*
X115059560Y-55700020D01*
X106860440Y-50399040D02*
X115059560Y-50399040D01*
X115059560Y-49901200D02*
X106860440Y-49901200D01*
X109659520Y-50399040D02*
X109659520Y-49901200D01*
X114858900Y-49901200D02*
X114858900Y-50399040D01*
X107058560Y-50399040D02*
X107058560Y-49901200D01*
X112257940Y-49901200D02*
X112257940Y-50399040D01*
X106860440Y-49901200D02*
X106860440Y-56098800D01*
X115057020Y-56098800D02*
X115057020Y-49901200D01*
X142350900Y-50182540D02*
X133650900Y-50182540D01*
X142350900Y-56587540D02*
X133650900Y-56587540D01*
X133650900Y-56587540D02*
X133650900Y-50182540D01*
X133650900Y-51412540D02*
X142350900Y-51412540D01*
X142350900Y-50182540D02*
X142350900Y-56587540D01*
X133375000Y-60375000D02*
X133900000Y-60375000D01*
X140625000Y-67625000D02*
X140100000Y-67625000D01*
X140625000Y-60375000D02*
X140100000Y-60375000D01*
X133375000Y-67625000D02*
X133375000Y-67100000D01*
X140625000Y-67625000D02*
X140625000Y-67100000D01*
X140625000Y-60375000D02*
X140625000Y-60900000D01*
X133375000Y-60375000D02*
X133375000Y-60900000D01*
X118620160Y-50399040D02*
X118620160Y-49901200D01*
X115821080Y-49901200D02*
X129018920Y-49901200D01*
X129018920Y-50399040D02*
X115821080Y-50399040D01*
X129018920Y-55700020D02*
X115821080Y-55700020D01*
X115821080Y-56098800D02*
X129018920Y-56098800D01*
X121122060Y-50399040D02*
X121122060Y-49901200D01*
X123720480Y-50399040D02*
X123720480Y-49901200D01*
X128818260Y-49901200D02*
X128818260Y-50399040D01*
X116021740Y-50399040D02*
X116021740Y-49901200D01*
X126217300Y-49901200D02*
X126217300Y-50399040D01*
X115823620Y-49901200D02*
X115823620Y-56098800D01*
X129016380Y-56098800D02*
X129016380Y-49901200D01*
X120900000Y-70625000D02*
X120100000Y-70625000D01*
X120900000Y-67375000D02*
X120100000Y-67375000D01*
X148270000Y-68230000D02*
X148270000Y-58070000D01*
X148270000Y-58070000D02*
X145730000Y-58070000D01*
X145730000Y-58070000D02*
X145730000Y-68230000D01*
X148550000Y-71050000D02*
X148550000Y-69500000D01*
X148270000Y-68230000D02*
X145730000Y-68230000D01*
X145450000Y-69500000D02*
X145450000Y-71050000D01*
X145450000Y-71050000D02*
X148550000Y-71050000D01*
X123375000Y-66400000D02*
X123375000Y-65600000D01*
X126625000Y-66400000D02*
X126625000Y-65600000D01*
X107100000Y-80525000D02*
X106100000Y-79525000D01*
X106100000Y-79525000D02*
X106100000Y-74475000D01*
X106100000Y-74475000D02*
X118900000Y-74475000D01*
X118900000Y-80525000D02*
X118900000Y-74475000D01*
X118900000Y-80525000D02*
X107100000Y-80525000D01*
X111675000Y-62530000D02*
X112675000Y-63530000D01*
X112675000Y-63530000D02*
X112675000Y-65470000D01*
X112675000Y-65470000D02*
X109325000Y-65470000D01*
X109325000Y-62530000D02*
X109325000Y-65470000D01*
X109325000Y-62530000D02*
X111675000Y-62530000D01*
X105286000Y-53000000D02*
G75*
G03X105286000Y-53000000I-2286000J0D01*
G01*
X105286000Y-87000000D02*
G75*
G03X105286000Y-87000000I-2286000J0D01*
G01*
X149286000Y-87000000D02*
G75*
G03X149286000Y-87000000I-2286000J0D01*
G01*
X149286000Y-53000000D02*
G75*
G03X149286000Y-53000000I-2286000J0D01*
G01*
X131350000Y-65100000D02*
X130650000Y-65100000D01*
X130650000Y-63900000D02*
X131350000Y-63900000D01*
X111400000Y-84850000D02*
X111400000Y-84150000D01*
X112600000Y-84150000D02*
X112600000Y-84850000D01*
X133600000Y-70150000D02*
X133600000Y-70850000D01*
X132400000Y-70850000D02*
X132400000Y-70150000D01*
X135100000Y-70150000D02*
X135100000Y-70850000D01*
X133900000Y-70850000D02*
X133900000Y-70150000D01*
X139350000Y-70150000D02*
X139350000Y-70850000D01*
X138150000Y-70850000D02*
X138150000Y-70150000D01*
X142650000Y-59900000D02*
X143350000Y-59900000D01*
X143350000Y-61100000D02*
X142650000Y-61100000D01*
X133650000Y-57400000D02*
X134350000Y-57400000D01*
X134350000Y-58600000D02*
X133650000Y-58600000D01*
X134150000Y-75900000D02*
X134850000Y-75900000D01*
X134850000Y-77100000D02*
X134150000Y-77100000D01*
X137850000Y-77100000D02*
X137150000Y-77100000D01*
X137150000Y-75900000D02*
X137850000Y-75900000D01*
X140350000Y-70150000D02*
X140350000Y-70850000D01*
X139150000Y-70850000D02*
X139150000Y-70150000D01*
X111100000Y-84150000D02*
X111100000Y-84850000D01*
X109900000Y-84850000D02*
X109900000Y-84150000D01*
X142650000Y-61400000D02*
X143350000Y-61400000D01*
X143350000Y-62600000D02*
X142650000Y-62600000D01*
X129900000Y-78850000D02*
X129900000Y-78150000D01*
X131100000Y-78150000D02*
X131100000Y-78850000D01*
X122100000Y-77650000D02*
X122100000Y-78350000D01*
X120900000Y-78350000D02*
X120900000Y-77650000D01*
X116100000Y-84150000D02*
X116100000Y-84850000D01*
X114900000Y-84850000D02*
X114900000Y-84150000D01*
X117600000Y-84150000D02*
X117600000Y-84850000D01*
X116400000Y-84850000D02*
X116400000Y-84150000D01*
X108950000Y-72100000D02*
X108250000Y-72100000D01*
X108250000Y-70900000D02*
X108950000Y-70900000D01*
X112200000Y-72100000D02*
X111500000Y-72100000D01*
X111500000Y-70900000D02*
X112200000Y-70900000D01*
X115450000Y-72100000D02*
X114750000Y-72100000D01*
X114750000Y-70900000D02*
X115450000Y-70900000D01*
X120900000Y-81850000D02*
X120900000Y-81150000D01*
X122100000Y-81150000D02*
X122100000Y-81850000D01*
X123100000Y-58650000D02*
X123100000Y-59350000D01*
X121900000Y-59350000D02*
X121900000Y-58650000D01*
X141700000Y-67800000D02*
X144100000Y-67800000D01*
X141700000Y-66200000D02*
X144100000Y-66200000D01*
X141700000Y-66300000D02*
X144100000Y-66300000D01*
X141700000Y-64700000D02*
X144100000Y-64700000D01*
X132250000Y-54100000D02*
X132250000Y-51400000D01*
X130750000Y-54100000D02*
X130750000Y-51400000D01*
X131650000Y-52600000D02*
X131400000Y-52600000D01*
X131400000Y-52600000D02*
X131550000Y-52750000D01*
X131150000Y-52850000D02*
X131850000Y-52850000D01*
X131500000Y-52500000D02*
X131500000Y-52150000D01*
X131500000Y-52850000D02*
X131150000Y-52500000D01*
X131150000Y-52500000D02*
X131850000Y-52500000D01*
X131850000Y-52500000D02*
X131500000Y-52850000D01*
X131700000Y-80300000D02*
X134100000Y-80300000D01*
X131700000Y-78700000D02*
X134100000Y-78700000D01*
X131700000Y-81800000D02*
X134100000Y-81800000D01*
X131700000Y-80200000D02*
X134100000Y-80200000D01*
X141700000Y-64800000D02*
X144100000Y-64800000D01*
X141700000Y-63200000D02*
X144100000Y-63200000D01*
X130250000Y-62475000D02*
X129750000Y-62475000D01*
X129750000Y-63525000D02*
X130250000Y-63525000D01*
X136270000Y-88270000D02*
X141350000Y-88270000D01*
X141350000Y-88270000D02*
X141350000Y-85730000D01*
X141350000Y-85730000D02*
X136270000Y-85730000D01*
X133450000Y-85450000D02*
X135000000Y-85450000D01*
X136270000Y-85730000D02*
X136270000Y-88270000D01*
X135000000Y-88550000D02*
X133450000Y-88550000D01*
X133450000Y-88550000D02*
X133450000Y-85450000D01*
X145770000Y-77230000D02*
X145770000Y-72150000D01*
X145770000Y-72150000D02*
X143230000Y-72150000D01*
X143230000Y-72150000D02*
X143230000Y-77230000D01*
X142950000Y-80050000D02*
X142950000Y-78500000D01*
X143230000Y-77230000D02*
X145770000Y-77230000D01*
X146050000Y-78500000D02*
X146050000Y-80050000D01*
X146050000Y-80050000D02*
X142950000Y-80050000D01*
X148770000Y-77230000D02*
X148770000Y-72150000D01*
X148770000Y-72150000D02*
X146230000Y-72150000D01*
X146230000Y-72150000D02*
X146230000Y-77230000D01*
X145950000Y-80050000D02*
X145950000Y-78500000D01*
X146230000Y-77230000D02*
X148770000Y-77230000D01*
X149050000Y-78500000D02*
X149050000Y-80050000D01*
X149050000Y-80050000D02*
X145950000Y-80050000D01*
X106675000Y-62530000D02*
X107675000Y-63530000D01*
X107675000Y-63530000D02*
X107675000Y-65470000D01*
X107675000Y-65470000D02*
X104325000Y-65470000D01*
X104325000Y-62530000D02*
X104325000Y-65470000D01*
X104325000Y-62530000D02*
X106675000Y-62530000D01*
X106675000Y-58030000D02*
X107675000Y-59030000D01*
X107675000Y-59030000D02*
X107675000Y-60970000D01*
X107675000Y-60970000D02*
X104325000Y-60970000D01*
X104325000Y-58030000D02*
X104325000Y-60970000D01*
X104325000Y-58030000D02*
X106675000Y-58030000D01*
X111675000Y-58030000D02*
X112675000Y-59030000D01*
X112675000Y-59030000D02*
X112675000Y-60970000D01*
X112675000Y-60970000D02*
X109325000Y-60970000D01*
X109325000Y-58030000D02*
X109325000Y-60970000D01*
X109325000Y-58030000D02*
X111675000Y-58030000D01*
X116675000Y-62530000D02*
X117675000Y-63530000D01*
X117675000Y-63530000D02*
X117675000Y-65470000D01*
X117675000Y-65470000D02*
X114325000Y-65470000D01*
X114325000Y-62530000D02*
X114325000Y-65470000D01*
X114325000Y-62530000D02*
X116675000Y-62530000D01*
X116675000Y-58030000D02*
X117675000Y-59030000D01*
X117675000Y-59030000D02*
X117675000Y-60970000D01*
X117675000Y-60970000D02*
X114325000Y-60970000D01*
X114325000Y-58030000D02*
X114325000Y-60970000D01*
X114325000Y-58030000D02*
X116675000Y-58030000D01*
X119849760Y-63200840D02*
X119849760Y-63249100D01*
X120550800Y-65999820D02*
X119849760Y-65999820D01*
X119849760Y-65999820D02*
X119849760Y-65750900D01*
X119849760Y-63200840D02*
X119849760Y-63000180D01*
X119849760Y-63000180D02*
X120550800Y-63000180D01*
X130500000Y-65325000D02*
X131500000Y-65325000D01*
X131500000Y-66675000D02*
X130500000Y-66675000D01*
X121175000Y-74500000D02*
X121175000Y-75500000D01*
X119825000Y-75500000D02*
X119825000Y-74500000D01*
X136825000Y-71000000D02*
X136825000Y-70000000D01*
X138175000Y-70000000D02*
X138175000Y-71000000D01*
X122675000Y-74500000D02*
X122675000Y-75500000D01*
X121325000Y-75500000D02*
X121325000Y-74500000D01*
X130825000Y-56000000D02*
X130825000Y-55000000D01*
X132175000Y-55000000D02*
X132175000Y-56000000D01*
X107325000Y-85000000D02*
X107325000Y-84000000D01*
X108675000Y-84000000D02*
X108675000Y-85000000D01*
X107175000Y-70000000D02*
X107175000Y-69000000D01*
X108525000Y-69000000D02*
X108525000Y-70000000D01*
X108675000Y-70000000D02*
X108675000Y-69000000D01*
X110025000Y-69000000D02*
X110025000Y-70000000D01*
X110425000Y-70000000D02*
X110425000Y-69000000D01*
X111775000Y-69000000D02*
X111775000Y-70000000D01*
X111925000Y-70000000D02*
X111925000Y-69000000D01*
X113275000Y-69000000D02*
X113275000Y-70000000D01*
X113675000Y-70000000D02*
X113675000Y-69000000D01*
X115025000Y-69000000D02*
X115025000Y-70000000D01*
X115175000Y-70000000D02*
X115175000Y-69000000D01*
X116525000Y-69000000D02*
X116525000Y-70000000D01*
X121675000Y-61000000D02*
X121675000Y-62000000D01*
X120325000Y-62000000D02*
X120325000Y-61000000D01*
X118825000Y-62000000D02*
X118825000Y-61000000D01*
X120175000Y-61000000D02*
X120175000Y-62000000D01*
X120325000Y-59500000D02*
X120325000Y-58500000D01*
X121675000Y-58500000D02*
X121675000Y-59500000D01*
X118825000Y-59500000D02*
X118825000Y-58500000D01*
X120175000Y-58500000D02*
X120175000Y-59500000D01*
X123375000Y-69400000D02*
X123375000Y-68600000D01*
X126625000Y-69400000D02*
X126625000Y-68600000D01*
X122444000Y-78524000D02*
X122444000Y-81572000D01*
X122444000Y-81572000D02*
X129556000Y-81572000D01*
X129556000Y-81572000D02*
X129556000Y-78524000D01*
X122444000Y-75476000D02*
X122444000Y-74714000D01*
X122444000Y-74714000D02*
X123968000Y-72428000D01*
X123968000Y-72428000D02*
X128032000Y-72428000D01*
X128032000Y-72428000D02*
X129556000Y-74714000D01*
X129556000Y-74714000D02*
X129556000Y-75476000D01*
X138600000Y-75700000D02*
X134300000Y-75700000D01*
X133350000Y-72300000D02*
X138600000Y-72300000D01*
X119889020Y-90098800D02*
X130490980Y-90098800D01*
X130490980Y-89700020D02*
X119889020Y-89700020D01*
X130490980Y-84399040D02*
X119889020Y-84399040D01*
X119889020Y-83901200D02*
X130490980Y-83901200D01*
X122693180Y-84399040D02*
X122693180Y-83901200D01*
X125190000Y-84399040D02*
X125190000Y-83901200D01*
X130287780Y-83901200D02*
X130287780Y-84399040D01*
X120089680Y-84399040D02*
X120089680Y-83901200D01*
X127686820Y-83901200D02*
X127686820Y-84399040D01*
X119891560Y-83901200D02*
X119891560Y-90098800D01*
X130485900Y-90098800D02*
X130485900Y-83901200D01*
X103425000Y-71999000D02*
X103425000Y-67001000D01*
X103285000Y-71991000D02*
X103285000Y-69654000D01*
X103285000Y-69346000D02*
X103285000Y-67009000D01*
X103145000Y-71975000D02*
X103145000Y-69973000D01*
X103145000Y-69027000D02*
X103145000Y-67025000D01*
X103005000Y-71951000D02*
X103005000Y-70120000D01*
X103005000Y-68880000D02*
X103005000Y-67049000D01*
X102865000Y-71918000D02*
X102865000Y-70212000D01*
X102865000Y-68788000D02*
X102865000Y-67082000D01*
X102725000Y-71877000D02*
X102725000Y-70268000D01*
X102725000Y-68732000D02*
X102725000Y-67123000D01*
X102585000Y-71827000D02*
X102585000Y-70295000D01*
X102585000Y-68705000D02*
X102585000Y-67173000D01*
X102445000Y-71766000D02*
X102445000Y-70298000D01*
X102445000Y-68702000D02*
X102445000Y-67234000D01*
X102305000Y-71696000D02*
X102305000Y-70276000D01*
X102305000Y-68724000D02*
X102305000Y-67304000D01*
X102165000Y-71614000D02*
X102165000Y-70226000D01*
X102165000Y-68774000D02*
X102165000Y-67386000D01*
X102025000Y-71519000D02*
X102025000Y-70144000D01*
X102025000Y-68856000D02*
X102025000Y-67481000D01*
X101885000Y-71408000D02*
X101885000Y-70012000D01*
X101885000Y-68988000D02*
X101885000Y-67592000D01*
X101745000Y-71280000D02*
X101745000Y-69765000D01*
X101745000Y-69235000D02*
X101745000Y-67720000D01*
X101605000Y-71131000D02*
X101605000Y-67869000D01*
X101465000Y-70952000D02*
X101465000Y-68048000D01*
X101325000Y-70733000D02*
X101325000Y-68267000D01*
X101185000Y-70444000D02*
X101185000Y-68556000D01*
X101045000Y-69972000D02*
X101045000Y-69028000D01*
X103300000Y-69500000D02*
G75*
G03X103300000Y-69500000I-800000J0D01*
G01*
X106037500Y-69500000D02*
G75*
G03X106037500Y-69500000I-2537500J0D01*
G01*
X141700000Y-69300000D02*
X144100000Y-69300000D01*
X141700000Y-67700000D02*
X144100000Y-67700000D01*
D12*
X120116667Y-67126190D02*
X119950000Y-66888095D01*
X119830953Y-67126190D02*
X119830953Y-66626190D01*
X120021429Y-66626190D01*
X120069048Y-66650000D01*
X120092857Y-66673810D01*
X120116667Y-66721429D01*
X120116667Y-66792857D01*
X120092857Y-66840476D01*
X120069048Y-66864286D01*
X120021429Y-66888095D01*
X119830953Y-66888095D01*
X120330953Y-67126190D02*
X120330953Y-66626190D01*
X120521429Y-66626190D01*
X120569048Y-66650000D01*
X120592857Y-66673810D01*
X120616667Y-66721429D01*
X120616667Y-66792857D01*
X120592857Y-66840476D01*
X120569048Y-66864286D01*
X120521429Y-66888095D01*
X120330953Y-66888095D01*
X121092857Y-67126190D02*
X120807143Y-67126190D01*
X120950000Y-67126190D02*
X120950000Y-66626190D01*
X120902381Y-66697619D01*
X120854762Y-66745238D01*
X120807143Y-66769048D01*
X127576190Y-66483333D02*
X127338095Y-66650000D01*
X127576190Y-66769047D02*
X127076190Y-66769047D01*
X127076190Y-66578571D01*
X127100000Y-66530952D01*
X127123810Y-66507143D01*
X127171429Y-66483333D01*
X127242857Y-66483333D01*
X127290476Y-66507143D01*
X127314286Y-66530952D01*
X127338095Y-66578571D01*
X127338095Y-66769047D01*
X127576190Y-66269047D02*
X127076190Y-66269047D01*
X127076190Y-66078571D01*
X127100000Y-66030952D01*
X127123810Y-66007143D01*
X127171429Y-65983333D01*
X127242857Y-65983333D01*
X127290476Y-66007143D01*
X127314286Y-66030952D01*
X127338095Y-66078571D01*
X127338095Y-66269047D01*
X127076190Y-65816666D02*
X127076190Y-65507143D01*
X127266667Y-65673809D01*
X127266667Y-65602381D01*
X127290476Y-65554762D01*
X127314286Y-65530952D01*
X127361905Y-65507143D01*
X127480952Y-65507143D01*
X127528571Y-65530952D01*
X127552381Y-65554762D01*
X127576190Y-65602381D01*
X127576190Y-65745238D01*
X127552381Y-65792857D01*
X127528571Y-65816666D01*
X104876190Y-78380952D02*
X105280952Y-78380952D01*
X105328571Y-78357143D01*
X105352381Y-78333333D01*
X105376190Y-78285714D01*
X105376190Y-78190476D01*
X105352381Y-78142857D01*
X105328571Y-78119048D01*
X105280952Y-78095238D01*
X104876190Y-78095238D01*
X104923810Y-77880952D02*
X104900000Y-77857142D01*
X104876190Y-77809523D01*
X104876190Y-77690476D01*
X104900000Y-77642857D01*
X104923810Y-77619047D01*
X104971429Y-77595238D01*
X105019048Y-77595238D01*
X105090476Y-77619047D01*
X105376190Y-77904761D01*
X105376190Y-77595238D01*
X109023810Y-64397619D02*
X109000000Y-64445238D01*
X108952381Y-64492857D01*
X108880952Y-64564286D01*
X108857143Y-64611905D01*
X108857143Y-64659524D01*
X108976190Y-64635714D02*
X108952381Y-64683333D01*
X108904762Y-64730952D01*
X108809524Y-64754762D01*
X108642857Y-64754762D01*
X108547619Y-64730952D01*
X108500000Y-64683333D01*
X108476190Y-64635714D01*
X108476190Y-64540476D01*
X108500000Y-64492857D01*
X108547619Y-64445238D01*
X108642857Y-64421429D01*
X108809524Y-64421429D01*
X108904762Y-64445238D01*
X108952381Y-64492857D01*
X108976190Y-64540476D01*
X108976190Y-64635714D01*
X108476190Y-64254761D02*
X108476190Y-63945238D01*
X108666667Y-64111904D01*
X108666667Y-64040476D01*
X108690476Y-63992857D01*
X108714286Y-63969047D01*
X108761905Y-63945238D01*
X108880952Y-63945238D01*
X108928571Y-63969047D01*
X108952381Y-63992857D01*
X108976190Y-64040476D01*
X108976190Y-64183333D01*
X108952381Y-64230952D01*
X108928571Y-64254761D01*
X128916667Y-64678571D02*
X128892857Y-64702381D01*
X128821429Y-64726190D01*
X128773810Y-64726190D01*
X128702381Y-64702381D01*
X128654762Y-64654762D01*
X128630953Y-64607143D01*
X128607143Y-64511905D01*
X128607143Y-64440476D01*
X128630953Y-64345238D01*
X128654762Y-64297619D01*
X128702381Y-64250000D01*
X128773810Y-64226190D01*
X128821429Y-64226190D01*
X128892857Y-64250000D01*
X128916667Y-64273810D01*
X129392857Y-64726190D02*
X129107143Y-64726190D01*
X129250000Y-64726190D02*
X129250000Y-64226190D01*
X129202381Y-64297619D01*
X129154762Y-64345238D01*
X129107143Y-64369048D01*
X110728571Y-86633333D02*
X110752381Y-86657143D01*
X110776190Y-86728571D01*
X110776190Y-86776190D01*
X110752381Y-86847619D01*
X110704762Y-86895238D01*
X110657143Y-86919047D01*
X110561905Y-86942857D01*
X110490476Y-86942857D01*
X110395238Y-86919047D01*
X110347619Y-86895238D01*
X110300000Y-86847619D01*
X110276190Y-86776190D01*
X110276190Y-86728571D01*
X110300000Y-86657143D01*
X110323810Y-86633333D01*
X110323810Y-86442857D02*
X110300000Y-86419047D01*
X110276190Y-86371428D01*
X110276190Y-86252381D01*
X110300000Y-86204762D01*
X110323810Y-86180952D01*
X110371429Y-86157143D01*
X110419048Y-86157143D01*
X110490476Y-86180952D01*
X110776190Y-86466666D01*
X110776190Y-86157143D01*
X132028571Y-70583333D02*
X132052381Y-70607143D01*
X132076190Y-70678571D01*
X132076190Y-70726190D01*
X132052381Y-70797619D01*
X132004762Y-70845238D01*
X131957143Y-70869047D01*
X131861905Y-70892857D01*
X131790476Y-70892857D01*
X131695238Y-70869047D01*
X131647619Y-70845238D01*
X131600000Y-70797619D01*
X131576190Y-70726190D01*
X131576190Y-70678571D01*
X131600000Y-70607143D01*
X131623810Y-70583333D01*
X131576190Y-70416666D02*
X131576190Y-70107143D01*
X131766667Y-70273809D01*
X131766667Y-70202381D01*
X131790476Y-70154762D01*
X131814286Y-70130952D01*
X131861905Y-70107143D01*
X131980952Y-70107143D01*
X132028571Y-70130952D01*
X132052381Y-70154762D01*
X132076190Y-70202381D01*
X132076190Y-70345238D01*
X132052381Y-70392857D01*
X132028571Y-70416666D01*
X135778571Y-70583333D02*
X135802381Y-70607143D01*
X135826190Y-70678571D01*
X135826190Y-70726190D01*
X135802381Y-70797619D01*
X135754762Y-70845238D01*
X135707143Y-70869047D01*
X135611905Y-70892857D01*
X135540476Y-70892857D01*
X135445238Y-70869047D01*
X135397619Y-70845238D01*
X135350000Y-70797619D01*
X135326190Y-70726190D01*
X135326190Y-70678571D01*
X135350000Y-70607143D01*
X135373810Y-70583333D01*
X135492857Y-70154762D02*
X135826190Y-70154762D01*
X135302381Y-70273809D02*
X135659524Y-70392857D01*
X135659524Y-70083333D01*
X138928571Y-72383333D02*
X138952381Y-72407143D01*
X138976190Y-72478571D01*
X138976190Y-72526190D01*
X138952381Y-72597619D01*
X138904762Y-72645238D01*
X138857143Y-72669047D01*
X138761905Y-72692857D01*
X138690476Y-72692857D01*
X138595238Y-72669047D01*
X138547619Y-72645238D01*
X138500000Y-72597619D01*
X138476190Y-72526190D01*
X138476190Y-72478571D01*
X138500000Y-72407143D01*
X138523810Y-72383333D01*
X138476190Y-71930952D02*
X138476190Y-72169047D01*
X138714286Y-72192857D01*
X138690476Y-72169047D01*
X138666667Y-72121428D01*
X138666667Y-72002381D01*
X138690476Y-71954762D01*
X138714286Y-71930952D01*
X138761905Y-71907143D01*
X138880952Y-71907143D01*
X138928571Y-71930952D01*
X138952381Y-71954762D01*
X138976190Y-72002381D01*
X138976190Y-72121428D01*
X138952381Y-72169047D01*
X138928571Y-72192857D01*
X145528571Y-60533333D02*
X145552381Y-60557143D01*
X145576190Y-60628571D01*
X145576190Y-60676190D01*
X145552381Y-60747619D01*
X145504762Y-60795238D01*
X145457143Y-60819047D01*
X145361905Y-60842857D01*
X145290476Y-60842857D01*
X145195238Y-60819047D01*
X145147619Y-60795238D01*
X145100000Y-60747619D01*
X145076190Y-60676190D01*
X145076190Y-60628571D01*
X145100000Y-60557143D01*
X145123810Y-60533333D01*
X145076190Y-60104762D02*
X145076190Y-60200000D01*
X145100000Y-60247619D01*
X145123810Y-60271428D01*
X145195238Y-60319047D01*
X145290476Y-60342857D01*
X145480952Y-60342857D01*
X145528571Y-60319047D01*
X145552381Y-60295238D01*
X145576190Y-60247619D01*
X145576190Y-60152381D01*
X145552381Y-60104762D01*
X145528571Y-60080952D01*
X145480952Y-60057143D01*
X145361905Y-60057143D01*
X145314286Y-60080952D01*
X145290476Y-60104762D01*
X145266667Y-60152381D01*
X145266667Y-60247619D01*
X145290476Y-60295238D01*
X145314286Y-60319047D01*
X145361905Y-60342857D01*
X132066667Y-58228571D02*
X132042857Y-58252381D01*
X131971429Y-58276190D01*
X131923810Y-58276190D01*
X131852381Y-58252381D01*
X131804762Y-58204762D01*
X131780953Y-58157143D01*
X131757143Y-58061905D01*
X131757143Y-57990476D01*
X131780953Y-57895238D01*
X131804762Y-57847619D01*
X131852381Y-57800000D01*
X131923810Y-57776190D01*
X131971429Y-57776190D01*
X132042857Y-57800000D01*
X132066667Y-57823810D01*
X132233334Y-57776190D02*
X132566667Y-57776190D01*
X132352381Y-58276190D01*
X134316667Y-77878571D02*
X134292857Y-77902381D01*
X134221429Y-77926190D01*
X134173810Y-77926190D01*
X134102381Y-77902381D01*
X134054762Y-77854762D01*
X134030953Y-77807143D01*
X134007143Y-77711905D01*
X134007143Y-77640476D01*
X134030953Y-77545238D01*
X134054762Y-77497619D01*
X134102381Y-77450000D01*
X134173810Y-77426190D01*
X134221429Y-77426190D01*
X134292857Y-77450000D01*
X134316667Y-77473810D01*
X134602381Y-77640476D02*
X134554762Y-77616667D01*
X134530953Y-77592857D01*
X134507143Y-77545238D01*
X134507143Y-77521429D01*
X134530953Y-77473810D01*
X134554762Y-77450000D01*
X134602381Y-77426190D01*
X134697619Y-77426190D01*
X134745238Y-77450000D01*
X134769048Y-77473810D01*
X134792857Y-77521429D01*
X134792857Y-77545238D01*
X134769048Y-77592857D01*
X134745238Y-77616667D01*
X134697619Y-77640476D01*
X134602381Y-77640476D01*
X134554762Y-77664286D01*
X134530953Y-77688095D01*
X134507143Y-77735714D01*
X134507143Y-77830952D01*
X134530953Y-77878571D01*
X134554762Y-77902381D01*
X134602381Y-77926190D01*
X134697619Y-77926190D01*
X134745238Y-77902381D01*
X134769048Y-77878571D01*
X134792857Y-77830952D01*
X134792857Y-77735714D01*
X134769048Y-77688095D01*
X134745238Y-77664286D01*
X134697619Y-77640476D01*
X137466667Y-77878571D02*
X137442857Y-77902381D01*
X137371429Y-77926190D01*
X137323810Y-77926190D01*
X137252381Y-77902381D01*
X137204762Y-77854762D01*
X137180953Y-77807143D01*
X137157143Y-77711905D01*
X137157143Y-77640476D01*
X137180953Y-77545238D01*
X137204762Y-77497619D01*
X137252381Y-77450000D01*
X137323810Y-77426190D01*
X137371429Y-77426190D01*
X137442857Y-77450000D01*
X137466667Y-77473810D01*
X137704762Y-77926190D02*
X137800000Y-77926190D01*
X137847619Y-77902381D01*
X137871429Y-77878571D01*
X137919048Y-77807143D01*
X137942857Y-77711905D01*
X137942857Y-77521429D01*
X137919048Y-77473810D01*
X137895238Y-77450000D01*
X137847619Y-77426190D01*
X137752381Y-77426190D01*
X137704762Y-77450000D01*
X137680953Y-77473810D01*
X137657143Y-77521429D01*
X137657143Y-77640476D01*
X137680953Y-77688095D01*
X137704762Y-77711905D01*
X137752381Y-77735714D01*
X137847619Y-77735714D01*
X137895238Y-77711905D01*
X137919048Y-77688095D01*
X137942857Y-77640476D01*
X141028571Y-70821428D02*
X141052381Y-70845238D01*
X141076190Y-70916666D01*
X141076190Y-70964285D01*
X141052381Y-71035714D01*
X141004762Y-71083333D01*
X140957143Y-71107142D01*
X140861905Y-71130952D01*
X140790476Y-71130952D01*
X140695238Y-71107142D01*
X140647619Y-71083333D01*
X140600000Y-71035714D01*
X140576190Y-70964285D01*
X140576190Y-70916666D01*
X140600000Y-70845238D01*
X140623810Y-70821428D01*
X141076190Y-70345238D02*
X141076190Y-70630952D01*
X141076190Y-70488095D02*
X140576190Y-70488095D01*
X140647619Y-70535714D01*
X140695238Y-70583333D01*
X140719048Y-70630952D01*
X140576190Y-70035714D02*
X140576190Y-69988095D01*
X140600000Y-69940476D01*
X140623810Y-69916667D01*
X140671429Y-69892857D01*
X140766667Y-69869048D01*
X140885714Y-69869048D01*
X140980952Y-69892857D01*
X141028571Y-69916667D01*
X141052381Y-69940476D01*
X141076190Y-69988095D01*
X141076190Y-70035714D01*
X141052381Y-70083333D01*
X141028571Y-70107143D01*
X140980952Y-70130952D01*
X140885714Y-70154762D01*
X140766667Y-70154762D01*
X140671429Y-70130952D01*
X140623810Y-70107143D01*
X140600000Y-70083333D01*
X140576190Y-70035714D01*
X112078571Y-87021428D02*
X112102381Y-87045238D01*
X112126190Y-87116666D01*
X112126190Y-87164285D01*
X112102381Y-87235714D01*
X112054762Y-87283333D01*
X112007143Y-87307142D01*
X111911905Y-87330952D01*
X111840476Y-87330952D01*
X111745238Y-87307142D01*
X111697619Y-87283333D01*
X111650000Y-87235714D01*
X111626190Y-87164285D01*
X111626190Y-87116666D01*
X111650000Y-87045238D01*
X111673810Y-87021428D01*
X112126190Y-86545238D02*
X112126190Y-86830952D01*
X112126190Y-86688095D02*
X111626190Y-86688095D01*
X111697619Y-86735714D01*
X111745238Y-86783333D01*
X111769048Y-86830952D01*
X112126190Y-86069048D02*
X112126190Y-86354762D01*
X112126190Y-86211905D02*
X111626190Y-86211905D01*
X111697619Y-86259524D01*
X111745238Y-86307143D01*
X111769048Y-86354762D01*
X145528571Y-62421428D02*
X145552381Y-62445238D01*
X145576190Y-62516666D01*
X145576190Y-62564285D01*
X145552381Y-62635714D01*
X145504762Y-62683333D01*
X145457143Y-62707142D01*
X145361905Y-62730952D01*
X145290476Y-62730952D01*
X145195238Y-62707142D01*
X145147619Y-62683333D01*
X145100000Y-62635714D01*
X145076190Y-62564285D01*
X145076190Y-62516666D01*
X145100000Y-62445238D01*
X145123810Y-62421428D01*
X145576190Y-61945238D02*
X145576190Y-62230952D01*
X145576190Y-62088095D02*
X145076190Y-62088095D01*
X145147619Y-62135714D01*
X145195238Y-62183333D01*
X145219048Y-62230952D01*
X145123810Y-61754762D02*
X145100000Y-61730952D01*
X145076190Y-61683333D01*
X145076190Y-61564286D01*
X145100000Y-61516667D01*
X145123810Y-61492857D01*
X145171429Y-61469048D01*
X145219048Y-61469048D01*
X145290476Y-61492857D01*
X145576190Y-61778571D01*
X145576190Y-61469048D01*
X131878571Y-77571428D02*
X131902381Y-77595238D01*
X131926190Y-77666666D01*
X131926190Y-77714285D01*
X131902381Y-77785714D01*
X131854762Y-77833333D01*
X131807143Y-77857142D01*
X131711905Y-77880952D01*
X131640476Y-77880952D01*
X131545238Y-77857142D01*
X131497619Y-77833333D01*
X131450000Y-77785714D01*
X131426190Y-77714285D01*
X131426190Y-77666666D01*
X131450000Y-77595238D01*
X131473810Y-77571428D01*
X131926190Y-77095238D02*
X131926190Y-77380952D01*
X131926190Y-77238095D02*
X131426190Y-77238095D01*
X131497619Y-77285714D01*
X131545238Y-77333333D01*
X131569048Y-77380952D01*
X131426190Y-76928571D02*
X131426190Y-76619048D01*
X131616667Y-76785714D01*
X131616667Y-76714286D01*
X131640476Y-76666667D01*
X131664286Y-76642857D01*
X131711905Y-76619048D01*
X131830952Y-76619048D01*
X131878571Y-76642857D01*
X131902381Y-76666667D01*
X131926190Y-76714286D01*
X131926190Y-76857143D01*
X131902381Y-76904762D01*
X131878571Y-76928571D01*
X120478571Y-78321428D02*
X120502381Y-78345238D01*
X120526190Y-78416666D01*
X120526190Y-78464285D01*
X120502381Y-78535714D01*
X120454762Y-78583333D01*
X120407143Y-78607142D01*
X120311905Y-78630952D01*
X120240476Y-78630952D01*
X120145238Y-78607142D01*
X120097619Y-78583333D01*
X120050000Y-78535714D01*
X120026190Y-78464285D01*
X120026190Y-78416666D01*
X120050000Y-78345238D01*
X120073810Y-78321428D01*
X120526190Y-77845238D02*
X120526190Y-78130952D01*
X120526190Y-77988095D02*
X120026190Y-77988095D01*
X120097619Y-78035714D01*
X120145238Y-78083333D01*
X120169048Y-78130952D01*
X120192857Y-77416667D02*
X120526190Y-77416667D01*
X120002381Y-77535714D02*
X120359524Y-77654762D01*
X120359524Y-77345238D01*
X115678571Y-87021428D02*
X115702381Y-87045238D01*
X115726190Y-87116666D01*
X115726190Y-87164285D01*
X115702381Y-87235714D01*
X115654762Y-87283333D01*
X115607143Y-87307142D01*
X115511905Y-87330952D01*
X115440476Y-87330952D01*
X115345238Y-87307142D01*
X115297619Y-87283333D01*
X115250000Y-87235714D01*
X115226190Y-87164285D01*
X115226190Y-87116666D01*
X115250000Y-87045238D01*
X115273810Y-87021428D01*
X115726190Y-86545238D02*
X115726190Y-86830952D01*
X115726190Y-86688095D02*
X115226190Y-86688095D01*
X115297619Y-86735714D01*
X115345238Y-86783333D01*
X115369048Y-86830952D01*
X115226190Y-86092857D02*
X115226190Y-86330952D01*
X115464286Y-86354762D01*
X115440476Y-86330952D01*
X115416667Y-86283333D01*
X115416667Y-86164286D01*
X115440476Y-86116667D01*
X115464286Y-86092857D01*
X115511905Y-86069048D01*
X115630952Y-86069048D01*
X115678571Y-86092857D01*
X115702381Y-86116667D01*
X115726190Y-86164286D01*
X115726190Y-86283333D01*
X115702381Y-86330952D01*
X115678571Y-86354762D01*
X117178571Y-87021428D02*
X117202381Y-87045238D01*
X117226190Y-87116666D01*
X117226190Y-87164285D01*
X117202381Y-87235714D01*
X117154762Y-87283333D01*
X117107143Y-87307142D01*
X117011905Y-87330952D01*
X116940476Y-87330952D01*
X116845238Y-87307142D01*
X116797619Y-87283333D01*
X116750000Y-87235714D01*
X116726190Y-87164285D01*
X116726190Y-87116666D01*
X116750000Y-87045238D01*
X116773810Y-87021428D01*
X117226190Y-86545238D02*
X117226190Y-86830952D01*
X117226190Y-86688095D02*
X116726190Y-86688095D01*
X116797619Y-86735714D01*
X116845238Y-86783333D01*
X116869048Y-86830952D01*
X116726190Y-86116667D02*
X116726190Y-86211905D01*
X116750000Y-86259524D01*
X116773810Y-86283333D01*
X116845238Y-86330952D01*
X116940476Y-86354762D01*
X117130952Y-86354762D01*
X117178571Y-86330952D01*
X117202381Y-86307143D01*
X117226190Y-86259524D01*
X117226190Y-86164286D01*
X117202381Y-86116667D01*
X117178571Y-86092857D01*
X117130952Y-86069048D01*
X117011905Y-86069048D01*
X116964286Y-86092857D01*
X116940476Y-86116667D01*
X116916667Y-86164286D01*
X116916667Y-86259524D01*
X116940476Y-86307143D01*
X116964286Y-86330952D01*
X117011905Y-86354762D01*
X108278572Y-72628571D02*
X108254762Y-72652381D01*
X108183334Y-72676190D01*
X108135715Y-72676190D01*
X108064286Y-72652381D01*
X108016667Y-72604762D01*
X107992858Y-72557143D01*
X107969048Y-72461905D01*
X107969048Y-72390476D01*
X107992858Y-72295238D01*
X108016667Y-72247619D01*
X108064286Y-72200000D01*
X108135715Y-72176190D01*
X108183334Y-72176190D01*
X108254762Y-72200000D01*
X108278572Y-72223810D01*
X108754762Y-72676190D02*
X108469048Y-72676190D01*
X108611905Y-72676190D02*
X108611905Y-72176190D01*
X108564286Y-72247619D01*
X108516667Y-72295238D01*
X108469048Y-72319048D01*
X108921429Y-72176190D02*
X109254762Y-72176190D01*
X109040476Y-72676190D01*
X111428572Y-72628571D02*
X111404762Y-72652381D01*
X111333334Y-72676190D01*
X111285715Y-72676190D01*
X111214286Y-72652381D01*
X111166667Y-72604762D01*
X111142858Y-72557143D01*
X111119048Y-72461905D01*
X111119048Y-72390476D01*
X111142858Y-72295238D01*
X111166667Y-72247619D01*
X111214286Y-72200000D01*
X111285715Y-72176190D01*
X111333334Y-72176190D01*
X111404762Y-72200000D01*
X111428572Y-72223810D01*
X111904762Y-72676190D02*
X111619048Y-72676190D01*
X111761905Y-72676190D02*
X111761905Y-72176190D01*
X111714286Y-72247619D01*
X111666667Y-72295238D01*
X111619048Y-72319048D01*
X112190476Y-72390476D02*
X112142857Y-72366667D01*
X112119048Y-72342857D01*
X112095238Y-72295238D01*
X112095238Y-72271429D01*
X112119048Y-72223810D01*
X112142857Y-72200000D01*
X112190476Y-72176190D01*
X112285714Y-72176190D01*
X112333333Y-72200000D01*
X112357143Y-72223810D01*
X112380952Y-72271429D01*
X112380952Y-72295238D01*
X112357143Y-72342857D01*
X112333333Y-72366667D01*
X112285714Y-72390476D01*
X112190476Y-72390476D01*
X112142857Y-72414286D01*
X112119048Y-72438095D01*
X112095238Y-72485714D01*
X112095238Y-72580952D01*
X112119048Y-72628571D01*
X112142857Y-72652381D01*
X112190476Y-72676190D01*
X112285714Y-72676190D01*
X112333333Y-72652381D01*
X112357143Y-72628571D01*
X112380952Y-72580952D01*
X112380952Y-72485714D01*
X112357143Y-72438095D01*
X112333333Y-72414286D01*
X112285714Y-72390476D01*
X114728572Y-72628571D02*
X114704762Y-72652381D01*
X114633334Y-72676190D01*
X114585715Y-72676190D01*
X114514286Y-72652381D01*
X114466667Y-72604762D01*
X114442858Y-72557143D01*
X114419048Y-72461905D01*
X114419048Y-72390476D01*
X114442858Y-72295238D01*
X114466667Y-72247619D01*
X114514286Y-72200000D01*
X114585715Y-72176190D01*
X114633334Y-72176190D01*
X114704762Y-72200000D01*
X114728572Y-72223810D01*
X115204762Y-72676190D02*
X114919048Y-72676190D01*
X115061905Y-72676190D02*
X115061905Y-72176190D01*
X115014286Y-72247619D01*
X114966667Y-72295238D01*
X114919048Y-72319048D01*
X115442857Y-72676190D02*
X115538095Y-72676190D01*
X115585714Y-72652381D01*
X115609524Y-72628571D01*
X115657143Y-72557143D01*
X115680952Y-72461905D01*
X115680952Y-72271429D01*
X115657143Y-72223810D01*
X115633333Y-72200000D01*
X115585714Y-72176190D01*
X115490476Y-72176190D01*
X115442857Y-72200000D01*
X115419048Y-72223810D01*
X115395238Y-72271429D01*
X115395238Y-72390476D01*
X115419048Y-72438095D01*
X115442857Y-72461905D01*
X115490476Y-72485714D01*
X115585714Y-72485714D01*
X115633333Y-72461905D01*
X115657143Y-72438095D01*
X115680952Y-72390476D01*
X120478571Y-81771428D02*
X120502381Y-81795238D01*
X120526190Y-81866666D01*
X120526190Y-81914285D01*
X120502381Y-81985714D01*
X120454762Y-82033333D01*
X120407143Y-82057142D01*
X120311905Y-82080952D01*
X120240476Y-82080952D01*
X120145238Y-82057142D01*
X120097619Y-82033333D01*
X120050000Y-81985714D01*
X120026190Y-81914285D01*
X120026190Y-81866666D01*
X120050000Y-81795238D01*
X120073810Y-81771428D01*
X120073810Y-81580952D02*
X120050000Y-81557142D01*
X120026190Y-81509523D01*
X120026190Y-81390476D01*
X120050000Y-81342857D01*
X120073810Y-81319047D01*
X120121429Y-81295238D01*
X120169048Y-81295238D01*
X120240476Y-81319047D01*
X120526190Y-81604761D01*
X120526190Y-81295238D01*
X120526190Y-80819048D02*
X120526190Y-81104762D01*
X120526190Y-80961905D02*
X120026190Y-80961905D01*
X120097619Y-81009524D01*
X120145238Y-81057143D01*
X120169048Y-81104762D01*
X123778571Y-59271428D02*
X123802381Y-59295238D01*
X123826190Y-59366666D01*
X123826190Y-59414285D01*
X123802381Y-59485714D01*
X123754762Y-59533333D01*
X123707143Y-59557142D01*
X123611905Y-59580952D01*
X123540476Y-59580952D01*
X123445238Y-59557142D01*
X123397619Y-59533333D01*
X123350000Y-59485714D01*
X123326190Y-59414285D01*
X123326190Y-59366666D01*
X123350000Y-59295238D01*
X123373810Y-59271428D01*
X123373810Y-59080952D02*
X123350000Y-59057142D01*
X123326190Y-59009523D01*
X123326190Y-58890476D01*
X123350000Y-58842857D01*
X123373810Y-58819047D01*
X123421429Y-58795238D01*
X123469048Y-58795238D01*
X123540476Y-58819047D01*
X123826190Y-59104761D01*
X123826190Y-58795238D01*
X123492857Y-58366667D02*
X123826190Y-58366667D01*
X123302381Y-58485714D02*
X123659524Y-58604762D01*
X123659524Y-58295238D01*
X142580953Y-67126190D02*
X142580953Y-66626190D01*
X142700000Y-66626190D01*
X142771429Y-66650000D01*
X142819048Y-66697619D01*
X142842857Y-66745238D01*
X142866667Y-66840476D01*
X142866667Y-66911905D01*
X142842857Y-67007143D01*
X142819048Y-67054762D01*
X142771429Y-67102381D01*
X142700000Y-67126190D01*
X142580953Y-67126190D01*
X143342857Y-67126190D02*
X143057143Y-67126190D01*
X143200000Y-67126190D02*
X143200000Y-66626190D01*
X143152381Y-66697619D01*
X143104762Y-66745238D01*
X143057143Y-66769048D01*
X142580953Y-65776190D02*
X142580953Y-65276190D01*
X142700000Y-65276190D01*
X142771429Y-65300000D01*
X142819048Y-65347619D01*
X142842857Y-65395238D01*
X142866667Y-65490476D01*
X142866667Y-65561905D01*
X142842857Y-65657143D01*
X142819048Y-65704762D01*
X142771429Y-65752381D01*
X142700000Y-65776190D01*
X142580953Y-65776190D01*
X143057143Y-65323810D02*
X143080953Y-65300000D01*
X143128572Y-65276190D01*
X143247619Y-65276190D01*
X143295238Y-65300000D01*
X143319048Y-65323810D01*
X143342857Y-65371429D01*
X143342857Y-65419048D01*
X143319048Y-65490476D01*
X143033334Y-65776190D01*
X143342857Y-65776190D01*
X130276190Y-52719047D02*
X129776190Y-52719047D01*
X129776190Y-52600000D01*
X129800000Y-52528571D01*
X129847619Y-52480952D01*
X129895238Y-52457143D01*
X129990476Y-52433333D01*
X130061905Y-52433333D01*
X130157143Y-52457143D01*
X130204762Y-52480952D01*
X130252381Y-52528571D01*
X130276190Y-52600000D01*
X130276190Y-52719047D01*
X129776190Y-52266666D02*
X129776190Y-51957143D01*
X129966667Y-52123809D01*
X129966667Y-52052381D01*
X129990476Y-52004762D01*
X130014286Y-51980952D01*
X130061905Y-51957143D01*
X130180952Y-51957143D01*
X130228571Y-51980952D01*
X130252381Y-52004762D01*
X130276190Y-52052381D01*
X130276190Y-52195238D01*
X130252381Y-52242857D01*
X130228571Y-52266666D01*
X132680953Y-79726190D02*
X132680953Y-79226190D01*
X132800000Y-79226190D01*
X132871429Y-79250000D01*
X132919048Y-79297619D01*
X132942857Y-79345238D01*
X132966667Y-79440476D01*
X132966667Y-79511905D01*
X132942857Y-79607143D01*
X132919048Y-79654762D01*
X132871429Y-79702381D01*
X132800000Y-79726190D01*
X132680953Y-79726190D01*
X133395238Y-79392857D02*
X133395238Y-79726190D01*
X133276191Y-79202381D02*
X133157143Y-79559524D01*
X133466667Y-79559524D01*
X132680953Y-81376190D02*
X132680953Y-80876190D01*
X132800000Y-80876190D01*
X132871429Y-80900000D01*
X132919048Y-80947619D01*
X132942857Y-80995238D01*
X132966667Y-81090476D01*
X132966667Y-81161905D01*
X132942857Y-81257143D01*
X132919048Y-81304762D01*
X132871429Y-81352381D01*
X132800000Y-81376190D01*
X132680953Y-81376190D01*
X133419048Y-80876190D02*
X133180953Y-80876190D01*
X133157143Y-81114286D01*
X133180953Y-81090476D01*
X133228572Y-81066667D01*
X133347619Y-81066667D01*
X133395238Y-81090476D01*
X133419048Y-81114286D01*
X133442857Y-81161905D01*
X133442857Y-81280952D01*
X133419048Y-81328571D01*
X133395238Y-81352381D01*
X133347619Y-81376190D01*
X133228572Y-81376190D01*
X133180953Y-81352381D01*
X133157143Y-81328571D01*
X142580953Y-64126190D02*
X142580953Y-63626190D01*
X142700000Y-63626190D01*
X142771429Y-63650000D01*
X142819048Y-63697619D01*
X142842857Y-63745238D01*
X142866667Y-63840476D01*
X142866667Y-63911905D01*
X142842857Y-64007143D01*
X142819048Y-64054762D01*
X142771429Y-64102381D01*
X142700000Y-64126190D01*
X142580953Y-64126190D01*
X143295238Y-63626190D02*
X143200000Y-63626190D01*
X143152381Y-63650000D01*
X143128572Y-63673810D01*
X143080953Y-63745238D01*
X143057143Y-63840476D01*
X143057143Y-64030952D01*
X143080953Y-64078571D01*
X143104762Y-64102381D01*
X143152381Y-64126190D01*
X143247619Y-64126190D01*
X143295238Y-64102381D01*
X143319048Y-64078571D01*
X143342857Y-64030952D01*
X143342857Y-63911905D01*
X143319048Y-63864286D01*
X143295238Y-63840476D01*
X143247619Y-63816667D01*
X143152381Y-63816667D01*
X143104762Y-63840476D01*
X143080953Y-63864286D01*
X143057143Y-63911905D01*
X129583334Y-61726190D02*
X129583334Y-62083333D01*
X129559524Y-62154762D01*
X129511905Y-62202381D01*
X129440477Y-62226190D01*
X129392858Y-62226190D01*
X129821429Y-62226190D02*
X129821429Y-61726190D01*
X130011905Y-61726190D01*
X130059524Y-61750000D01*
X130083333Y-61773810D01*
X130107143Y-61821429D01*
X130107143Y-61892857D01*
X130083333Y-61940476D01*
X130059524Y-61964286D01*
X130011905Y-61988095D01*
X129821429Y-61988095D01*
X130583333Y-62226190D02*
X130297619Y-62226190D01*
X130440476Y-62226190D02*
X130440476Y-61726190D01*
X130392857Y-61797619D01*
X130345238Y-61845238D01*
X130297619Y-61869048D01*
X136726191Y-84826190D02*
X136488096Y-84826190D01*
X136488096Y-84326190D01*
X136892858Y-84564286D02*
X137059524Y-84564286D01*
X137130953Y-84826190D02*
X136892858Y-84826190D01*
X136892858Y-84326190D01*
X137130953Y-84326190D01*
X137345239Y-84826190D02*
X137345239Y-84326190D01*
X137464286Y-84326190D01*
X137535715Y-84350000D01*
X137583334Y-84397619D01*
X137607143Y-84445238D01*
X137630953Y-84540476D01*
X137630953Y-84611905D01*
X137607143Y-84707143D01*
X137583334Y-84754762D01*
X137535715Y-84802381D01*
X137464286Y-84826190D01*
X137345239Y-84826190D01*
X137821429Y-84802381D02*
X137869048Y-84826190D01*
X137964286Y-84826190D01*
X138011905Y-84802381D01*
X138035715Y-84754762D01*
X138035715Y-84730952D01*
X138011905Y-84683333D01*
X137964286Y-84659524D01*
X137892858Y-84659524D01*
X137845239Y-84635714D01*
X137821429Y-84588095D01*
X137821429Y-84564286D01*
X137845239Y-84516667D01*
X137892858Y-84492857D01*
X137964286Y-84492857D01*
X138011905Y-84516667D01*
X144802381Y-82935713D02*
X144826190Y-82864284D01*
X144826190Y-82745237D01*
X144802381Y-82697618D01*
X144778571Y-82673808D01*
X144730952Y-82649999D01*
X144683333Y-82649999D01*
X144635714Y-82673808D01*
X144611905Y-82697618D01*
X144588095Y-82745237D01*
X144564286Y-82840475D01*
X144540476Y-82888094D01*
X144516667Y-82911903D01*
X144469048Y-82935713D01*
X144421429Y-82935713D01*
X144373810Y-82911903D01*
X144350000Y-82888094D01*
X144326190Y-82840475D01*
X144326190Y-82721427D01*
X144350000Y-82649999D01*
X144826190Y-82149999D02*
X144588095Y-82316666D01*
X144826190Y-82435713D02*
X144326190Y-82435713D01*
X144326190Y-82245237D01*
X144350000Y-82197618D01*
X144373810Y-82173809D01*
X144421429Y-82149999D01*
X144492857Y-82149999D01*
X144540476Y-82173809D01*
X144564286Y-82197618D01*
X144588095Y-82245237D01*
X144588095Y-82435713D01*
X144326190Y-82007142D02*
X144826190Y-81840475D01*
X144326190Y-81673809D01*
X144873810Y-81626190D02*
X144873810Y-81245238D01*
X144373810Y-81150000D02*
X144350000Y-81126190D01*
X144326190Y-81078571D01*
X144326190Y-80959524D01*
X144350000Y-80911905D01*
X144373810Y-80888095D01*
X144421429Y-80864286D01*
X144469048Y-80864286D01*
X144540476Y-80888095D01*
X144826190Y-81173809D01*
X144826190Y-80864286D01*
X147652381Y-82935713D02*
X147676190Y-82864284D01*
X147676190Y-82745237D01*
X147652381Y-82697618D01*
X147628571Y-82673808D01*
X147580952Y-82649999D01*
X147533333Y-82649999D01*
X147485714Y-82673808D01*
X147461905Y-82697618D01*
X147438095Y-82745237D01*
X147414286Y-82840475D01*
X147390476Y-82888094D01*
X147366667Y-82911903D01*
X147319048Y-82935713D01*
X147271429Y-82935713D01*
X147223810Y-82911903D01*
X147200000Y-82888094D01*
X147176190Y-82840475D01*
X147176190Y-82721427D01*
X147200000Y-82649999D01*
X147676190Y-82149999D02*
X147438095Y-82316666D01*
X147676190Y-82435713D02*
X147176190Y-82435713D01*
X147176190Y-82245237D01*
X147200000Y-82197618D01*
X147223810Y-82173809D01*
X147271429Y-82149999D01*
X147342857Y-82149999D01*
X147390476Y-82173809D01*
X147414286Y-82197618D01*
X147438095Y-82245237D01*
X147438095Y-82435713D01*
X147176190Y-82007142D02*
X147676190Y-81840475D01*
X147176190Y-81673809D01*
X147723810Y-81626190D02*
X147723810Y-81245238D01*
X147676190Y-80864286D02*
X147676190Y-81150000D01*
X147676190Y-81007143D02*
X147176190Y-81007143D01*
X147247619Y-81054762D01*
X147295238Y-81102381D01*
X147319048Y-81150000D01*
X104073810Y-64397619D02*
X104050000Y-64445238D01*
X104002381Y-64492857D01*
X103930952Y-64564286D01*
X103907143Y-64611905D01*
X103907143Y-64659524D01*
X104026190Y-64635714D02*
X104002381Y-64683333D01*
X103954762Y-64730952D01*
X103859524Y-64754762D01*
X103692857Y-64754762D01*
X103597619Y-64730952D01*
X103550000Y-64683333D01*
X103526190Y-64635714D01*
X103526190Y-64540476D01*
X103550000Y-64492857D01*
X103597619Y-64445238D01*
X103692857Y-64421429D01*
X103859524Y-64421429D01*
X103954762Y-64445238D01*
X104002381Y-64492857D01*
X104026190Y-64540476D01*
X104026190Y-64635714D01*
X104026190Y-63945238D02*
X104026190Y-64230952D01*
X104026190Y-64088095D02*
X103526190Y-64088095D01*
X103597619Y-64135714D01*
X103645238Y-64183333D01*
X103669048Y-64230952D01*
X104073810Y-60047619D02*
X104050000Y-60095238D01*
X104002381Y-60142857D01*
X103930952Y-60214286D01*
X103907143Y-60261905D01*
X103907143Y-60309524D01*
X104026190Y-60285714D02*
X104002381Y-60333333D01*
X103954762Y-60380952D01*
X103859524Y-60404762D01*
X103692857Y-60404762D01*
X103597619Y-60380952D01*
X103550000Y-60333333D01*
X103526190Y-60285714D01*
X103526190Y-60190476D01*
X103550000Y-60142857D01*
X103597619Y-60095238D01*
X103692857Y-60071429D01*
X103859524Y-60071429D01*
X103954762Y-60095238D01*
X104002381Y-60142857D01*
X104026190Y-60190476D01*
X104026190Y-60285714D01*
X103573810Y-59880952D02*
X103550000Y-59857142D01*
X103526190Y-59809523D01*
X103526190Y-59690476D01*
X103550000Y-59642857D01*
X103573810Y-59619047D01*
X103621429Y-59595238D01*
X103669048Y-59595238D01*
X103740476Y-59619047D01*
X104026190Y-59904761D01*
X104026190Y-59595238D01*
X109023810Y-60047619D02*
X109000000Y-60095238D01*
X108952381Y-60142857D01*
X108880952Y-60214286D01*
X108857143Y-60261905D01*
X108857143Y-60309524D01*
X108976190Y-60285714D02*
X108952381Y-60333333D01*
X108904762Y-60380952D01*
X108809524Y-60404762D01*
X108642857Y-60404762D01*
X108547619Y-60380952D01*
X108500000Y-60333333D01*
X108476190Y-60285714D01*
X108476190Y-60190476D01*
X108500000Y-60142857D01*
X108547619Y-60095238D01*
X108642857Y-60071429D01*
X108809524Y-60071429D01*
X108904762Y-60095238D01*
X108952381Y-60142857D01*
X108976190Y-60190476D01*
X108976190Y-60285714D01*
X108642857Y-59642857D02*
X108976190Y-59642857D01*
X108452381Y-59761904D02*
X108809524Y-59880952D01*
X108809524Y-59571428D01*
X119673810Y-65897619D02*
X119650000Y-65945238D01*
X119602381Y-65992857D01*
X119530952Y-66064286D01*
X119507143Y-66111905D01*
X119507143Y-66159524D01*
X119626190Y-66135714D02*
X119602381Y-66183333D01*
X119554762Y-66230952D01*
X119459524Y-66254762D01*
X119292857Y-66254762D01*
X119197619Y-66230952D01*
X119150000Y-66183333D01*
X119126190Y-66135714D01*
X119126190Y-66040476D01*
X119150000Y-65992857D01*
X119197619Y-65945238D01*
X119292857Y-65921429D01*
X119459524Y-65921429D01*
X119554762Y-65945238D01*
X119602381Y-65992857D01*
X119626190Y-66040476D01*
X119626190Y-66135714D01*
X119126190Y-65469047D02*
X119126190Y-65707142D01*
X119364286Y-65730952D01*
X119340476Y-65707142D01*
X119316667Y-65659523D01*
X119316667Y-65540476D01*
X119340476Y-65492857D01*
X119364286Y-65469047D01*
X119411905Y-65445238D01*
X119530952Y-65445238D01*
X119578571Y-65469047D01*
X119602381Y-65492857D01*
X119626190Y-65540476D01*
X119626190Y-65659523D01*
X119602381Y-65707142D01*
X119578571Y-65730952D01*
X114123810Y-60047619D02*
X114100000Y-60095238D01*
X114052381Y-60142857D01*
X113980952Y-60214286D01*
X113957143Y-60261905D01*
X113957143Y-60309524D01*
X114076190Y-60285714D02*
X114052381Y-60333333D01*
X114004762Y-60380952D01*
X113909524Y-60404762D01*
X113742857Y-60404762D01*
X113647619Y-60380952D01*
X113600000Y-60333333D01*
X113576190Y-60285714D01*
X113576190Y-60190476D01*
X113600000Y-60142857D01*
X113647619Y-60095238D01*
X113742857Y-60071429D01*
X113909524Y-60071429D01*
X114004762Y-60095238D01*
X114052381Y-60142857D01*
X114076190Y-60190476D01*
X114076190Y-60285714D01*
X113576190Y-59642857D02*
X113576190Y-59738095D01*
X113600000Y-59785714D01*
X113623810Y-59809523D01*
X113695238Y-59857142D01*
X113790476Y-59880952D01*
X113980952Y-59880952D01*
X114028571Y-59857142D01*
X114052381Y-59833333D01*
X114076190Y-59785714D01*
X114076190Y-59690476D01*
X114052381Y-59642857D01*
X114028571Y-59619047D01*
X113980952Y-59595238D01*
X113861905Y-59595238D01*
X113814286Y-59619047D01*
X113790476Y-59642857D01*
X113766667Y-59690476D01*
X113766667Y-59785714D01*
X113790476Y-59833333D01*
X113814286Y-59857142D01*
X113861905Y-59880952D01*
X113973810Y-64397619D02*
X113950000Y-64445238D01*
X113902381Y-64492857D01*
X113830952Y-64564286D01*
X113807143Y-64611905D01*
X113807143Y-64659524D01*
X113926190Y-64635714D02*
X113902381Y-64683333D01*
X113854762Y-64730952D01*
X113759524Y-64754762D01*
X113592857Y-64754762D01*
X113497619Y-64730952D01*
X113450000Y-64683333D01*
X113426190Y-64635714D01*
X113426190Y-64540476D01*
X113450000Y-64492857D01*
X113497619Y-64445238D01*
X113592857Y-64421429D01*
X113759524Y-64421429D01*
X113854762Y-64445238D01*
X113902381Y-64492857D01*
X113926190Y-64540476D01*
X113926190Y-64635714D01*
X113426190Y-64254761D02*
X113426190Y-63921428D01*
X113926190Y-64135714D01*
X130916667Y-67726190D02*
X130750000Y-67488095D01*
X130630953Y-67726190D02*
X130630953Y-67226190D01*
X130821429Y-67226190D01*
X130869048Y-67250000D01*
X130892857Y-67273810D01*
X130916667Y-67321429D01*
X130916667Y-67392857D01*
X130892857Y-67440476D01*
X130869048Y-67464286D01*
X130821429Y-67488095D01*
X130630953Y-67488095D01*
X131392857Y-67726190D02*
X131107143Y-67726190D01*
X131250000Y-67726190D02*
X131250000Y-67226190D01*
X131202381Y-67297619D01*
X131154762Y-67345238D01*
X131107143Y-67369048D01*
X120366667Y-73726190D02*
X120200000Y-73488095D01*
X120080953Y-73726190D02*
X120080953Y-73226190D01*
X120271429Y-73226190D01*
X120319048Y-73250000D01*
X120342857Y-73273810D01*
X120366667Y-73321429D01*
X120366667Y-73392857D01*
X120342857Y-73440476D01*
X120319048Y-73464286D01*
X120271429Y-73488095D01*
X120080953Y-73488095D01*
X120557143Y-73273810D02*
X120580953Y-73250000D01*
X120628572Y-73226190D01*
X120747619Y-73226190D01*
X120795238Y-73250000D01*
X120819048Y-73273810D01*
X120842857Y-73321429D01*
X120842857Y-73369048D01*
X120819048Y-73440476D01*
X120533334Y-73726190D01*
X120842857Y-73726190D01*
X137776190Y-72233333D02*
X137538095Y-72400000D01*
X137776190Y-72519047D02*
X137276190Y-72519047D01*
X137276190Y-72328571D01*
X137300000Y-72280952D01*
X137323810Y-72257143D01*
X137371429Y-72233333D01*
X137442857Y-72233333D01*
X137490476Y-72257143D01*
X137514286Y-72280952D01*
X137538095Y-72328571D01*
X137538095Y-72519047D01*
X137276190Y-72066666D02*
X137276190Y-71757143D01*
X137466667Y-71923809D01*
X137466667Y-71852381D01*
X137490476Y-71804762D01*
X137514286Y-71780952D01*
X137561905Y-71757143D01*
X137680952Y-71757143D01*
X137728571Y-71780952D01*
X137752381Y-71804762D01*
X137776190Y-71852381D01*
X137776190Y-71995238D01*
X137752381Y-72042857D01*
X137728571Y-72066666D01*
X121866667Y-73726190D02*
X121700000Y-73488095D01*
X121580953Y-73726190D02*
X121580953Y-73226190D01*
X121771429Y-73226190D01*
X121819048Y-73250000D01*
X121842857Y-73273810D01*
X121866667Y-73321429D01*
X121866667Y-73392857D01*
X121842857Y-73440476D01*
X121819048Y-73464286D01*
X121771429Y-73488095D01*
X121580953Y-73488095D01*
X122295238Y-73392857D02*
X122295238Y-73726190D01*
X122176191Y-73202381D02*
X122057143Y-73559524D01*
X122366667Y-73559524D01*
X130276190Y-55583333D02*
X130038095Y-55750000D01*
X130276190Y-55869047D02*
X129776190Y-55869047D01*
X129776190Y-55678571D01*
X129800000Y-55630952D01*
X129823810Y-55607143D01*
X129871429Y-55583333D01*
X129942857Y-55583333D01*
X129990476Y-55607143D01*
X130014286Y-55630952D01*
X130038095Y-55678571D01*
X130038095Y-55869047D01*
X129776190Y-55130952D02*
X129776190Y-55369047D01*
X130014286Y-55392857D01*
X129990476Y-55369047D01*
X129966667Y-55321428D01*
X129966667Y-55202381D01*
X129990476Y-55154762D01*
X130014286Y-55130952D01*
X130061905Y-55107143D01*
X130180952Y-55107143D01*
X130228571Y-55130952D01*
X130252381Y-55154762D01*
X130276190Y-55202381D01*
X130276190Y-55321428D01*
X130252381Y-55369047D01*
X130228571Y-55392857D01*
X108226190Y-86483333D02*
X107988095Y-86650000D01*
X108226190Y-86769047D02*
X107726190Y-86769047D01*
X107726190Y-86578571D01*
X107750000Y-86530952D01*
X107773810Y-86507143D01*
X107821429Y-86483333D01*
X107892857Y-86483333D01*
X107940476Y-86507143D01*
X107964286Y-86530952D01*
X107988095Y-86578571D01*
X107988095Y-86769047D01*
X107726190Y-86054762D02*
X107726190Y-86150000D01*
X107750000Y-86197619D01*
X107773810Y-86221428D01*
X107845238Y-86269047D01*
X107940476Y-86292857D01*
X108130952Y-86292857D01*
X108178571Y-86269047D01*
X108202381Y-86245238D01*
X108226190Y-86197619D01*
X108226190Y-86102381D01*
X108202381Y-86054762D01*
X108178571Y-86030952D01*
X108130952Y-86007143D01*
X108011905Y-86007143D01*
X107964286Y-86030952D01*
X107940476Y-86054762D01*
X107916667Y-86102381D01*
X107916667Y-86197619D01*
X107940476Y-86245238D01*
X107964286Y-86269047D01*
X108011905Y-86292857D01*
X107766667Y-68326190D02*
X107600000Y-68088095D01*
X107480953Y-68326190D02*
X107480953Y-67826190D01*
X107671429Y-67826190D01*
X107719048Y-67850000D01*
X107742857Y-67873810D01*
X107766667Y-67921429D01*
X107766667Y-67992857D01*
X107742857Y-68040476D01*
X107719048Y-68064286D01*
X107671429Y-68088095D01*
X107480953Y-68088095D01*
X107933334Y-67826190D02*
X108266667Y-67826190D01*
X108052381Y-68326190D01*
X109266667Y-68326190D02*
X109100000Y-68088095D01*
X108980953Y-68326190D02*
X108980953Y-67826190D01*
X109171429Y-67826190D01*
X109219048Y-67850000D01*
X109242857Y-67873810D01*
X109266667Y-67921429D01*
X109266667Y-67992857D01*
X109242857Y-68040476D01*
X109219048Y-68064286D01*
X109171429Y-68088095D01*
X108980953Y-68088095D01*
X109504762Y-68326190D02*
X109600000Y-68326190D01*
X109647619Y-68302381D01*
X109671429Y-68278571D01*
X109719048Y-68207143D01*
X109742857Y-68111905D01*
X109742857Y-67921429D01*
X109719048Y-67873810D01*
X109695238Y-67850000D01*
X109647619Y-67826190D01*
X109552381Y-67826190D01*
X109504762Y-67850000D01*
X109480953Y-67873810D01*
X109457143Y-67921429D01*
X109457143Y-68040476D01*
X109480953Y-68088095D01*
X109504762Y-68111905D01*
X109552381Y-68135714D01*
X109647619Y-68135714D01*
X109695238Y-68111905D01*
X109719048Y-68088095D01*
X109742857Y-68040476D01*
X110678572Y-68326190D02*
X110511905Y-68088095D01*
X110392858Y-68326190D02*
X110392858Y-67826190D01*
X110583334Y-67826190D01*
X110630953Y-67850000D01*
X110654762Y-67873810D01*
X110678572Y-67921429D01*
X110678572Y-67992857D01*
X110654762Y-68040476D01*
X110630953Y-68064286D01*
X110583334Y-68088095D01*
X110392858Y-68088095D01*
X111154762Y-68326190D02*
X110869048Y-68326190D01*
X111011905Y-68326190D02*
X111011905Y-67826190D01*
X110964286Y-67897619D01*
X110916667Y-67945238D01*
X110869048Y-67969048D01*
X111464286Y-67826190D02*
X111511905Y-67826190D01*
X111559524Y-67850000D01*
X111583333Y-67873810D01*
X111607143Y-67921429D01*
X111630952Y-68016667D01*
X111630952Y-68135714D01*
X111607143Y-68230952D01*
X111583333Y-68278571D01*
X111559524Y-68302381D01*
X111511905Y-68326190D01*
X111464286Y-68326190D01*
X111416667Y-68302381D01*
X111392857Y-68278571D01*
X111369048Y-68230952D01*
X111345238Y-68135714D01*
X111345238Y-68016667D01*
X111369048Y-67921429D01*
X111392857Y-67873810D01*
X111416667Y-67850000D01*
X111464286Y-67826190D01*
X112328572Y-68326190D02*
X112161905Y-68088095D01*
X112042858Y-68326190D02*
X112042858Y-67826190D01*
X112233334Y-67826190D01*
X112280953Y-67850000D01*
X112304762Y-67873810D01*
X112328572Y-67921429D01*
X112328572Y-67992857D01*
X112304762Y-68040476D01*
X112280953Y-68064286D01*
X112233334Y-68088095D01*
X112042858Y-68088095D01*
X112804762Y-68326190D02*
X112519048Y-68326190D01*
X112661905Y-68326190D02*
X112661905Y-67826190D01*
X112614286Y-67897619D01*
X112566667Y-67945238D01*
X112519048Y-67969048D01*
X113280952Y-68326190D02*
X112995238Y-68326190D01*
X113138095Y-68326190D02*
X113138095Y-67826190D01*
X113090476Y-67897619D01*
X113042857Y-67945238D01*
X112995238Y-67969048D01*
X113978572Y-68326190D02*
X113811905Y-68088095D01*
X113692858Y-68326190D02*
X113692858Y-67826190D01*
X113883334Y-67826190D01*
X113930953Y-67850000D01*
X113954762Y-67873810D01*
X113978572Y-67921429D01*
X113978572Y-67992857D01*
X113954762Y-68040476D01*
X113930953Y-68064286D01*
X113883334Y-68088095D01*
X113692858Y-68088095D01*
X114454762Y-68326190D02*
X114169048Y-68326190D01*
X114311905Y-68326190D02*
X114311905Y-67826190D01*
X114264286Y-67897619D01*
X114216667Y-67945238D01*
X114169048Y-67969048D01*
X114621429Y-67826190D02*
X114930952Y-67826190D01*
X114764286Y-68016667D01*
X114835714Y-68016667D01*
X114883333Y-68040476D01*
X114907143Y-68064286D01*
X114930952Y-68111905D01*
X114930952Y-68230952D01*
X114907143Y-68278571D01*
X114883333Y-68302381D01*
X114835714Y-68326190D01*
X114692857Y-68326190D01*
X114645238Y-68302381D01*
X114621429Y-68278571D01*
X115628572Y-68326190D02*
X115461905Y-68088095D01*
X115342858Y-68326190D02*
X115342858Y-67826190D01*
X115533334Y-67826190D01*
X115580953Y-67850000D01*
X115604762Y-67873810D01*
X115628572Y-67921429D01*
X115628572Y-67992857D01*
X115604762Y-68040476D01*
X115580953Y-68064286D01*
X115533334Y-68088095D01*
X115342858Y-68088095D01*
X116104762Y-68326190D02*
X115819048Y-68326190D01*
X115961905Y-68326190D02*
X115961905Y-67826190D01*
X115914286Y-67897619D01*
X115866667Y-67945238D01*
X115819048Y-67969048D01*
X116533333Y-67992857D02*
X116533333Y-68326190D01*
X116414286Y-67802381D02*
X116295238Y-68159524D01*
X116604762Y-68159524D01*
X118576190Y-61821428D02*
X118338095Y-61988095D01*
X118576190Y-62107142D02*
X118076190Y-62107142D01*
X118076190Y-61916666D01*
X118100000Y-61869047D01*
X118123810Y-61845238D01*
X118171429Y-61821428D01*
X118242857Y-61821428D01*
X118290476Y-61845238D01*
X118314286Y-61869047D01*
X118338095Y-61916666D01*
X118338095Y-62107142D01*
X118576190Y-61345238D02*
X118576190Y-61630952D01*
X118576190Y-61488095D02*
X118076190Y-61488095D01*
X118147619Y-61535714D01*
X118195238Y-61583333D01*
X118219048Y-61630952D01*
X118076190Y-60892857D02*
X118076190Y-61130952D01*
X118314286Y-61154762D01*
X118290476Y-61130952D01*
X118266667Y-61083333D01*
X118266667Y-60964286D01*
X118290476Y-60916667D01*
X118314286Y-60892857D01*
X118361905Y-60869048D01*
X118480952Y-60869048D01*
X118528571Y-60892857D01*
X118552381Y-60916667D01*
X118576190Y-60964286D01*
X118576190Y-61083333D01*
X118552381Y-61130952D01*
X118528571Y-61154762D01*
X122776190Y-61821428D02*
X122538095Y-61988095D01*
X122776190Y-62107142D02*
X122276190Y-62107142D01*
X122276190Y-61916666D01*
X122300000Y-61869047D01*
X122323810Y-61845238D01*
X122371429Y-61821428D01*
X122442857Y-61821428D01*
X122490476Y-61845238D01*
X122514286Y-61869047D01*
X122538095Y-61916666D01*
X122538095Y-62107142D01*
X122776190Y-61345238D02*
X122776190Y-61630952D01*
X122776190Y-61488095D02*
X122276190Y-61488095D01*
X122347619Y-61535714D01*
X122395238Y-61583333D01*
X122419048Y-61630952D01*
X122276190Y-60916667D02*
X122276190Y-61011905D01*
X122300000Y-61059524D01*
X122323810Y-61083333D01*
X122395238Y-61130952D01*
X122490476Y-61154762D01*
X122680952Y-61154762D01*
X122728571Y-61130952D01*
X122752381Y-61107143D01*
X122776190Y-61059524D01*
X122776190Y-60964286D01*
X122752381Y-60916667D01*
X122728571Y-60892857D01*
X122680952Y-60869048D01*
X122561905Y-60869048D01*
X122514286Y-60892857D01*
X122490476Y-60916667D01*
X122466667Y-60964286D01*
X122466667Y-61059524D01*
X122490476Y-61107143D01*
X122514286Y-61130952D01*
X122561905Y-61154762D01*
X121276190Y-57471428D02*
X121038095Y-57638095D01*
X121276190Y-57757142D02*
X120776190Y-57757142D01*
X120776190Y-57566666D01*
X120800000Y-57519047D01*
X120823810Y-57495238D01*
X120871429Y-57471428D01*
X120942857Y-57471428D01*
X120990476Y-57495238D01*
X121014286Y-57519047D01*
X121038095Y-57566666D01*
X121038095Y-57757142D01*
X121276190Y-56995238D02*
X121276190Y-57280952D01*
X121276190Y-57138095D02*
X120776190Y-57138095D01*
X120847619Y-57185714D01*
X120895238Y-57233333D01*
X120919048Y-57280952D01*
X120776190Y-56828571D02*
X120776190Y-56495238D01*
X121276190Y-56709524D01*
X119776190Y-57471428D02*
X119538095Y-57638095D01*
X119776190Y-57757142D02*
X119276190Y-57757142D01*
X119276190Y-57566666D01*
X119300000Y-57519047D01*
X119323810Y-57495238D01*
X119371429Y-57471428D01*
X119442857Y-57471428D01*
X119490476Y-57495238D01*
X119514286Y-57519047D01*
X119538095Y-57566666D01*
X119538095Y-57757142D01*
X119776190Y-56995238D02*
X119776190Y-57280952D01*
X119776190Y-57138095D02*
X119276190Y-57138095D01*
X119347619Y-57185714D01*
X119395238Y-57233333D01*
X119419048Y-57280952D01*
X119490476Y-56709524D02*
X119466667Y-56757143D01*
X119442857Y-56780952D01*
X119395238Y-56804762D01*
X119371429Y-56804762D01*
X119323810Y-56780952D01*
X119300000Y-56757143D01*
X119276190Y-56709524D01*
X119276190Y-56614286D01*
X119300000Y-56566667D01*
X119323810Y-56542857D01*
X119371429Y-56519048D01*
X119395238Y-56519048D01*
X119442857Y-56542857D01*
X119466667Y-56566667D01*
X119490476Y-56614286D01*
X119490476Y-56709524D01*
X119514286Y-56757143D01*
X119538095Y-56780952D01*
X119585714Y-56804762D01*
X119680952Y-56804762D01*
X119728571Y-56780952D01*
X119752381Y-56757143D01*
X119776190Y-56709524D01*
X119776190Y-56614286D01*
X119752381Y-56566667D01*
X119728571Y-56542857D01*
X119680952Y-56519048D01*
X119585714Y-56519048D01*
X119538095Y-56542857D01*
X119514286Y-56566667D01*
X119490476Y-56614286D01*
X127576190Y-68883333D02*
X127338095Y-69050000D01*
X127576190Y-69169047D02*
X127076190Y-69169047D01*
X127076190Y-68978571D01*
X127100000Y-68930952D01*
X127123810Y-68907143D01*
X127171429Y-68883333D01*
X127242857Y-68883333D01*
X127290476Y-68907143D01*
X127314286Y-68930952D01*
X127338095Y-68978571D01*
X127338095Y-69169047D01*
X127576190Y-68669047D02*
X127076190Y-68669047D01*
X127076190Y-68478571D01*
X127100000Y-68430952D01*
X127123810Y-68407143D01*
X127171429Y-68383333D01*
X127242857Y-68383333D01*
X127290476Y-68407143D01*
X127314286Y-68430952D01*
X127338095Y-68478571D01*
X127338095Y-68669047D01*
X127123810Y-68192857D02*
X127100000Y-68169047D01*
X127076190Y-68121428D01*
X127076190Y-68002381D01*
X127100000Y-67954762D01*
X127123810Y-67930952D01*
X127171429Y-67907143D01*
X127219048Y-67907143D01*
X127290476Y-67930952D01*
X127576190Y-68216666D01*
X127576190Y-67907143D01*
X125619048Y-75964190D02*
X125619048Y-76368952D01*
X125642857Y-76416571D01*
X125666667Y-76440381D01*
X125714286Y-76464190D01*
X125809524Y-76464190D01*
X125857143Y-76440381D01*
X125880952Y-76416571D01*
X125904762Y-76368952D01*
X125904762Y-75964190D01*
X126095239Y-75964190D02*
X126428572Y-75964190D01*
X126214286Y-76464190D01*
X135811906Y-74688095D02*
X135811906Y-74926190D01*
X135645239Y-74426190D02*
X135811906Y-74688095D01*
X135978572Y-74426190D01*
X136407143Y-74926190D02*
X136121429Y-74926190D01*
X136264286Y-74926190D02*
X136264286Y-74426190D01*
X136216667Y-74497619D01*
X136169048Y-74545238D01*
X136121429Y-74569048D01*
X103178572Y-73478571D02*
X103154762Y-73502381D01*
X103083334Y-73526190D01*
X103035715Y-73526190D01*
X102964286Y-73502381D01*
X102916667Y-73454762D01*
X102892858Y-73407143D01*
X102869048Y-73311905D01*
X102869048Y-73240476D01*
X102892858Y-73145238D01*
X102916667Y-73097619D01*
X102964286Y-73050000D01*
X103035715Y-73026190D01*
X103083334Y-73026190D01*
X103154762Y-73050000D01*
X103178572Y-73073810D01*
X103369048Y-73073810D02*
X103392858Y-73050000D01*
X103440477Y-73026190D01*
X103559524Y-73026190D01*
X103607143Y-73050000D01*
X103630953Y-73073810D01*
X103654762Y-73121429D01*
X103654762Y-73169048D01*
X103630953Y-73240476D01*
X103345239Y-73526190D01*
X103654762Y-73526190D01*
X103964286Y-73026190D02*
X104011905Y-73026190D01*
X104059524Y-73050000D01*
X104083333Y-73073810D01*
X104107143Y-73121429D01*
X104130952Y-73216667D01*
X104130952Y-73335714D01*
X104107143Y-73430952D01*
X104083333Y-73478571D01*
X104059524Y-73502381D01*
X104011905Y-73526190D01*
X103964286Y-73526190D01*
X103916667Y-73502381D01*
X103892857Y-73478571D01*
X103869048Y-73430952D01*
X103845238Y-73335714D01*
X103845238Y-73216667D01*
X103869048Y-73121429D01*
X103892857Y-73073810D01*
X103916667Y-73050000D01*
X103964286Y-73026190D01*
X142580953Y-68776190D02*
X142580953Y-68276190D01*
X142700000Y-68276190D01*
X142771429Y-68300000D01*
X142819048Y-68347619D01*
X142842857Y-68395238D01*
X142866667Y-68490476D01*
X142866667Y-68561905D01*
X142842857Y-68657143D01*
X142819048Y-68704762D01*
X142771429Y-68752381D01*
X142700000Y-68776190D01*
X142580953Y-68776190D01*
X143033334Y-68276190D02*
X143366667Y-68276190D01*
X143152381Y-68776190D01*
M02*
