G04 #@! TF.FileFunction,Copper,L2,Bot,Signal*
%FSLAX46Y46*%
G04 Gerber Fmt 4.6, Leading zero omitted, Abs format (unit mm)*
G04 Created by KiCad (PCBNEW 4.0.5) date Wed Jan 11 14:09:31 2017*
%MOMM*%
%LPD*%
G01*
G04 APERTURE LIST*
%ADD10C,0.100000*%
%ADD11O,1.998980X1.998980*%
%ADD12C,1.998980*%
%ADD13C,1.250000*%
%ADD14C,1.550000*%
%ADD15R,1.998980X1.998980*%
%ADD16R,0.900000X2.500000*%
%ADD17R,2.032000X1.727200*%
%ADD18O,2.032000X1.727200*%
%ADD19C,4.064000*%
%ADD20R,0.750000X0.800000*%
%ADD21R,0.800000X0.750000*%
%ADD22R,1.727200X2.032000*%
%ADD23O,1.727200X2.032000*%
%ADD24R,1.300000X1.300000*%
%ADD25C,1.300000*%
%ADD26C,0.600000*%
%ADD27C,0.150000*%
%ADD28C,0.300000*%
G04 APERTURE END LIST*
D10*
D11*
X108420000Y-53000000D03*
D12*
X113500000Y-53000000D03*
D11*
X110960000Y-53000000D03*
D13*
X140500900Y-55562540D03*
X135500900Y-55562540D03*
D14*
X141500900Y-52862540D03*
X134500900Y-52862540D03*
D11*
X119880000Y-53000000D03*
D15*
X127500000Y-53000000D03*
D11*
X124960000Y-53000000D03*
X122420000Y-53000000D03*
X117340000Y-53000000D03*
D16*
X105200000Y-57250000D03*
X102300000Y-57250000D03*
D17*
X147000000Y-69500000D03*
D18*
X147000000Y-66960000D03*
X147000000Y-64420000D03*
X147000000Y-61880000D03*
X147000000Y-59340000D03*
D19*
X103000000Y-53000000D03*
X103000000Y-87000000D03*
X147000000Y-87000000D03*
X147000000Y-53000000D03*
D20*
X102300000Y-60900000D03*
X102300000Y-59400000D03*
D21*
X119750000Y-59500000D03*
X118250000Y-59500000D03*
D22*
X135000000Y-87000000D03*
D23*
X137540000Y-87000000D03*
X140080000Y-87000000D03*
D17*
X144500000Y-78500000D03*
D18*
X144500000Y-75960000D03*
X144500000Y-73420000D03*
D17*
X147500000Y-78500000D03*
D18*
X147500000Y-75960000D03*
X147500000Y-73420000D03*
D11*
X121380000Y-87000000D03*
D15*
X129000000Y-87000000D03*
D11*
X126460000Y-87000000D03*
X123920000Y-87000000D03*
D16*
X116800000Y-57250000D03*
X119700000Y-57250000D03*
D24*
X104500000Y-69500000D03*
D25*
X102500000Y-69500000D03*
D26*
X119250000Y-71100000D03*
X116000000Y-64500000D03*
X134400000Y-59400000D03*
X144825021Y-61950000D03*
X144825021Y-60450000D03*
X145050000Y-68550000D03*
X145050000Y-66599994D03*
X132000000Y-71250000D03*
X139000000Y-66000000D03*
X135000000Y-65700000D03*
X109000000Y-76250000D03*
X109000000Y-77000000D03*
X108250000Y-77000000D03*
X107500000Y-76250000D03*
X108250000Y-76250000D03*
X107500000Y-77000000D03*
X106750000Y-77000000D03*
X106750000Y-76250000D03*
X117264573Y-72520851D03*
X127425032Y-69900000D03*
X121950000Y-61500000D03*
X123600000Y-82650000D03*
X123600000Y-81900000D03*
X133650000Y-55650000D03*
X139800000Y-72150000D03*
X130500000Y-76650000D03*
X120450000Y-63450000D03*
X121500000Y-79650000D03*
X135300000Y-77400000D03*
X136650000Y-77400000D03*
X129300000Y-66000000D03*
X118050000Y-85200000D03*
X114450000Y-85200000D03*
X109200000Y-85200000D03*
X118350000Y-79800000D03*
X144900000Y-65400000D03*
X144900000Y-63900000D03*
X115500000Y-51150000D03*
X128250000Y-82350000D03*
X148350000Y-56700000D03*
X146100000Y-56700000D03*
X142350000Y-74700000D03*
X149100000Y-74700000D03*
X117600000Y-69599994D03*
X109350000Y-71500000D03*
X106000000Y-60000000D03*
X108600000Y-67500000D03*
X117600000Y-70350000D03*
X112600000Y-71500000D03*
X111000000Y-60000000D03*
X111900000Y-67500000D03*
X117600000Y-71100000D03*
X115850000Y-71500000D03*
X116000000Y-60000000D03*
X115050000Y-67500000D03*
X114900000Y-57000000D03*
X115650000Y-57000000D03*
X115650000Y-56250000D03*
X114900000Y-56250000D03*
X111300000Y-57000000D03*
X110550000Y-57000000D03*
X110550000Y-56250000D03*
X111300000Y-56250000D03*
X106950000Y-57000000D03*
X106200000Y-57000000D03*
X106200000Y-56250000D03*
X106950000Y-56250000D03*
X110400000Y-67500000D03*
X142574957Y-66900000D03*
X128100000Y-63900000D03*
X142574957Y-65400000D03*
X128100000Y-63150000D03*
X142574957Y-64050000D03*
X128100000Y-62400000D03*
X144300000Y-57450000D03*
X138750000Y-81600004D03*
X138750000Y-78150000D03*
X145050000Y-69750000D03*
X141600000Y-57750000D03*
X138300000Y-59550000D03*
X137850000Y-68700000D03*
X141750000Y-71700000D03*
X133050000Y-59700000D03*
X142050000Y-59674998D03*
X135150000Y-59700000D03*
X142051998Y-58924989D03*
X140471239Y-67878762D03*
X142907907Y-69511559D03*
X129150000Y-73050000D03*
X127200000Y-77550000D03*
X132891014Y-64263279D03*
X142681226Y-72150996D03*
X132750000Y-66450000D03*
X143850000Y-71700000D03*
X132749992Y-65313290D03*
X104250000Y-62400000D03*
X107850000Y-67500000D03*
X104400000Y-59250000D03*
X107850000Y-66750000D03*
X111150000Y-67575023D03*
X109200000Y-62400000D03*
X111198889Y-66779410D03*
X109424906Y-59250000D03*
X114150000Y-62400000D03*
X114300000Y-67500000D03*
X114424972Y-59250000D03*
X114300000Y-66749997D03*
X118200000Y-51300000D03*
X143100000Y-54450000D03*
X145050004Y-67800000D03*
X119400000Y-50550000D03*
X118350000Y-62400000D03*
X118350000Y-64500000D03*
X129900000Y-70350000D03*
X130199997Y-68850000D03*
X120900012Y-71400000D03*
X106350000Y-79800000D03*
X130950000Y-68850000D03*
X129900000Y-71100000D03*
X120900000Y-72150000D03*
X107250000Y-79800000D03*
X143700000Y-69600000D03*
X119000000Y-55000000D03*
X131700000Y-69449994D03*
X129900000Y-71850000D03*
X120900000Y-72900000D03*
X108150000Y-79800000D03*
X117150000Y-79500000D03*
X141149617Y-64206729D03*
X126079037Y-61661996D03*
X128400000Y-61200000D03*
X115050000Y-79800000D03*
X141192304Y-63457940D03*
X139415132Y-57472074D03*
X113550000Y-79800000D03*
X138700131Y-57698549D03*
X114300000Y-79800000D03*
X138619554Y-58491894D03*
X112800000Y-82800000D03*
X137876764Y-58388068D03*
X113850000Y-82800000D03*
X137120131Y-58786109D03*
X114900000Y-82800000D03*
X124950000Y-58950000D03*
X109650000Y-79650000D03*
X124408383Y-60508373D03*
X110050000Y-82480000D03*
X124426408Y-61258169D03*
X109050000Y-82800000D03*
X126150000Y-58950000D03*
X110700000Y-79800000D03*
X131850000Y-61200000D03*
X141163421Y-62686579D03*
X140091303Y-57796589D03*
X112800000Y-79800000D03*
X142649987Y-68250000D03*
X128100000Y-64650003D03*
D27*
X116000000Y-64500000D02*
X119250000Y-67750000D01*
X119250000Y-67750000D02*
X119250000Y-71100000D01*
X108250000Y-77000000D02*
X109000000Y-77000000D01*
X107500000Y-76250000D02*
X108250000Y-76250000D01*
X106750000Y-77000000D02*
X107500000Y-77000000D01*
X106750000Y-76250000D02*
X106750000Y-77000000D01*
X114840000Y-50500000D02*
X114850000Y-50500000D01*
X114850000Y-50500000D02*
X115500000Y-51150000D01*
X125144491Y-89355509D02*
X125144491Y-85455509D01*
X125000000Y-89500000D02*
X125144491Y-89355509D01*
X125144491Y-85455509D02*
X128250000Y-82350000D01*
X100500000Y-89500000D02*
X125000000Y-89500000D01*
X100500000Y-50500000D02*
X100500000Y-89500000D01*
X114840000Y-50500000D02*
X100500000Y-50500000D01*
X146100000Y-56700000D02*
X148350000Y-56700000D01*
X149100000Y-74700000D02*
X142350000Y-74700000D01*
X117449993Y-69750001D02*
X117600000Y-69599994D01*
X109900000Y-71500000D02*
X111649999Y-69750001D01*
X109350000Y-71500000D02*
X109900000Y-71500000D01*
X111649999Y-69750001D02*
X117449993Y-69750001D01*
X108600000Y-67500000D02*
X108600000Y-66722998D01*
X107348556Y-66150000D02*
X105075011Y-63876455D01*
X105075011Y-60374989D02*
X105450000Y-60000000D01*
X108600000Y-66722998D02*
X108027002Y-66150000D01*
X108027002Y-66150000D02*
X107348556Y-66150000D01*
X105075011Y-63876455D02*
X105075011Y-60374989D01*
X105450000Y-60000000D02*
X106000000Y-60000000D01*
X113600017Y-70499983D02*
X117450017Y-70499983D01*
X112600000Y-71500000D02*
X113600017Y-70499983D01*
X117450017Y-70499983D02*
X117600000Y-70350000D01*
X111900000Y-67500000D02*
X111900000Y-66722995D01*
X111326994Y-66149989D02*
X110699988Y-66149988D01*
X111900000Y-66722995D02*
X111326994Y-66149989D01*
X110699988Y-66149988D02*
X110025011Y-65475011D01*
X110025011Y-65475011D02*
X110025011Y-60374989D01*
X110025011Y-60374989D02*
X110400000Y-60000000D01*
X110400000Y-60000000D02*
X111000000Y-60000000D01*
X115850000Y-71500000D02*
X117200000Y-71500000D01*
X117200000Y-71500000D02*
X117600000Y-71100000D01*
X115050000Y-67500000D02*
X115050000Y-60300000D01*
X115050000Y-60300000D02*
X115350000Y-60000000D01*
X115350000Y-60000000D02*
X116000000Y-60000000D01*
X110400000Y-67500000D02*
X110100000Y-67200000D01*
X110100000Y-67200000D02*
X110100000Y-66900000D01*
X110100000Y-66900000D02*
X109000000Y-65800000D01*
X109000000Y-65800000D02*
X109000000Y-63100000D01*
X109000000Y-63100000D02*
X108674999Y-62774999D01*
X108674999Y-62774999D02*
X108674999Y-62175001D01*
X108674999Y-62175001D02*
X109350000Y-61500000D01*
X109350000Y-61500000D02*
X109350000Y-59952096D01*
X109350000Y-59952096D02*
X108899905Y-59502001D01*
X108899905Y-59502001D02*
X108899905Y-58997999D01*
X108899905Y-58997999D02*
X110550000Y-57347904D01*
X110550000Y-57347904D02*
X110550000Y-57000000D01*
D28*
X103750000Y-57950000D02*
X102300000Y-59400000D01*
X105200000Y-57250000D02*
X104450000Y-57250000D01*
X104450000Y-57250000D02*
X103750000Y-57950000D01*
D27*
X115650000Y-57000000D02*
X115650000Y-56250000D01*
X114900000Y-57000000D02*
X114900000Y-56250000D01*
X110550000Y-57000000D02*
X110550000Y-56250000D01*
X111300000Y-57000000D02*
X111300000Y-56250000D01*
X106200000Y-57000000D02*
X106200000Y-56250000D01*
X106950000Y-57000000D02*
X106950000Y-56250000D01*
D28*
X118250000Y-59500000D02*
X118250000Y-57950000D01*
X118250000Y-57950000D02*
X117550000Y-57250000D01*
X117550000Y-57250000D02*
X116800000Y-57250000D01*
D27*
X141874279Y-66600001D02*
X142274958Y-66600001D01*
X142274958Y-66600001D02*
X142574957Y-66900000D01*
X130050000Y-63000020D02*
X138274299Y-63000021D01*
X138274299Y-63000021D02*
X141874279Y-66600001D01*
X130050000Y-63000020D02*
X130199980Y-63000020D01*
X128999980Y-63000020D02*
X130050000Y-63000020D01*
X128100000Y-63900000D02*
X128999980Y-63000020D01*
X142150693Y-65400000D02*
X142574957Y-65400000D01*
X141141608Y-65400000D02*
X142150693Y-65400000D01*
X138441618Y-62700010D02*
X141141608Y-65400000D01*
X128100000Y-63150000D02*
X128549990Y-62700010D01*
X128549990Y-62700010D02*
X138441618Y-62700010D01*
X140897616Y-64731730D02*
X141893227Y-64731730D01*
X128100000Y-62400000D02*
X138565886Y-62400000D01*
X141893227Y-64731730D02*
X142274958Y-64349999D01*
X142274958Y-64349999D02*
X142574957Y-64050000D01*
X138565886Y-62400000D02*
X140897616Y-64731730D01*
X144000000Y-67209972D02*
X144000000Y-57750000D01*
X144000000Y-57750000D02*
X144300000Y-57450000D01*
X144524999Y-69224999D02*
X144524999Y-67734971D01*
X145050000Y-69750000D02*
X144524999Y-69224999D01*
X144524999Y-67734971D02*
X144000000Y-67209972D01*
X138750000Y-78150000D02*
X138750000Y-81600004D01*
X139800000Y-59550000D02*
X141600000Y-57750000D01*
X138300000Y-59550000D02*
X139800000Y-59550000D01*
X141750000Y-71700000D02*
X140850000Y-70800000D01*
X140850000Y-70800000D02*
X139950000Y-70800000D01*
X139950000Y-70800000D02*
X137850000Y-68700000D01*
X133349999Y-59999999D02*
X133050000Y-59700000D01*
X134400011Y-61050011D02*
X133349999Y-59999999D01*
X140674987Y-61050011D02*
X134400011Y-61050011D01*
X142050000Y-59674998D02*
X140674987Y-61050011D01*
X147000000Y-64420000D02*
X146847600Y-64420000D01*
X135150000Y-59700000D02*
X136200000Y-60750000D01*
X136200000Y-60750000D02*
X140226987Y-60750000D01*
X140226987Y-60750000D02*
X141751999Y-59224988D01*
X141751999Y-59224988D02*
X142051998Y-58924989D01*
X140471239Y-67878762D02*
X141892477Y-69300000D01*
X141892477Y-69300000D02*
X142377002Y-69300000D01*
X142377002Y-69300000D02*
X143174995Y-68502007D01*
X143174995Y-68502007D02*
X143174995Y-67657803D01*
X143099967Y-56849967D02*
X137400000Y-51150000D01*
X143174995Y-67657803D02*
X143099967Y-67582775D01*
X143099967Y-67582775D02*
X143099967Y-56849967D01*
X137400000Y-51150000D02*
X125250000Y-51150000D01*
X125250000Y-51150000D02*
X124960000Y-51440000D01*
X124960000Y-51440000D02*
X124960000Y-53000000D01*
X143475006Y-68944460D02*
X143207906Y-69211560D01*
X143475006Y-67533535D02*
X143475006Y-68944460D01*
X124570011Y-50849989D02*
X137524268Y-50849989D01*
X143399978Y-56725699D02*
X143399978Y-67458507D01*
X143207906Y-69211560D02*
X142907907Y-69511559D01*
X137524268Y-50849989D02*
X143399978Y-56725699D01*
X143399978Y-67458507D02*
X143475006Y-67533535D01*
X122420000Y-53000000D02*
X124570011Y-50849989D01*
X132891014Y-64263279D02*
X129150000Y-68004293D01*
X129150000Y-68004293D02*
X129150000Y-73050000D01*
X127200000Y-77974264D02*
X127200000Y-77550000D01*
X127200000Y-81180000D02*
X127200000Y-77974264D01*
X121380000Y-87000000D02*
X127200000Y-81180000D01*
X142681226Y-71873704D02*
X142681226Y-72150996D01*
X133050011Y-66750011D02*
X137557533Y-66750011D01*
X132750000Y-66450000D02*
X133050011Y-66750011D01*
X137557533Y-66750011D02*
X142681226Y-71873704D01*
X132749992Y-65313290D02*
X133886702Y-66450000D01*
X133886702Y-66450000D02*
X137700000Y-66450000D01*
X137700000Y-66450000D02*
X142950000Y-71700000D01*
X142950000Y-71700000D02*
X143850000Y-71700000D01*
X107850000Y-67500000D02*
X104400000Y-64050000D01*
X104400000Y-64050000D02*
X104400000Y-62550000D01*
X104400000Y-62550000D02*
X104250000Y-62400000D01*
X104400000Y-59250000D02*
X104775001Y-59625001D01*
X104775001Y-59625001D02*
X104775001Y-64000723D01*
X107224279Y-66450001D02*
X107550001Y-66450001D01*
X104775001Y-64000723D02*
X107224279Y-66450001D01*
X107550001Y-66450001D02*
X107850000Y-66750000D01*
X111150000Y-67575023D02*
X111150000Y-67472998D01*
X111150000Y-67472998D02*
X109350000Y-65672998D01*
X109350000Y-65672998D02*
X109350000Y-62550000D01*
X109350000Y-62550000D02*
X109200000Y-62400000D01*
X109424906Y-59250000D02*
X109725001Y-59550095D01*
X110605135Y-66479411D02*
X110898890Y-66479411D01*
X110898890Y-66479411D02*
X111198889Y-66779410D01*
X109725001Y-65599277D02*
X110605135Y-66479411D01*
X109725001Y-59550095D02*
X109725001Y-65599277D01*
X114300000Y-67500000D02*
X113774999Y-66974999D01*
X113774999Y-66974999D02*
X113774999Y-66497996D01*
X113774999Y-66497996D02*
X114424961Y-65848034D01*
X114424961Y-65848034D02*
X114424961Y-62674961D01*
X114424961Y-62674961D02*
X114150000Y-62400000D01*
X114724971Y-59549999D02*
X114424972Y-59250000D01*
X114300000Y-66749997D02*
X114724971Y-66325026D01*
X114724971Y-66325026D02*
X114724971Y-59549999D01*
X144300011Y-58499989D02*
X144300011Y-67050007D01*
X144900000Y-56250000D02*
X144900000Y-57900000D01*
X143100000Y-54450000D02*
X144900000Y-56250000D01*
X144300011Y-67050007D02*
X145050004Y-67800000D01*
X144900000Y-57900000D02*
X144300011Y-58499989D01*
X118950000Y-50550000D02*
X118200000Y-51300000D01*
X119400000Y-50550000D02*
X118950000Y-50550000D01*
X118350000Y-64500000D02*
X118350000Y-62400000D01*
X130199997Y-68850000D02*
X130500000Y-69150003D01*
X130500000Y-69150003D02*
X130500000Y-70075722D01*
X130500000Y-70075722D02*
X130225722Y-70350000D01*
X130225722Y-70350000D02*
X129900000Y-70350000D01*
X117600166Y-74699846D02*
X120900012Y-71400000D01*
X109950000Y-78450000D02*
X113700154Y-74699846D01*
X107700000Y-78450000D02*
X109950000Y-78450000D01*
X113700154Y-74699846D02*
X117600166Y-74699846D01*
X106350000Y-79800000D02*
X107700000Y-78450000D01*
X129900000Y-71100000D02*
X130950000Y-70050000D01*
X130950000Y-70050000D02*
X130950000Y-68850000D01*
X120374999Y-72675001D02*
X120900000Y-72150000D01*
X118050143Y-74999857D02*
X120374999Y-72675001D01*
X110074268Y-78750011D02*
X113824422Y-74999857D01*
X108299989Y-78750011D02*
X110074268Y-78750011D01*
X107250000Y-79800000D02*
X108299989Y-78750011D01*
X113824422Y-74999857D02*
X118050143Y-74999857D01*
X143850000Y-67484250D02*
X143850000Y-69025736D01*
X143699989Y-67334239D02*
X143850000Y-67484250D01*
X137598558Y-50500000D02*
X143699989Y-56601431D01*
X120567752Y-50500000D02*
X137598558Y-50500000D01*
X143700000Y-69175736D02*
X143700000Y-69600000D01*
X118564491Y-52503261D02*
X120567752Y-50500000D01*
X119000000Y-55000000D02*
X118564491Y-54564491D01*
X143699989Y-56601431D02*
X143699989Y-67334239D01*
X118564491Y-54564491D02*
X118564491Y-52503261D01*
X143850000Y-69025736D02*
X143700000Y-69175736D01*
X129900000Y-71850000D02*
X131400000Y-70350000D01*
X131400000Y-70350000D02*
X131400000Y-69749994D01*
X131400000Y-69749994D02*
X131700000Y-69449994D01*
X108150000Y-79800000D02*
X108899978Y-79050022D01*
X118500132Y-75299868D02*
X120900000Y-72900000D01*
X108899978Y-79050022D02*
X110198536Y-79050022D01*
X113948690Y-75299868D02*
X118500132Y-75299868D01*
X110198536Y-79050022D02*
X113948690Y-75299868D01*
X126600121Y-63190751D02*
X126600121Y-72766948D01*
X126600121Y-72766948D02*
X120467069Y-78900000D01*
X120467069Y-78900000D02*
X117750000Y-78900000D01*
X127504071Y-62286801D02*
X126600121Y-63190751D01*
X127824882Y-61800000D02*
X127504071Y-62120811D01*
X127504071Y-62120811D02*
X127504071Y-62286801D01*
X128550000Y-61800000D02*
X127824882Y-61800000D01*
X138890000Y-62090000D02*
X128840000Y-62090000D01*
X141006729Y-64206729D02*
X138890000Y-62090000D01*
X141149617Y-64206729D02*
X141006729Y-64206729D01*
X128840000Y-62090000D02*
X128550000Y-61800000D01*
X117750000Y-78900000D02*
X117150000Y-79500000D01*
X119969997Y-77699956D02*
X125400077Y-72269876D01*
X125400077Y-72269876D02*
X125400077Y-62340956D01*
X125400077Y-62340956D02*
X126079037Y-61661996D01*
X115050000Y-79800000D02*
X115050000Y-79350000D01*
X115050000Y-79350000D02*
X116700044Y-77699956D01*
X116700044Y-77699956D02*
X119969997Y-77699956D01*
X128989989Y-61789989D02*
X128400000Y-61200000D01*
X139039989Y-61789989D02*
X128989989Y-61789989D01*
X141192304Y-63457940D02*
X140707940Y-63457940D01*
X140707940Y-63457940D02*
X139039989Y-61789989D01*
X138793022Y-56849964D02*
X139415132Y-57472074D01*
X116250066Y-77099934D02*
X119721461Y-77099934D01*
X129724314Y-56849964D02*
X138793022Y-56849964D01*
X124800055Y-72021340D02*
X124800055Y-62085803D01*
X119721461Y-77099934D02*
X124800055Y-72021340D01*
X125251420Y-61634438D02*
X125251420Y-61322858D01*
X125251420Y-61322858D02*
X129724314Y-56849964D01*
X124800055Y-62085803D02*
X125251420Y-61634438D01*
X113550000Y-79800000D02*
X116250066Y-77099934D01*
X129848581Y-57149975D02*
X138151557Y-57149975D01*
X125100066Y-72145608D02*
X125100066Y-62210071D01*
X114300000Y-79800000D02*
X114300000Y-79650000D01*
X138151557Y-57149975D02*
X138700131Y-57698549D01*
X119845729Y-77399945D02*
X125100066Y-72145608D01*
X116550055Y-77399945D02*
X119845729Y-77399945D01*
X114300000Y-79650000D02*
X116550055Y-77399945D01*
X125100066Y-62210071D02*
X125551431Y-61758706D01*
X125551431Y-61447125D02*
X129848581Y-57149975D01*
X125551431Y-61758706D02*
X125551431Y-61447125D01*
X113400000Y-81300000D02*
X115350000Y-81300000D01*
X115759989Y-79115732D02*
X116875754Y-77999967D01*
X120094265Y-77999967D02*
X125700088Y-72394144D01*
X112800000Y-82800000D02*
X112800000Y-81900000D01*
X112800000Y-81900000D02*
X113400000Y-81300000D01*
X125700088Y-62801960D02*
X126604038Y-61898010D01*
X115350000Y-81300000D02*
X115759989Y-80890011D01*
X115759989Y-80890011D02*
X115759989Y-79115732D01*
X126604038Y-60818795D02*
X129972848Y-57449986D01*
X129972848Y-57449986D02*
X137709090Y-57449986D01*
X126604038Y-61898010D02*
X126604038Y-60818795D01*
X116875754Y-77999967D02*
X120094265Y-77999967D01*
X138619554Y-58360450D02*
X138619554Y-58491894D01*
X137709090Y-57449986D02*
X138619554Y-58360450D01*
X125700088Y-72394144D02*
X125700088Y-62801960D01*
X126000099Y-62942215D02*
X126904049Y-62038265D01*
X126904049Y-60943063D02*
X130097112Y-57750000D01*
X130097112Y-57750000D02*
X137238696Y-57750000D01*
X126904049Y-62038265D02*
X126904049Y-60943063D01*
X116060000Y-79240000D02*
X117000022Y-78299978D01*
X126000099Y-72518412D02*
X126000099Y-62942215D01*
X116060000Y-81014279D02*
X116060000Y-79240000D01*
X117000022Y-78299978D02*
X120218533Y-78299978D01*
X115020000Y-81630000D02*
X115444278Y-81630000D01*
X113850000Y-82800000D02*
X115020000Y-81630000D01*
X120218533Y-78299978D02*
X126000099Y-72518412D01*
X137238696Y-57750000D02*
X137876764Y-58388068D01*
X115444278Y-81630000D02*
X116060000Y-81014279D01*
X117150011Y-78599989D02*
X120342801Y-78599989D01*
X126300110Y-63066483D02*
X127204060Y-62162533D01*
X130305519Y-58060000D02*
X136394022Y-58060000D01*
X114900000Y-82800000D02*
X116400020Y-81299980D01*
X136394022Y-58060000D02*
X137120131Y-58786109D01*
X127204060Y-62162533D02*
X127204060Y-61161459D01*
X116400020Y-81299980D02*
X116400020Y-79349980D01*
X126300110Y-72642680D02*
X126300110Y-63066483D01*
X116400020Y-79349980D02*
X117150011Y-78599989D01*
X127204060Y-61161459D02*
X130305519Y-58060000D01*
X120342801Y-78599989D02*
X126300110Y-72642680D01*
X109650000Y-79650000D02*
X110100000Y-79650000D01*
X123300000Y-60449999D02*
X124799999Y-58950000D01*
X110100000Y-79650000D02*
X114150121Y-75599879D01*
X124799999Y-58950000D02*
X124950000Y-58950000D01*
X114150121Y-75599879D02*
X119100121Y-75599879D01*
X119100121Y-75599879D02*
X123300000Y-71400000D01*
X123300000Y-71400000D02*
X123300000Y-60449999D01*
X123900022Y-71648536D02*
X123900022Y-61016734D01*
X110050000Y-82480000D02*
X110050000Y-81375721D01*
X110050000Y-81375721D02*
X115225820Y-76199901D01*
X119348657Y-76199901D02*
X123900022Y-71648536D01*
X115225820Y-76199901D02*
X119348657Y-76199901D01*
X123900022Y-61016734D02*
X124408383Y-60508373D01*
X124200033Y-61484544D02*
X124426408Y-61258169D01*
X124200033Y-71772804D02*
X124200033Y-61484544D01*
X119472925Y-76499912D02*
X124200033Y-71772804D01*
X110805001Y-82822001D02*
X110805001Y-81044999D01*
X110805001Y-81044999D02*
X115350088Y-76499912D01*
X109405001Y-83155001D02*
X110472001Y-83155001D01*
X109050000Y-82800000D02*
X109405001Y-83155001D01*
X115350088Y-76499912D02*
X119472925Y-76499912D01*
X110472001Y-83155001D02*
X110805001Y-82822001D01*
X141163421Y-62686579D02*
X141150000Y-62700000D01*
X141150000Y-62700000D02*
X140550000Y-62700000D01*
X140550000Y-62700000D02*
X139330000Y-61480000D01*
X139330000Y-61480000D02*
X132130000Y-61480000D01*
X132130000Y-61480000D02*
X132000000Y-61350000D01*
X132000000Y-61350000D02*
X131850000Y-61200000D01*
X125624999Y-59475001D02*
X126150000Y-58950000D01*
X124699277Y-59475001D02*
X125624999Y-59475001D01*
X123600011Y-60574267D02*
X124699277Y-59475001D01*
X119224389Y-75899890D02*
X123600011Y-71524268D01*
X110700000Y-79800000D02*
X114600110Y-75899890D01*
X114600110Y-75899890D02*
X119224389Y-75899890D01*
X123600011Y-71524268D02*
X123600011Y-60574267D01*
X140091303Y-57391695D02*
X140091303Y-57796589D01*
X119597193Y-76799923D02*
X124500044Y-71897072D01*
X124951409Y-61510170D02*
X124951409Y-61198591D01*
X124500044Y-61961535D02*
X124951409Y-61510170D01*
X112800000Y-79800000D02*
X115800077Y-76799923D01*
X129600047Y-56549953D02*
X139249561Y-56549953D01*
X124951409Y-61198591D02*
X129600047Y-56549953D01*
X124500044Y-71897072D02*
X124500044Y-61961535D01*
X115800077Y-76799923D02*
X119597193Y-76799923D01*
X139249561Y-56549953D02*
X140091303Y-57391695D01*
X128100000Y-64650003D02*
X129449973Y-63300030D01*
X129449973Y-63300030D02*
X138150030Y-63300030D01*
X138150030Y-63300030D02*
X142349988Y-67499988D01*
X142349988Y-67950001D02*
X142649987Y-68250000D01*
X142349988Y-67499988D02*
X142349988Y-67950001D01*
G36*
X149425000Y-74282457D02*
X149397777Y-74255186D01*
X149204887Y-74175092D01*
X148996029Y-74174909D01*
X148803000Y-74254667D01*
X148657413Y-74400000D01*
X148131817Y-74400000D01*
X148446469Y-74189756D01*
X148682448Y-73836589D01*
X148765313Y-73420000D01*
X148682448Y-73003411D01*
X148446469Y-72650244D01*
X148093302Y-72414265D01*
X147676713Y-72331400D01*
X147323287Y-72331400D01*
X146906698Y-72414265D01*
X146553531Y-72650244D01*
X146317552Y-73003411D01*
X146234687Y-73420000D01*
X146317552Y-73836589D01*
X146553531Y-74189756D01*
X146868183Y-74400000D01*
X145131817Y-74400000D01*
X145446469Y-74189756D01*
X145682448Y-73836589D01*
X145765313Y-73420000D01*
X145682448Y-73003411D01*
X145446469Y-72650244D01*
X145093302Y-72414265D01*
X144676713Y-72331400D01*
X144323287Y-72331400D01*
X143906698Y-72414265D01*
X143553531Y-72650244D01*
X143317552Y-73003411D01*
X143234687Y-73420000D01*
X143317552Y-73836589D01*
X143553531Y-74189756D01*
X143868183Y-74400000D01*
X142792338Y-74400000D01*
X142647777Y-74255186D01*
X142454887Y-74175092D01*
X142246029Y-74174909D01*
X142053000Y-74254667D01*
X141905186Y-74402223D01*
X141825092Y-74595113D01*
X141824909Y-74803971D01*
X141904667Y-74997000D01*
X142052223Y-75144814D01*
X142245113Y-75224908D01*
X142453971Y-75225091D01*
X142647000Y-75145333D01*
X142792587Y-75000000D01*
X143838251Y-75000000D01*
X143553531Y-75190244D01*
X143317552Y-75543411D01*
X143234687Y-75960000D01*
X143317552Y-76376589D01*
X143553531Y-76729756D01*
X143906698Y-76965735D01*
X144323287Y-77048600D01*
X144676713Y-77048600D01*
X145093302Y-76965735D01*
X145446469Y-76729756D01*
X145682448Y-76376589D01*
X145765313Y-75960000D01*
X145682448Y-75543411D01*
X145446469Y-75190244D01*
X145161749Y-75000000D01*
X146838251Y-75000000D01*
X146553531Y-75190244D01*
X146317552Y-75543411D01*
X146234687Y-75960000D01*
X146317552Y-76376589D01*
X146553531Y-76729756D01*
X146906698Y-76965735D01*
X147323287Y-77048600D01*
X147676713Y-77048600D01*
X148093302Y-76965735D01*
X148446469Y-76729756D01*
X148682448Y-76376589D01*
X148765313Y-75960000D01*
X148682448Y-75543411D01*
X148446469Y-75190244D01*
X148161749Y-75000000D01*
X148657662Y-75000000D01*
X148802223Y-75144814D01*
X148995113Y-75224908D01*
X149203971Y-75225091D01*
X149397000Y-75145333D01*
X149425000Y-75117382D01*
X149425000Y-89425000D01*
X125430668Y-89425000D01*
X125444491Y-89355509D01*
X125444491Y-87677759D01*
X125570166Y-87865845D01*
X125967419Y-88131281D01*
X126436011Y-88224490D01*
X126483989Y-88224490D01*
X126952581Y-88131281D01*
X127349834Y-87865845D01*
X127615270Y-87468592D01*
X127708479Y-87000000D01*
X127615270Y-86531408D01*
X127349834Y-86134155D01*
X127125112Y-85984000D01*
X133906992Y-85984000D01*
X133906992Y-88016000D01*
X133922681Y-88099380D01*
X133971959Y-88175960D01*
X134047147Y-88227334D01*
X134136400Y-88245408D01*
X135863600Y-88245408D01*
X135946980Y-88229719D01*
X136023560Y-88180441D01*
X136074934Y-88105253D01*
X136093008Y-88016000D01*
X136093008Y-86823287D01*
X136451400Y-86823287D01*
X136451400Y-87176713D01*
X136534265Y-87593302D01*
X136770244Y-87946469D01*
X137123411Y-88182448D01*
X137540000Y-88265313D01*
X137956589Y-88182448D01*
X138309756Y-87946469D01*
X138545735Y-87593302D01*
X138628600Y-87176713D01*
X138628600Y-87025000D01*
X138941400Y-87025000D01*
X138941400Y-87177400D01*
X139037638Y-87611220D01*
X139292566Y-87975189D01*
X139667374Y-88213896D01*
X139877234Y-88272800D01*
X140055000Y-88221958D01*
X140055000Y-87025000D01*
X140105000Y-87025000D01*
X140105000Y-88221958D01*
X140282766Y-88272800D01*
X140492626Y-88213896D01*
X140867434Y-87975189D01*
X141122362Y-87611220D01*
X141158797Y-87446975D01*
X144742609Y-87446975D01*
X145085493Y-88276817D01*
X145719843Y-88912276D01*
X146549085Y-89256607D01*
X147446975Y-89257391D01*
X148276817Y-88914507D01*
X148912276Y-88280157D01*
X149256607Y-87450915D01*
X149257391Y-86553025D01*
X148914507Y-85723183D01*
X148280157Y-85087724D01*
X147450915Y-84743393D01*
X146553025Y-84742609D01*
X145723183Y-85085493D01*
X145087724Y-85719843D01*
X144743393Y-86549085D01*
X144742609Y-87446975D01*
X141158797Y-87446975D01*
X141218600Y-87177400D01*
X141218600Y-87025000D01*
X140105000Y-87025000D01*
X140055000Y-87025000D01*
X138941400Y-87025000D01*
X138628600Y-87025000D01*
X138628600Y-86823287D01*
X138628464Y-86822600D01*
X138941400Y-86822600D01*
X138941400Y-86975000D01*
X140055000Y-86975000D01*
X140055000Y-85778042D01*
X140105000Y-85778042D01*
X140105000Y-86975000D01*
X141218600Y-86975000D01*
X141218600Y-86822600D01*
X141122362Y-86388780D01*
X140867434Y-86024811D01*
X140492626Y-85786104D01*
X140282766Y-85727200D01*
X140105000Y-85778042D01*
X140055000Y-85778042D01*
X139877234Y-85727200D01*
X139667374Y-85786104D01*
X139292566Y-86024811D01*
X139037638Y-86388780D01*
X138941400Y-86822600D01*
X138628464Y-86822600D01*
X138545735Y-86406698D01*
X138309756Y-86053531D01*
X137956589Y-85817552D01*
X137540000Y-85734687D01*
X137123411Y-85817552D01*
X136770244Y-86053531D01*
X136534265Y-86406698D01*
X136451400Y-86823287D01*
X136093008Y-86823287D01*
X136093008Y-85984000D01*
X136077319Y-85900620D01*
X136028041Y-85824040D01*
X135952853Y-85772666D01*
X135863600Y-85754592D01*
X134136400Y-85754592D01*
X134053020Y-85770281D01*
X133976440Y-85819559D01*
X133925066Y-85894747D01*
X133906992Y-85984000D01*
X127125112Y-85984000D01*
X126952581Y-85868719D01*
X126483989Y-85775510D01*
X126436011Y-85775510D01*
X125967419Y-85868719D01*
X125570166Y-86134155D01*
X125444491Y-86322241D01*
X125444491Y-85579773D01*
X128149352Y-82874912D01*
X128353971Y-82875091D01*
X128547000Y-82795333D01*
X128694814Y-82647777D01*
X128774908Y-82454887D01*
X128775091Y-82246029D01*
X128695333Y-82053000D01*
X128547777Y-81905186D01*
X128354887Y-81825092D01*
X128146029Y-81824909D01*
X127953000Y-81904667D01*
X127805186Y-82052223D01*
X127725092Y-82245113D01*
X127724912Y-82450824D01*
X124932359Y-85243377D01*
X124867327Y-85340704D01*
X124844491Y-85455509D01*
X124844491Y-86186023D01*
X124809834Y-86134155D01*
X124412581Y-85868719D01*
X123943989Y-85775510D01*
X123896011Y-85775510D01*
X123427419Y-85868719D01*
X123030166Y-86134155D01*
X122764730Y-86531408D01*
X122671521Y-87000000D01*
X122764730Y-87468592D01*
X123030166Y-87865845D01*
X123427419Y-88131281D01*
X123896011Y-88224490D01*
X123943989Y-88224490D01*
X124412581Y-88131281D01*
X124809834Y-87865845D01*
X124844491Y-87813977D01*
X124844491Y-89200000D01*
X103585872Y-89200000D01*
X104276817Y-88914507D01*
X104912276Y-88280157D01*
X105256607Y-87450915D01*
X105257000Y-87000000D01*
X120131521Y-87000000D01*
X120224730Y-87468592D01*
X120490166Y-87865845D01*
X120887419Y-88131281D01*
X121356011Y-88224490D01*
X121403989Y-88224490D01*
X121872581Y-88131281D01*
X122269834Y-87865845D01*
X122535270Y-87468592D01*
X122628479Y-87000000D01*
X122535270Y-86531408D01*
X122430162Y-86374102D01*
X127412132Y-81392132D01*
X127477164Y-81294805D01*
X127500000Y-81180000D01*
X127500000Y-78253971D01*
X138224909Y-78253971D01*
X138304667Y-78447000D01*
X138450000Y-78592587D01*
X138450000Y-81157666D01*
X138305186Y-81302227D01*
X138225092Y-81495117D01*
X138224909Y-81703975D01*
X138304667Y-81897004D01*
X138452223Y-82044818D01*
X138645113Y-82124912D01*
X138853971Y-82125095D01*
X139047000Y-82045337D01*
X139194814Y-81897781D01*
X139274908Y-81704891D01*
X139275091Y-81496033D01*
X139195333Y-81303004D01*
X139050000Y-81157417D01*
X139050000Y-78593750D01*
X143209000Y-78593750D01*
X143209000Y-79418301D01*
X143250866Y-79519375D01*
X143328225Y-79596734D01*
X143429299Y-79638600D01*
X144406250Y-79638600D01*
X144475000Y-79569850D01*
X144475000Y-78525000D01*
X144525000Y-78525000D01*
X144525000Y-79569850D01*
X144593750Y-79638600D01*
X145570701Y-79638600D01*
X145671775Y-79596734D01*
X145749134Y-79519375D01*
X145791000Y-79418301D01*
X145791000Y-78593750D01*
X146209000Y-78593750D01*
X146209000Y-79418301D01*
X146250866Y-79519375D01*
X146328225Y-79596734D01*
X146429299Y-79638600D01*
X147406250Y-79638600D01*
X147475000Y-79569850D01*
X147475000Y-78525000D01*
X147525000Y-78525000D01*
X147525000Y-79569850D01*
X147593750Y-79638600D01*
X148570701Y-79638600D01*
X148671775Y-79596734D01*
X148749134Y-79519375D01*
X148791000Y-79418301D01*
X148791000Y-78593750D01*
X148722250Y-78525000D01*
X147525000Y-78525000D01*
X147475000Y-78525000D01*
X146277750Y-78525000D01*
X146209000Y-78593750D01*
X145791000Y-78593750D01*
X145722250Y-78525000D01*
X144525000Y-78525000D01*
X144475000Y-78525000D01*
X143277750Y-78525000D01*
X143209000Y-78593750D01*
X139050000Y-78593750D01*
X139050000Y-78592338D01*
X139194814Y-78447777D01*
X139274908Y-78254887D01*
X139275091Y-78046029D01*
X139195333Y-77853000D01*
X139047777Y-77705186D01*
X138854887Y-77625092D01*
X138646029Y-77624909D01*
X138453000Y-77704667D01*
X138305186Y-77852223D01*
X138225092Y-78045113D01*
X138224909Y-78253971D01*
X127500000Y-78253971D01*
X127500000Y-77992338D01*
X127644814Y-77847777D01*
X127724908Y-77654887D01*
X127724972Y-77581699D01*
X143209000Y-77581699D01*
X143209000Y-78406250D01*
X143277750Y-78475000D01*
X144475000Y-78475000D01*
X144475000Y-77430150D01*
X144525000Y-77430150D01*
X144525000Y-78475000D01*
X145722250Y-78475000D01*
X145791000Y-78406250D01*
X145791000Y-77581699D01*
X146209000Y-77581699D01*
X146209000Y-78406250D01*
X146277750Y-78475000D01*
X147475000Y-78475000D01*
X147475000Y-77430150D01*
X147525000Y-77430150D01*
X147525000Y-78475000D01*
X148722250Y-78475000D01*
X148791000Y-78406250D01*
X148791000Y-77581699D01*
X148749134Y-77480625D01*
X148671775Y-77403266D01*
X148570701Y-77361400D01*
X147593750Y-77361400D01*
X147525000Y-77430150D01*
X147475000Y-77430150D01*
X147406250Y-77361400D01*
X146429299Y-77361400D01*
X146328225Y-77403266D01*
X146250866Y-77480625D01*
X146209000Y-77581699D01*
X145791000Y-77581699D01*
X145749134Y-77480625D01*
X145671775Y-77403266D01*
X145570701Y-77361400D01*
X144593750Y-77361400D01*
X144525000Y-77430150D01*
X144475000Y-77430150D01*
X144406250Y-77361400D01*
X143429299Y-77361400D01*
X143328225Y-77403266D01*
X143250866Y-77480625D01*
X143209000Y-77581699D01*
X127724972Y-77581699D01*
X127725091Y-77446029D01*
X127645333Y-77253000D01*
X127497777Y-77105186D01*
X127304887Y-77025092D01*
X127096029Y-77024909D01*
X126903000Y-77104667D01*
X126755186Y-77252223D01*
X126675092Y-77445113D01*
X126674909Y-77653971D01*
X126754667Y-77847000D01*
X126900000Y-77992587D01*
X126900000Y-81055736D01*
X122001126Y-85954610D01*
X121872581Y-85868719D01*
X121403989Y-85775510D01*
X121356011Y-85775510D01*
X120887419Y-85868719D01*
X120490166Y-86134155D01*
X120224730Y-86531408D01*
X120131521Y-87000000D01*
X105257000Y-87000000D01*
X105257391Y-86553025D01*
X104914507Y-85723183D01*
X104280157Y-85087724D01*
X103450915Y-84743393D01*
X102553025Y-84742609D01*
X101723183Y-85085493D01*
X101087724Y-85719843D01*
X100800000Y-86412760D01*
X100800000Y-71603971D01*
X108824909Y-71603971D01*
X108904667Y-71797000D01*
X109052223Y-71944814D01*
X109245113Y-72024908D01*
X109453971Y-72025091D01*
X109647000Y-71945333D01*
X109792587Y-71800000D01*
X109900000Y-71800000D01*
X110014805Y-71777164D01*
X110112132Y-71712132D01*
X111774263Y-70050001D01*
X117157412Y-70050001D01*
X117155186Y-70052223D01*
X117093831Y-70199983D01*
X113600017Y-70199983D01*
X113485212Y-70222819D01*
X113387885Y-70287851D01*
X112700648Y-70975088D01*
X112496029Y-70974909D01*
X112303000Y-71054667D01*
X112155186Y-71202223D01*
X112075092Y-71395113D01*
X112074909Y-71603971D01*
X112154667Y-71797000D01*
X112302223Y-71944814D01*
X112495113Y-72024908D01*
X112703971Y-72025091D01*
X112897000Y-71945333D01*
X113044814Y-71797777D01*
X113124908Y-71604887D01*
X113125088Y-71399176D01*
X113724281Y-70799983D01*
X117157430Y-70799983D01*
X117155186Y-70802223D01*
X117075092Y-70995113D01*
X117074912Y-71200000D01*
X116292338Y-71200000D01*
X116147777Y-71055186D01*
X115954887Y-70975092D01*
X115746029Y-70974909D01*
X115553000Y-71054667D01*
X115405186Y-71202223D01*
X115325092Y-71395113D01*
X115324909Y-71603971D01*
X115404667Y-71797000D01*
X115552223Y-71944814D01*
X115745113Y-72024908D01*
X115953971Y-72025091D01*
X116147000Y-71945333D01*
X116292587Y-71800000D01*
X117200000Y-71800000D01*
X117314805Y-71777164D01*
X117412132Y-71712132D01*
X117499352Y-71624912D01*
X117703971Y-71625091D01*
X117897000Y-71545333D01*
X118044814Y-71397777D01*
X118124908Y-71204887D01*
X118125091Y-70996029D01*
X118045333Y-70803000D01*
X117967463Y-70724993D01*
X118044814Y-70647777D01*
X118124908Y-70454887D01*
X118125091Y-70246029D01*
X118045333Y-70053000D01*
X117967460Y-69974990D01*
X118044814Y-69897771D01*
X118124908Y-69704881D01*
X118125091Y-69496023D01*
X118045333Y-69302994D01*
X117897777Y-69155180D01*
X117704887Y-69075086D01*
X117496029Y-69074903D01*
X117303000Y-69154661D01*
X117155186Y-69302217D01*
X117093821Y-69450001D01*
X111649999Y-69450001D01*
X111535194Y-69472837D01*
X111437867Y-69537869D01*
X109784044Y-71191692D01*
X109647777Y-71055186D01*
X109454887Y-70975092D01*
X109246029Y-70974909D01*
X109053000Y-71054667D01*
X108905186Y-71202223D01*
X108825092Y-71395113D01*
X108824909Y-71603971D01*
X100800000Y-71603971D01*
X100800000Y-70135700D01*
X101899656Y-70135700D01*
X101966066Y-70277429D01*
X102304219Y-70422578D01*
X102672178Y-70427273D01*
X103013923Y-70290799D01*
X103033934Y-70277429D01*
X103100344Y-70135700D01*
X102500000Y-69535355D01*
X101899656Y-70135700D01*
X100800000Y-70135700D01*
X100800000Y-69672178D01*
X101572727Y-69672178D01*
X101709201Y-70013923D01*
X101722571Y-70033934D01*
X101864300Y-70100344D01*
X102464645Y-69500000D01*
X102535355Y-69500000D01*
X103135700Y-70100344D01*
X103277429Y-70033934D01*
X103422578Y-69695781D01*
X103427273Y-69327822D01*
X103290799Y-68986077D01*
X103277429Y-68966066D01*
X103135700Y-68899656D01*
X102535355Y-69500000D01*
X102464645Y-69500000D01*
X101864300Y-68899656D01*
X101722571Y-68966066D01*
X101577422Y-69304219D01*
X101572727Y-69672178D01*
X100800000Y-69672178D01*
X100800000Y-68864300D01*
X101899656Y-68864300D01*
X102500000Y-69464645D01*
X103100344Y-68864300D01*
X103093644Y-68850000D01*
X103620592Y-68850000D01*
X103620592Y-70150000D01*
X103636281Y-70233380D01*
X103685559Y-70309960D01*
X103760747Y-70361334D01*
X103850000Y-70379408D01*
X105150000Y-70379408D01*
X105233380Y-70363719D01*
X105309960Y-70314441D01*
X105361334Y-70239253D01*
X105379408Y-70150000D01*
X105379408Y-68850000D01*
X105363719Y-68766620D01*
X105314441Y-68690040D01*
X105239253Y-68638666D01*
X105150000Y-68620592D01*
X103850000Y-68620592D01*
X103766620Y-68636281D01*
X103690040Y-68685559D01*
X103638666Y-68760747D01*
X103620592Y-68850000D01*
X103093644Y-68850000D01*
X103033934Y-68722571D01*
X102695781Y-68577422D01*
X102327822Y-68572727D01*
X101986077Y-68709201D01*
X101966066Y-68722571D01*
X101899656Y-68864300D01*
X100800000Y-68864300D01*
X100800000Y-60993750D01*
X101650000Y-60993750D01*
X101650000Y-61354701D01*
X101691866Y-61455775D01*
X101769225Y-61533134D01*
X101870299Y-61575000D01*
X102206250Y-61575000D01*
X102275000Y-61506250D01*
X102275000Y-60925000D01*
X102325000Y-60925000D01*
X102325000Y-61506250D01*
X102393750Y-61575000D01*
X102729701Y-61575000D01*
X102830775Y-61533134D01*
X102908134Y-61455775D01*
X102950000Y-61354701D01*
X102950000Y-60993750D01*
X102881250Y-60925000D01*
X102325000Y-60925000D01*
X102275000Y-60925000D01*
X101718750Y-60925000D01*
X101650000Y-60993750D01*
X100800000Y-60993750D01*
X100800000Y-60445299D01*
X101650000Y-60445299D01*
X101650000Y-60806250D01*
X101718750Y-60875000D01*
X102275000Y-60875000D01*
X102275000Y-60293750D01*
X102325000Y-60293750D01*
X102325000Y-60875000D01*
X102881250Y-60875000D01*
X102950000Y-60806250D01*
X102950000Y-60445299D01*
X102908134Y-60344225D01*
X102830775Y-60266866D01*
X102729701Y-60225000D01*
X102393750Y-60225000D01*
X102325000Y-60293750D01*
X102275000Y-60293750D01*
X102206250Y-60225000D01*
X101870299Y-60225000D01*
X101769225Y-60266866D01*
X101691866Y-60344225D01*
X101650000Y-60445299D01*
X100800000Y-60445299D01*
X100800000Y-53585872D01*
X101085493Y-54276817D01*
X101719843Y-54912276D01*
X102549085Y-55256607D01*
X103446975Y-55257391D01*
X104276817Y-54914507D01*
X104912276Y-54280157D01*
X105256607Y-53450915D01*
X105257000Y-53000000D01*
X107171521Y-53000000D01*
X107264730Y-53468592D01*
X107530166Y-53865845D01*
X107927419Y-54131281D01*
X108396011Y-54224490D01*
X108443989Y-54224490D01*
X108912581Y-54131281D01*
X109309834Y-53865845D01*
X109575270Y-53468592D01*
X109668479Y-53000000D01*
X109711521Y-53000000D01*
X109804730Y-53468592D01*
X110070166Y-53865845D01*
X110467419Y-54131281D01*
X110936011Y-54224490D01*
X110983989Y-54224490D01*
X111452581Y-54131281D01*
X111849834Y-53865845D01*
X112115270Y-53468592D01*
X112160243Y-53242498D01*
X112275298Y-53242498D01*
X112461323Y-53692712D01*
X112805477Y-54037467D01*
X113255365Y-54224277D01*
X113742498Y-54224702D01*
X114192712Y-54038677D01*
X114537467Y-53694523D01*
X114724277Y-53244635D01*
X114724702Y-52757502D01*
X114538677Y-52307288D01*
X114194523Y-51962533D01*
X113744635Y-51775723D01*
X113257502Y-51775298D01*
X112807288Y-51961323D01*
X112462533Y-52305477D01*
X112275723Y-52755365D01*
X112275298Y-53242498D01*
X112160243Y-53242498D01*
X112208479Y-53000000D01*
X112115270Y-52531408D01*
X111849834Y-52134155D01*
X111452581Y-51868719D01*
X110983989Y-51775510D01*
X110936011Y-51775510D01*
X110467419Y-51868719D01*
X110070166Y-52134155D01*
X109804730Y-52531408D01*
X109711521Y-53000000D01*
X109668479Y-53000000D01*
X109575270Y-52531408D01*
X109309834Y-52134155D01*
X108912581Y-51868719D01*
X108443989Y-51775510D01*
X108396011Y-51775510D01*
X107927419Y-51868719D01*
X107530166Y-52134155D01*
X107264730Y-52531408D01*
X107171521Y-53000000D01*
X105257000Y-53000000D01*
X105257391Y-52553025D01*
X104914507Y-51723183D01*
X104280157Y-51087724D01*
X103587240Y-50800000D01*
X114725736Y-50800000D01*
X114975088Y-51049352D01*
X114974909Y-51253971D01*
X115054667Y-51447000D01*
X115202223Y-51594814D01*
X115395113Y-51674908D01*
X115425000Y-51674934D01*
X115425000Y-55500000D01*
X115430063Y-55525000D01*
X104500000Y-55525000D01*
X104418222Y-55540388D01*
X104343114Y-55588718D01*
X104292727Y-55662462D01*
X104275000Y-55750000D01*
X104275000Y-56924589D01*
X104184835Y-56984835D01*
X102399078Y-58770592D01*
X101925000Y-58770592D01*
X101841620Y-58786281D01*
X101765040Y-58835559D01*
X101713666Y-58910747D01*
X101695592Y-59000000D01*
X101695592Y-59800000D01*
X101711281Y-59883380D01*
X101760559Y-59959960D01*
X101835747Y-60011334D01*
X101925000Y-60029408D01*
X102675000Y-60029408D01*
X102758380Y-60013719D01*
X102834960Y-59964441D01*
X102886334Y-59889253D01*
X102904408Y-59800000D01*
X102904408Y-59325922D01*
X104275000Y-57955330D01*
X104275000Y-58733598D01*
X104103000Y-58804667D01*
X103955186Y-58952223D01*
X103875092Y-59145113D01*
X103874909Y-59353971D01*
X103954667Y-59547000D01*
X104102223Y-59694814D01*
X104295113Y-59774908D01*
X104475001Y-59775066D01*
X104475001Y-61924967D01*
X104354887Y-61875092D01*
X104146029Y-61874909D01*
X103953000Y-61954667D01*
X103805186Y-62102223D01*
X103725092Y-62295113D01*
X103724909Y-62503971D01*
X103804667Y-62697000D01*
X103952223Y-62844814D01*
X104100000Y-62906176D01*
X104100000Y-64050000D01*
X104122836Y-64164805D01*
X104187868Y-64262132D01*
X107325088Y-67399352D01*
X107324909Y-67603971D01*
X107404667Y-67797000D01*
X107552223Y-67944814D01*
X107745113Y-68024908D01*
X107953971Y-68025091D01*
X108147000Y-67945333D01*
X108225007Y-67867463D01*
X108302223Y-67944814D01*
X108495113Y-68024908D01*
X108703971Y-68025091D01*
X108897000Y-67945333D01*
X109044814Y-67797777D01*
X109124908Y-67604887D01*
X109125091Y-67396029D01*
X109045333Y-67203000D01*
X108900000Y-67057413D01*
X108900000Y-66722998D01*
X108877164Y-66608193D01*
X108812132Y-66510866D01*
X108239134Y-65937868D01*
X108141807Y-65872836D01*
X108027002Y-65850000D01*
X107472820Y-65850000D01*
X105375011Y-63752191D01*
X105375011Y-60499253D01*
X105565956Y-60308308D01*
X105702223Y-60444814D01*
X105895113Y-60524908D01*
X106103971Y-60525091D01*
X106297000Y-60445333D01*
X106444814Y-60297777D01*
X106524908Y-60104887D01*
X106525091Y-59896029D01*
X106445333Y-59703000D01*
X106297777Y-59555186D01*
X106104887Y-59475092D01*
X105896029Y-59474909D01*
X105703000Y-59554667D01*
X105557413Y-59700000D01*
X105450000Y-59700000D01*
X105335195Y-59722836D01*
X105237868Y-59787868D01*
X105075001Y-59950735D01*
X105075001Y-59625001D01*
X105052165Y-59510196D01*
X104987133Y-59412869D01*
X104924912Y-59350648D01*
X104925023Y-59223360D01*
X108599905Y-59209172D01*
X108599905Y-59502001D01*
X108622741Y-59616806D01*
X108687773Y-59714133D01*
X109050000Y-60076360D01*
X109050000Y-61375736D01*
X108462867Y-61962869D01*
X108397835Y-62060196D01*
X108374999Y-62175001D01*
X108374999Y-62774999D01*
X108397835Y-62889804D01*
X108462867Y-62987131D01*
X108700000Y-63224264D01*
X108700000Y-65800000D01*
X108722836Y-65914805D01*
X108787868Y-66012132D01*
X109800000Y-67024264D01*
X109800000Y-67200000D01*
X109822836Y-67314805D01*
X109875630Y-67393817D01*
X109875092Y-67395113D01*
X109874909Y-67603971D01*
X109954667Y-67797000D01*
X110102223Y-67944814D01*
X110295113Y-68024908D01*
X110503971Y-68025091D01*
X110697000Y-67945333D01*
X110737495Y-67904909D01*
X110852223Y-68019837D01*
X111045113Y-68099931D01*
X111253971Y-68100114D01*
X111447000Y-68020356D01*
X111562518Y-67905040D01*
X111602223Y-67944814D01*
X111795113Y-68024908D01*
X112003971Y-68025091D01*
X112197000Y-67945333D01*
X112344814Y-67797777D01*
X112424908Y-67604887D01*
X112425091Y-67396029D01*
X112345333Y-67203000D01*
X112200000Y-67057413D01*
X112200000Y-66722995D01*
X112177164Y-66608190D01*
X112112132Y-66510863D01*
X111539126Y-65937857D01*
X111441799Y-65872825D01*
X111326994Y-65849989D01*
X110824252Y-65849988D01*
X110325011Y-65350747D01*
X110325011Y-60499253D01*
X110524264Y-60300000D01*
X110557662Y-60300000D01*
X110702223Y-60444814D01*
X110895113Y-60524908D01*
X111103971Y-60525091D01*
X111297000Y-60445333D01*
X111444814Y-60297777D01*
X111524908Y-60104887D01*
X111525091Y-59896029D01*
X111445333Y-59703000D01*
X111297777Y-59555186D01*
X111104887Y-59475092D01*
X110896029Y-59474909D01*
X110703000Y-59554667D01*
X110557413Y-59700000D01*
X110400000Y-59700000D01*
X110285195Y-59722836D01*
X110187868Y-59787868D01*
X110025001Y-59950735D01*
X110025001Y-59550095D01*
X110002165Y-59435290D01*
X109949288Y-59356154D01*
X109949814Y-59354887D01*
X109949946Y-59203959D01*
X113900026Y-59188708D01*
X113899881Y-59353971D01*
X113979639Y-59547000D01*
X114127195Y-59694814D01*
X114320085Y-59774908D01*
X114424971Y-59775000D01*
X114424971Y-61945716D01*
X114254887Y-61875092D01*
X114046029Y-61874909D01*
X113853000Y-61954667D01*
X113705186Y-62102223D01*
X113625092Y-62295113D01*
X113624909Y-62503971D01*
X113704667Y-62697000D01*
X113852223Y-62844814D01*
X114045113Y-62924908D01*
X114124961Y-62924978D01*
X114124961Y-65723770D01*
X113562867Y-66285864D01*
X113497835Y-66383191D01*
X113474999Y-66497996D01*
X113474999Y-66974999D01*
X113497835Y-67089804D01*
X113562867Y-67187131D01*
X113775088Y-67399352D01*
X113774909Y-67603971D01*
X113854667Y-67797000D01*
X114002223Y-67944814D01*
X114195113Y-68024908D01*
X114403971Y-68025091D01*
X114597000Y-67945333D01*
X114675007Y-67867463D01*
X114752223Y-67944814D01*
X114945113Y-68024908D01*
X115153971Y-68025091D01*
X115347000Y-67945333D01*
X115494814Y-67797777D01*
X115574908Y-67604887D01*
X115575091Y-67396029D01*
X115495333Y-67203000D01*
X115350000Y-67057413D01*
X115350000Y-64603971D01*
X115474909Y-64603971D01*
X115554667Y-64797000D01*
X115702223Y-64944814D01*
X115895113Y-65024908D01*
X116100824Y-65025088D01*
X118950000Y-67874264D01*
X118950000Y-70657662D01*
X118805186Y-70802223D01*
X118725092Y-70995113D01*
X118724909Y-71203971D01*
X118804667Y-71397000D01*
X118952223Y-71544814D01*
X119145113Y-71624908D01*
X119353971Y-71625091D01*
X119547000Y-71545333D01*
X119694814Y-71397777D01*
X119774908Y-71204887D01*
X119775091Y-70996029D01*
X119695333Y-70803000D01*
X119550000Y-70657413D01*
X119550000Y-67750000D01*
X119527164Y-67635195D01*
X119462132Y-67537868D01*
X116524912Y-64600648D01*
X116525091Y-64396029D01*
X116445333Y-64203000D01*
X116297777Y-64055186D01*
X116104887Y-63975092D01*
X115896029Y-63974909D01*
X115703000Y-64054667D01*
X115555186Y-64202223D01*
X115475092Y-64395113D01*
X115474909Y-64603971D01*
X115350000Y-64603971D01*
X115350000Y-62503971D01*
X117824909Y-62503971D01*
X117904667Y-62697000D01*
X118050000Y-62842587D01*
X118050000Y-64057662D01*
X117905186Y-64202223D01*
X117825092Y-64395113D01*
X117824909Y-64603971D01*
X117904667Y-64797000D01*
X118052223Y-64944814D01*
X118245113Y-65024908D01*
X118453971Y-65025091D01*
X118647000Y-64945333D01*
X118794814Y-64797777D01*
X118874908Y-64604887D01*
X118875091Y-64396029D01*
X118795333Y-64203000D01*
X118650000Y-64057413D01*
X118650000Y-62842338D01*
X118794814Y-62697777D01*
X118874908Y-62504887D01*
X118875091Y-62296029D01*
X118795333Y-62103000D01*
X118647777Y-61955186D01*
X118454887Y-61875092D01*
X118246029Y-61874909D01*
X118053000Y-61954667D01*
X117905186Y-62102223D01*
X117825092Y-62295113D01*
X117824909Y-62503971D01*
X115350000Y-62503971D01*
X115350000Y-60424264D01*
X115474264Y-60300000D01*
X115557662Y-60300000D01*
X115702223Y-60444814D01*
X115895113Y-60524908D01*
X116103971Y-60525091D01*
X116297000Y-60445333D01*
X116444814Y-60297777D01*
X116524908Y-60104887D01*
X116525091Y-59896029D01*
X116445333Y-59703000D01*
X116297777Y-59555186D01*
X116104887Y-59475092D01*
X115896029Y-59474909D01*
X115703000Y-59554667D01*
X115557413Y-59700000D01*
X115350000Y-59700000D01*
X115235195Y-59722836D01*
X115137868Y-59787868D01*
X115024971Y-59900765D01*
X115024971Y-59549999D01*
X115002135Y-59435194D01*
X114949342Y-59356183D01*
X114949880Y-59354887D01*
X114950029Y-59184654D01*
X117450869Y-59174998D01*
X117531778Y-59159612D01*
X117606886Y-59111282D01*
X117630313Y-59076995D01*
X117620592Y-59125000D01*
X117620592Y-59875000D01*
X117636281Y-59958380D01*
X117685559Y-60034960D01*
X117760747Y-60086334D01*
X117850000Y-60104408D01*
X118650000Y-60104408D01*
X118733380Y-60088719D01*
X118809960Y-60039441D01*
X118861334Y-59964253D01*
X118879408Y-59875000D01*
X118879408Y-59593750D01*
X119075000Y-59593750D01*
X119075000Y-59929701D01*
X119116866Y-60030775D01*
X119194225Y-60108134D01*
X119295299Y-60150000D01*
X119656250Y-60150000D01*
X119725000Y-60081250D01*
X119725000Y-59525000D01*
X119775000Y-59525000D01*
X119775000Y-60081250D01*
X119843750Y-60150000D01*
X120204701Y-60150000D01*
X120305775Y-60108134D01*
X120383134Y-60030775D01*
X120425000Y-59929701D01*
X120425000Y-59593750D01*
X120356250Y-59525000D01*
X119775000Y-59525000D01*
X119725000Y-59525000D01*
X119143750Y-59525000D01*
X119075000Y-59593750D01*
X118879408Y-59593750D01*
X118879408Y-59125000D01*
X118869116Y-59070299D01*
X119075000Y-59070299D01*
X119075000Y-59406250D01*
X119143750Y-59475000D01*
X119725000Y-59475000D01*
X119725000Y-58918750D01*
X119775000Y-58918750D01*
X119775000Y-59475000D01*
X120356250Y-59475000D01*
X120425000Y-59406250D01*
X120425000Y-59070299D01*
X120383134Y-58969225D01*
X120305775Y-58891866D01*
X120204701Y-58850000D01*
X119843750Y-58850000D01*
X119775000Y-58918750D01*
X119725000Y-58918750D01*
X119656250Y-58850000D01*
X119295299Y-58850000D01*
X119194225Y-58891866D01*
X119116866Y-58969225D01*
X119075000Y-59070299D01*
X118869116Y-59070299D01*
X118863719Y-59041620D01*
X118814441Y-58965040D01*
X118739253Y-58913666D01*
X118650000Y-58895592D01*
X118625000Y-58895592D01*
X118625000Y-57950000D01*
X118596455Y-57806494D01*
X118515165Y-57684835D01*
X117815165Y-56984835D01*
X117693507Y-56903545D01*
X117675000Y-56899864D01*
X117675000Y-55750000D01*
X117659612Y-55668222D01*
X117611282Y-55593114D01*
X117584771Y-55575000D01*
X122825000Y-55575000D01*
X122825000Y-71200000D01*
X122830909Y-71229179D01*
X122847705Y-71253761D01*
X122872741Y-71269871D01*
X122900000Y-71275000D01*
X123000000Y-71275000D01*
X123000000Y-71275736D01*
X121425043Y-72850693D01*
X121425091Y-72796029D01*
X121345333Y-72603000D01*
X121267463Y-72524993D01*
X121344814Y-72447777D01*
X121424908Y-72254887D01*
X121425091Y-72046029D01*
X121345333Y-71853000D01*
X121267469Y-71774999D01*
X121344826Y-71697777D01*
X121424920Y-71504887D01*
X121425103Y-71296029D01*
X121345345Y-71103000D01*
X121197789Y-70955186D01*
X121004899Y-70875092D01*
X120796041Y-70874909D01*
X120603012Y-70954667D01*
X120455198Y-71102223D01*
X120375104Y-71295113D01*
X120374924Y-71500824D01*
X117475902Y-74399846D01*
X113700154Y-74399846D01*
X113585349Y-74422682D01*
X113488022Y-74487714D01*
X109825736Y-78150000D01*
X107700000Y-78150000D01*
X107585195Y-78172836D01*
X107487868Y-78237868D01*
X106450648Y-79275088D01*
X106246029Y-79274909D01*
X106053000Y-79354667D01*
X105905186Y-79502223D01*
X105825092Y-79695113D01*
X105824909Y-79903971D01*
X105904667Y-80097000D01*
X106052223Y-80244814D01*
X106245113Y-80324908D01*
X106453971Y-80325091D01*
X106647000Y-80245333D01*
X106794814Y-80097777D01*
X106799914Y-80085496D01*
X106804667Y-80097000D01*
X106952223Y-80244814D01*
X107145113Y-80324908D01*
X107353971Y-80325091D01*
X107547000Y-80245333D01*
X107694814Y-80097777D01*
X107699914Y-80085496D01*
X107704667Y-80097000D01*
X107852223Y-80244814D01*
X108045113Y-80324908D01*
X108253971Y-80325091D01*
X108447000Y-80245333D01*
X108594814Y-80097777D01*
X108674908Y-79904887D01*
X108675088Y-79699176D01*
X109024242Y-79350022D01*
X109207391Y-79350022D01*
X109205186Y-79352223D01*
X109125092Y-79545113D01*
X109124909Y-79753971D01*
X109204667Y-79947000D01*
X109352223Y-80094814D01*
X109545113Y-80174908D01*
X109753971Y-80175091D01*
X109947000Y-80095333D01*
X110092587Y-79950000D01*
X110100000Y-79950000D01*
X110186794Y-79932736D01*
X110254667Y-80097000D01*
X110402223Y-80244814D01*
X110595113Y-80324908D01*
X110676478Y-80324979D01*
X109837868Y-81163589D01*
X109772836Y-81260916D01*
X109750000Y-81375721D01*
X109750000Y-82037662D01*
X109605186Y-82182223D01*
X109525092Y-82375113D01*
X109524917Y-82574599D01*
X109495333Y-82503000D01*
X109347777Y-82355186D01*
X109154887Y-82275092D01*
X108946029Y-82274909D01*
X108753000Y-82354667D01*
X108605186Y-82502223D01*
X108525092Y-82695113D01*
X108524909Y-82903971D01*
X108604667Y-83097000D01*
X108752223Y-83244814D01*
X108945113Y-83324908D01*
X109150824Y-83325088D01*
X109192869Y-83367133D01*
X109290196Y-83432165D01*
X109405001Y-83455001D01*
X110472001Y-83455001D01*
X110586806Y-83432165D01*
X110684133Y-83367133D01*
X111017133Y-83034133D01*
X111082165Y-82936806D01*
X111105001Y-82822001D01*
X111105001Y-81169263D01*
X112302798Y-79971466D01*
X112354667Y-80097000D01*
X112502223Y-80244814D01*
X112695113Y-80324908D01*
X112903971Y-80325091D01*
X113097000Y-80245333D01*
X113175007Y-80167463D01*
X113252223Y-80244814D01*
X113445113Y-80324908D01*
X113653971Y-80325091D01*
X113847000Y-80245333D01*
X113925007Y-80167463D01*
X114002223Y-80244814D01*
X114195113Y-80324908D01*
X114403971Y-80325091D01*
X114597000Y-80245333D01*
X114675007Y-80167463D01*
X114752223Y-80244814D01*
X114945113Y-80324908D01*
X115153971Y-80325091D01*
X115347000Y-80245333D01*
X115459989Y-80132541D01*
X115459989Y-80765747D01*
X115225736Y-81000000D01*
X113400000Y-81000000D01*
X113285195Y-81022836D01*
X113187868Y-81087868D01*
X112587868Y-81687868D01*
X112522836Y-81785195D01*
X112500000Y-81900000D01*
X112500000Y-82357662D01*
X112355186Y-82502223D01*
X112275092Y-82695113D01*
X112274909Y-82903971D01*
X112354667Y-83097000D01*
X112502223Y-83244814D01*
X112695113Y-83324908D01*
X112903971Y-83325091D01*
X113097000Y-83245333D01*
X113244814Y-83097777D01*
X113324908Y-82904887D01*
X113324909Y-82903971D01*
X113404667Y-83097000D01*
X113552223Y-83244814D01*
X113745113Y-83324908D01*
X113953971Y-83325091D01*
X114147000Y-83245333D01*
X114294814Y-83097777D01*
X114374908Y-82904887D01*
X114374909Y-82903971D01*
X114454667Y-83097000D01*
X114602223Y-83244814D01*
X114795113Y-83324908D01*
X115003971Y-83325091D01*
X115197000Y-83245333D01*
X115344814Y-83097777D01*
X115424908Y-82904887D01*
X115425088Y-82699176D01*
X116612152Y-81512112D01*
X116677184Y-81414785D01*
X116700020Y-81299980D01*
X116700020Y-79785753D01*
X116704667Y-79797000D01*
X116852223Y-79944814D01*
X117045113Y-80024908D01*
X117253971Y-80025091D01*
X117447000Y-79945333D01*
X117594814Y-79797777D01*
X117674908Y-79604887D01*
X117675088Y-79399176D01*
X117874264Y-79200000D01*
X120467069Y-79200000D01*
X120581874Y-79177164D01*
X120679201Y-79112132D01*
X126637362Y-73153971D01*
X128624909Y-73153971D01*
X128704667Y-73347000D01*
X128852223Y-73494814D01*
X129045113Y-73574908D01*
X129253971Y-73575091D01*
X129447000Y-73495333D01*
X129594814Y-73347777D01*
X129674908Y-73154887D01*
X129675091Y-72946029D01*
X129595333Y-72753000D01*
X129450000Y-72607413D01*
X129450000Y-72135705D01*
X129454667Y-72147000D01*
X129602223Y-72294814D01*
X129795113Y-72374908D01*
X130003971Y-72375091D01*
X130197000Y-72295333D01*
X130344814Y-72147777D01*
X130424908Y-71954887D01*
X130425088Y-71749176D01*
X131612132Y-70562132D01*
X131677164Y-70464805D01*
X131700000Y-70350000D01*
X131700000Y-69974994D01*
X131803971Y-69975085D01*
X131997000Y-69895327D01*
X132144814Y-69747771D01*
X132224908Y-69554881D01*
X132225091Y-69346023D01*
X132145333Y-69152994D01*
X131997777Y-69005180D01*
X131804887Y-68925086D01*
X131596029Y-68924903D01*
X131464852Y-68979104D01*
X131474908Y-68954887D01*
X131475091Y-68746029D01*
X131395333Y-68553000D01*
X131247777Y-68405186D01*
X131054887Y-68325092D01*
X130846029Y-68324909D01*
X130653000Y-68404667D01*
X130574992Y-68482539D01*
X130497774Y-68405186D01*
X130304884Y-68325092D01*
X130096026Y-68324909D01*
X129902997Y-68404667D01*
X129755183Y-68552223D01*
X129675089Y-68745113D01*
X129674906Y-68953971D01*
X129754664Y-69147000D01*
X129902220Y-69294814D01*
X130095110Y-69374908D01*
X130200000Y-69375000D01*
X130200000Y-69907413D01*
X130197777Y-69905186D01*
X130004887Y-69825092D01*
X129796029Y-69824909D01*
X129603000Y-69904667D01*
X129455186Y-70052223D01*
X129450000Y-70064712D01*
X129450000Y-68128557D01*
X132224957Y-65353600D01*
X132224901Y-65417261D01*
X132304659Y-65610290D01*
X132452215Y-65758104D01*
X132645105Y-65838198D01*
X132850816Y-65838378D01*
X132996213Y-65983775D01*
X132854887Y-65925092D01*
X132646029Y-65924909D01*
X132453000Y-66004667D01*
X132305186Y-66152223D01*
X132225092Y-66345113D01*
X132224909Y-66553971D01*
X132304667Y-66747000D01*
X132452223Y-66894814D01*
X132645113Y-66974908D01*
X132853971Y-66975091D01*
X132856001Y-66974252D01*
X132935206Y-67027175D01*
X133050011Y-67050011D01*
X137433269Y-67050011D01*
X140891516Y-70508258D01*
X140850000Y-70500000D01*
X140074264Y-70500000D01*
X138374912Y-68800648D01*
X138375091Y-68596029D01*
X138295333Y-68403000D01*
X138147777Y-68255186D01*
X137954887Y-68175092D01*
X137746029Y-68174909D01*
X137553000Y-68254667D01*
X137405186Y-68402223D01*
X137325092Y-68595113D01*
X137324909Y-68803971D01*
X137404667Y-68997000D01*
X137552223Y-69144814D01*
X137745113Y-69224908D01*
X137950824Y-69225088D01*
X139737868Y-71012132D01*
X139835195Y-71077164D01*
X139950000Y-71100000D01*
X140725736Y-71100000D01*
X141225088Y-71599352D01*
X141224909Y-71803971D01*
X141304667Y-71997000D01*
X141452223Y-72144814D01*
X141645113Y-72224908D01*
X141853971Y-72225091D01*
X142047000Y-72145333D01*
X142163341Y-72029195D01*
X142156318Y-72046109D01*
X142156135Y-72254967D01*
X142235893Y-72447996D01*
X142383449Y-72595810D01*
X142576339Y-72675904D01*
X142785197Y-72676087D01*
X142978226Y-72596329D01*
X143126040Y-72448773D01*
X143206134Y-72255883D01*
X143206317Y-72047025D01*
X143186887Y-72000000D01*
X143407662Y-72000000D01*
X143552223Y-72144814D01*
X143745113Y-72224908D01*
X143953971Y-72225091D01*
X144147000Y-72145333D01*
X144294814Y-71997777D01*
X144374908Y-71804887D01*
X144375091Y-71596029D01*
X144295333Y-71403000D01*
X144147777Y-71255186D01*
X143954887Y-71175092D01*
X143746029Y-71174909D01*
X143553000Y-71254667D01*
X143407413Y-71400000D01*
X143074264Y-71400000D01*
X137912132Y-66237868D01*
X137814805Y-66172836D01*
X137700000Y-66150000D01*
X134010966Y-66150000D01*
X133274904Y-65413938D01*
X133275083Y-65209319D01*
X133195325Y-65016290D01*
X133047769Y-64868476D01*
X132854879Y-64788382D01*
X132790232Y-64788325D01*
X132790366Y-64788191D01*
X132994985Y-64788370D01*
X133188014Y-64708612D01*
X133335828Y-64561056D01*
X133415922Y-64368166D01*
X133416105Y-64159308D01*
X133336347Y-63966279D01*
X133188791Y-63818465D01*
X132995901Y-63738371D01*
X132787043Y-63738188D01*
X132594014Y-63817946D01*
X132446200Y-63965502D01*
X132366106Y-64158392D01*
X132365926Y-64364103D01*
X128937868Y-67792161D01*
X128872836Y-67889488D01*
X128850000Y-68004293D01*
X128850000Y-72607662D01*
X128705186Y-72752223D01*
X128625092Y-72945113D01*
X128624909Y-73153971D01*
X126637362Y-73153971D01*
X126812253Y-72979080D01*
X126877285Y-72881753D01*
X126900121Y-72766948D01*
X126900121Y-63315015D01*
X127614748Y-62600388D01*
X127654667Y-62697000D01*
X127732537Y-62775007D01*
X127655186Y-62852223D01*
X127575092Y-63045113D01*
X127574909Y-63253971D01*
X127654667Y-63447000D01*
X127732537Y-63525007D01*
X127655186Y-63602223D01*
X127575092Y-63795113D01*
X127574909Y-64003971D01*
X127654667Y-64197000D01*
X127732539Y-64275008D01*
X127655186Y-64352226D01*
X127575092Y-64545116D01*
X127574909Y-64753974D01*
X127654667Y-64947003D01*
X127802223Y-65094817D01*
X127995113Y-65174911D01*
X128203971Y-65175094D01*
X128397000Y-65095336D01*
X128544814Y-64947780D01*
X128624908Y-64754890D01*
X128625088Y-64549179D01*
X129574237Y-63600030D01*
X138025766Y-63600030D01*
X142049988Y-67624252D01*
X142049988Y-67950001D01*
X142072824Y-68064806D01*
X142125617Y-68143817D01*
X142125079Y-68145113D01*
X142124896Y-68353971D01*
X142204654Y-68547000D01*
X142352210Y-68694814D01*
X142497567Y-68755171D01*
X142252738Y-69000000D01*
X142016741Y-69000000D01*
X140996151Y-67979410D01*
X140996330Y-67774791D01*
X140916572Y-67581762D01*
X140769016Y-67433948D01*
X140576126Y-67353854D01*
X140367268Y-67353671D01*
X140174239Y-67433429D01*
X140026425Y-67580985D01*
X139946331Y-67773875D01*
X139946148Y-67982733D01*
X140025906Y-68175762D01*
X140173462Y-68323576D01*
X140366352Y-68403670D01*
X140572063Y-68403850D01*
X141680345Y-69512132D01*
X141777672Y-69577164D01*
X141892477Y-69600000D01*
X142377002Y-69600000D01*
X142382831Y-69598841D01*
X142382816Y-69615530D01*
X142462574Y-69808559D01*
X142610130Y-69956373D01*
X142803020Y-70036467D01*
X143011878Y-70036650D01*
X143204907Y-69956892D01*
X143259776Y-69902118D01*
X143402223Y-70044814D01*
X143595113Y-70124908D01*
X143803971Y-70125091D01*
X143997000Y-70045333D01*
X144144814Y-69897777D01*
X144224908Y-69704887D01*
X144225091Y-69496029D01*
X144145333Y-69303000D01*
X144069423Y-69226957D01*
X144127164Y-69140541D01*
X144150000Y-69025736D01*
X144150000Y-67784236D01*
X144224999Y-67859235D01*
X144224999Y-69224999D01*
X144247835Y-69339804D01*
X144312867Y-69437131D01*
X144525088Y-69649352D01*
X144524909Y-69853971D01*
X144604667Y-70047000D01*
X144752223Y-70194814D01*
X144945113Y-70274908D01*
X145153971Y-70275091D01*
X145347000Y-70195333D01*
X145494814Y-70047777D01*
X145574908Y-69854887D01*
X145575091Y-69646029D01*
X145495333Y-69453000D01*
X145347777Y-69305186D01*
X145154887Y-69225092D01*
X144949176Y-69224912D01*
X144824999Y-69100735D01*
X144824999Y-68636400D01*
X145754592Y-68636400D01*
X145754592Y-70363600D01*
X145770281Y-70446980D01*
X145819559Y-70523560D01*
X145894747Y-70574934D01*
X145984000Y-70593008D01*
X148016000Y-70593008D01*
X148099380Y-70577319D01*
X148175960Y-70528041D01*
X148227334Y-70452853D01*
X148245408Y-70363600D01*
X148245408Y-68636400D01*
X148229719Y-68553020D01*
X148180441Y-68476440D01*
X148105253Y-68425066D01*
X148016000Y-68406992D01*
X145984000Y-68406992D01*
X145900620Y-68422681D01*
X145824040Y-68471959D01*
X145772666Y-68547147D01*
X145754592Y-68636400D01*
X144824999Y-68636400D01*
X144824999Y-68275031D01*
X144945117Y-68324908D01*
X145153975Y-68325091D01*
X145347004Y-68245333D01*
X145494818Y-68097777D01*
X145574912Y-67904887D01*
X145575095Y-67696029D01*
X145495337Y-67503000D01*
X145347781Y-67355186D01*
X145154891Y-67275092D01*
X144949180Y-67274912D01*
X144634268Y-66960000D01*
X145734687Y-66960000D01*
X145817552Y-67376589D01*
X146053531Y-67729756D01*
X146406698Y-67965735D01*
X146823287Y-68048600D01*
X147176713Y-68048600D01*
X147593302Y-67965735D01*
X147946469Y-67729756D01*
X148182448Y-67376589D01*
X148265313Y-66960000D01*
X148182448Y-66543411D01*
X147946469Y-66190244D01*
X147593302Y-65954265D01*
X147176713Y-65871400D01*
X146823287Y-65871400D01*
X146406698Y-65954265D01*
X146053531Y-66190244D01*
X145817552Y-66543411D01*
X145734687Y-66960000D01*
X144634268Y-66960000D01*
X144600011Y-66925743D01*
X144600011Y-64420000D01*
X145734687Y-64420000D01*
X145817552Y-64836589D01*
X146053531Y-65189756D01*
X146406698Y-65425735D01*
X146823287Y-65508600D01*
X147176713Y-65508600D01*
X147593302Y-65425735D01*
X147946469Y-65189756D01*
X148182448Y-64836589D01*
X148265313Y-64420000D01*
X148182448Y-64003411D01*
X147946469Y-63650244D01*
X147593302Y-63414265D01*
X147176713Y-63331400D01*
X146823287Y-63331400D01*
X146406698Y-63414265D01*
X146053531Y-63650244D01*
X145817552Y-64003411D01*
X145734687Y-64420000D01*
X144600011Y-64420000D01*
X144600011Y-61880000D01*
X145734687Y-61880000D01*
X145817552Y-62296589D01*
X146053531Y-62649756D01*
X146406698Y-62885735D01*
X146823287Y-62968600D01*
X147176713Y-62968600D01*
X147593302Y-62885735D01*
X147946469Y-62649756D01*
X148182448Y-62296589D01*
X148265313Y-61880000D01*
X148182448Y-61463411D01*
X147946469Y-61110244D01*
X147593302Y-60874265D01*
X147176713Y-60791400D01*
X146823287Y-60791400D01*
X146406698Y-60874265D01*
X146053531Y-61110244D01*
X145817552Y-61463411D01*
X145734687Y-61880000D01*
X144600011Y-61880000D01*
X144600011Y-59542766D01*
X145727200Y-59542766D01*
X145786104Y-59752626D01*
X146024811Y-60127434D01*
X146388780Y-60382362D01*
X146822600Y-60478600D01*
X146975000Y-60478600D01*
X146975000Y-59365000D01*
X147025000Y-59365000D01*
X147025000Y-60478600D01*
X147177400Y-60478600D01*
X147611220Y-60382362D01*
X147975189Y-60127434D01*
X148213896Y-59752626D01*
X148272800Y-59542766D01*
X148221958Y-59365000D01*
X147025000Y-59365000D01*
X146975000Y-59365000D01*
X145778042Y-59365000D01*
X145727200Y-59542766D01*
X144600011Y-59542766D01*
X144600011Y-59137234D01*
X145727200Y-59137234D01*
X145778042Y-59315000D01*
X146975000Y-59315000D01*
X146975000Y-58201400D01*
X147025000Y-58201400D01*
X147025000Y-59315000D01*
X148221958Y-59315000D01*
X148272800Y-59137234D01*
X148213896Y-58927374D01*
X147975189Y-58552566D01*
X147611220Y-58297638D01*
X147177400Y-58201400D01*
X147025000Y-58201400D01*
X146975000Y-58201400D01*
X146822600Y-58201400D01*
X146388780Y-58297638D01*
X146024811Y-58552566D01*
X145786104Y-58927374D01*
X145727200Y-59137234D01*
X144600011Y-59137234D01*
X144600011Y-58624253D01*
X145112132Y-58112132D01*
X145177164Y-58014805D01*
X145200000Y-57900000D01*
X145200000Y-56803971D01*
X145574909Y-56803971D01*
X145654667Y-56997000D01*
X145802223Y-57144814D01*
X145995113Y-57224908D01*
X146203971Y-57225091D01*
X146397000Y-57145333D01*
X146542587Y-57000000D01*
X147907662Y-57000000D01*
X148052223Y-57144814D01*
X148245113Y-57224908D01*
X148453971Y-57225091D01*
X148647000Y-57145333D01*
X148794814Y-56997777D01*
X148874908Y-56804887D01*
X148875091Y-56596029D01*
X148795333Y-56403000D01*
X148647777Y-56255186D01*
X148454887Y-56175092D01*
X148246029Y-56174909D01*
X148053000Y-56254667D01*
X147907413Y-56400000D01*
X146542338Y-56400000D01*
X146397777Y-56255186D01*
X146204887Y-56175092D01*
X145996029Y-56174909D01*
X145803000Y-56254667D01*
X145655186Y-56402223D01*
X145575092Y-56595113D01*
X145574909Y-56803971D01*
X145200000Y-56803971D01*
X145200000Y-56250000D01*
X145177164Y-56135195D01*
X145112132Y-56037868D01*
X143624912Y-54550648D01*
X143625091Y-54346029D01*
X143545333Y-54153000D01*
X143397777Y-54005186D01*
X143204887Y-53925092D01*
X142996029Y-53924909D01*
X142803000Y-54004667D01*
X142655186Y-54152223D01*
X142575092Y-54345113D01*
X142574909Y-54553971D01*
X142654667Y-54747000D01*
X142802223Y-54894814D01*
X142995113Y-54974908D01*
X143200824Y-54975088D01*
X144600000Y-56374264D01*
X144600000Y-57007413D01*
X144597777Y-57005186D01*
X144404887Y-56925092D01*
X144196029Y-56924909D01*
X144003000Y-57004667D01*
X143999989Y-57007673D01*
X143999989Y-56601431D01*
X143977153Y-56486626D01*
X143912121Y-56389299D01*
X141434437Y-53911615D01*
X141693020Y-53915731D01*
X142081435Y-53762041D01*
X142109768Y-53743109D01*
X142191396Y-53588391D01*
X141500900Y-52897895D01*
X141486758Y-52912038D01*
X141451403Y-52876683D01*
X141465545Y-52862540D01*
X141536255Y-52862540D01*
X142226751Y-53553036D01*
X142381469Y-53471408D01*
X142392048Y-53446975D01*
X144742609Y-53446975D01*
X145085493Y-54276817D01*
X145719843Y-54912276D01*
X146549085Y-55256607D01*
X147446975Y-55257391D01*
X148276817Y-54914507D01*
X148912276Y-54280157D01*
X149256607Y-53450915D01*
X149257391Y-52553025D01*
X148914507Y-51723183D01*
X148280157Y-51087724D01*
X147450915Y-50743393D01*
X146553025Y-50742609D01*
X145723183Y-51085493D01*
X145087724Y-51719843D01*
X144743393Y-52549085D01*
X144742609Y-53446975D01*
X142392048Y-53446975D01*
X142547443Y-53088082D01*
X142554091Y-52670420D01*
X142400401Y-52282005D01*
X142381469Y-52253672D01*
X142226751Y-52172044D01*
X141536255Y-52862540D01*
X141465545Y-52862540D01*
X140775049Y-52172044D01*
X140620331Y-52253672D01*
X140454357Y-52636998D01*
X140449742Y-52926920D01*
X139659511Y-52136689D01*
X140810404Y-52136689D01*
X141500900Y-52827185D01*
X142191396Y-52136689D01*
X142109768Y-51981971D01*
X141726442Y-51815997D01*
X141308780Y-51809349D01*
X140920365Y-51963039D01*
X140892032Y-51981971D01*
X140810404Y-52136689D01*
X139659511Y-52136689D01*
X138097822Y-50575000D01*
X149425000Y-50575000D01*
X149425000Y-74282457D01*
X149425000Y-74282457D01*
G37*
X149425000Y-74282457D02*
X149397777Y-74255186D01*
X149204887Y-74175092D01*
X148996029Y-74174909D01*
X148803000Y-74254667D01*
X148657413Y-74400000D01*
X148131817Y-74400000D01*
X148446469Y-74189756D01*
X148682448Y-73836589D01*
X148765313Y-73420000D01*
X148682448Y-73003411D01*
X148446469Y-72650244D01*
X148093302Y-72414265D01*
X147676713Y-72331400D01*
X147323287Y-72331400D01*
X146906698Y-72414265D01*
X146553531Y-72650244D01*
X146317552Y-73003411D01*
X146234687Y-73420000D01*
X146317552Y-73836589D01*
X146553531Y-74189756D01*
X146868183Y-74400000D01*
X145131817Y-74400000D01*
X145446469Y-74189756D01*
X145682448Y-73836589D01*
X145765313Y-73420000D01*
X145682448Y-73003411D01*
X145446469Y-72650244D01*
X145093302Y-72414265D01*
X144676713Y-72331400D01*
X144323287Y-72331400D01*
X143906698Y-72414265D01*
X143553531Y-72650244D01*
X143317552Y-73003411D01*
X143234687Y-73420000D01*
X143317552Y-73836589D01*
X143553531Y-74189756D01*
X143868183Y-74400000D01*
X142792338Y-74400000D01*
X142647777Y-74255186D01*
X142454887Y-74175092D01*
X142246029Y-74174909D01*
X142053000Y-74254667D01*
X141905186Y-74402223D01*
X141825092Y-74595113D01*
X141824909Y-74803971D01*
X141904667Y-74997000D01*
X142052223Y-75144814D01*
X142245113Y-75224908D01*
X142453971Y-75225091D01*
X142647000Y-75145333D01*
X142792587Y-75000000D01*
X143838251Y-75000000D01*
X143553531Y-75190244D01*
X143317552Y-75543411D01*
X143234687Y-75960000D01*
X143317552Y-76376589D01*
X143553531Y-76729756D01*
X143906698Y-76965735D01*
X144323287Y-77048600D01*
X144676713Y-77048600D01*
X145093302Y-76965735D01*
X145446469Y-76729756D01*
X145682448Y-76376589D01*
X145765313Y-75960000D01*
X145682448Y-75543411D01*
X145446469Y-75190244D01*
X145161749Y-75000000D01*
X146838251Y-75000000D01*
X146553531Y-75190244D01*
X146317552Y-75543411D01*
X146234687Y-75960000D01*
X146317552Y-76376589D01*
X146553531Y-76729756D01*
X146906698Y-76965735D01*
X147323287Y-77048600D01*
X147676713Y-77048600D01*
X148093302Y-76965735D01*
X148446469Y-76729756D01*
X148682448Y-76376589D01*
X148765313Y-75960000D01*
X148682448Y-75543411D01*
X148446469Y-75190244D01*
X148161749Y-75000000D01*
X148657662Y-75000000D01*
X148802223Y-75144814D01*
X148995113Y-75224908D01*
X149203971Y-75225091D01*
X149397000Y-75145333D01*
X149425000Y-75117382D01*
X149425000Y-89425000D01*
X125430668Y-89425000D01*
X125444491Y-89355509D01*
X125444491Y-87677759D01*
X125570166Y-87865845D01*
X125967419Y-88131281D01*
X126436011Y-88224490D01*
X126483989Y-88224490D01*
X126952581Y-88131281D01*
X127349834Y-87865845D01*
X127615270Y-87468592D01*
X127708479Y-87000000D01*
X127615270Y-86531408D01*
X127349834Y-86134155D01*
X127125112Y-85984000D01*
X133906992Y-85984000D01*
X133906992Y-88016000D01*
X133922681Y-88099380D01*
X133971959Y-88175960D01*
X134047147Y-88227334D01*
X134136400Y-88245408D01*
X135863600Y-88245408D01*
X135946980Y-88229719D01*
X136023560Y-88180441D01*
X136074934Y-88105253D01*
X136093008Y-88016000D01*
X136093008Y-86823287D01*
X136451400Y-86823287D01*
X136451400Y-87176713D01*
X136534265Y-87593302D01*
X136770244Y-87946469D01*
X137123411Y-88182448D01*
X137540000Y-88265313D01*
X137956589Y-88182448D01*
X138309756Y-87946469D01*
X138545735Y-87593302D01*
X138628600Y-87176713D01*
X138628600Y-87025000D01*
X138941400Y-87025000D01*
X138941400Y-87177400D01*
X139037638Y-87611220D01*
X139292566Y-87975189D01*
X139667374Y-88213896D01*
X139877234Y-88272800D01*
X140055000Y-88221958D01*
X140055000Y-87025000D01*
X140105000Y-87025000D01*
X140105000Y-88221958D01*
X140282766Y-88272800D01*
X140492626Y-88213896D01*
X140867434Y-87975189D01*
X141122362Y-87611220D01*
X141158797Y-87446975D01*
X144742609Y-87446975D01*
X145085493Y-88276817D01*
X145719843Y-88912276D01*
X146549085Y-89256607D01*
X147446975Y-89257391D01*
X148276817Y-88914507D01*
X148912276Y-88280157D01*
X149256607Y-87450915D01*
X149257391Y-86553025D01*
X148914507Y-85723183D01*
X148280157Y-85087724D01*
X147450915Y-84743393D01*
X146553025Y-84742609D01*
X145723183Y-85085493D01*
X145087724Y-85719843D01*
X144743393Y-86549085D01*
X144742609Y-87446975D01*
X141158797Y-87446975D01*
X141218600Y-87177400D01*
X141218600Y-87025000D01*
X140105000Y-87025000D01*
X140055000Y-87025000D01*
X138941400Y-87025000D01*
X138628600Y-87025000D01*
X138628600Y-86823287D01*
X138628464Y-86822600D01*
X138941400Y-86822600D01*
X138941400Y-86975000D01*
X140055000Y-86975000D01*
X140055000Y-85778042D01*
X140105000Y-85778042D01*
X140105000Y-86975000D01*
X141218600Y-86975000D01*
X141218600Y-86822600D01*
X141122362Y-86388780D01*
X140867434Y-86024811D01*
X140492626Y-85786104D01*
X140282766Y-85727200D01*
X140105000Y-85778042D01*
X140055000Y-85778042D01*
X139877234Y-85727200D01*
X139667374Y-85786104D01*
X139292566Y-86024811D01*
X139037638Y-86388780D01*
X138941400Y-86822600D01*
X138628464Y-86822600D01*
X138545735Y-86406698D01*
X138309756Y-86053531D01*
X137956589Y-85817552D01*
X137540000Y-85734687D01*
X137123411Y-85817552D01*
X136770244Y-86053531D01*
X136534265Y-86406698D01*
X136451400Y-86823287D01*
X136093008Y-86823287D01*
X136093008Y-85984000D01*
X136077319Y-85900620D01*
X136028041Y-85824040D01*
X135952853Y-85772666D01*
X135863600Y-85754592D01*
X134136400Y-85754592D01*
X134053020Y-85770281D01*
X133976440Y-85819559D01*
X133925066Y-85894747D01*
X133906992Y-85984000D01*
X127125112Y-85984000D01*
X126952581Y-85868719D01*
X126483989Y-85775510D01*
X126436011Y-85775510D01*
X125967419Y-85868719D01*
X125570166Y-86134155D01*
X125444491Y-86322241D01*
X125444491Y-85579773D01*
X128149352Y-82874912D01*
X128353971Y-82875091D01*
X128547000Y-82795333D01*
X128694814Y-82647777D01*
X128774908Y-82454887D01*
X128775091Y-82246029D01*
X128695333Y-82053000D01*
X128547777Y-81905186D01*
X128354887Y-81825092D01*
X128146029Y-81824909D01*
X127953000Y-81904667D01*
X127805186Y-82052223D01*
X127725092Y-82245113D01*
X127724912Y-82450824D01*
X124932359Y-85243377D01*
X124867327Y-85340704D01*
X124844491Y-85455509D01*
X124844491Y-86186023D01*
X124809834Y-86134155D01*
X124412581Y-85868719D01*
X123943989Y-85775510D01*
X123896011Y-85775510D01*
X123427419Y-85868719D01*
X123030166Y-86134155D01*
X122764730Y-86531408D01*
X122671521Y-87000000D01*
X122764730Y-87468592D01*
X123030166Y-87865845D01*
X123427419Y-88131281D01*
X123896011Y-88224490D01*
X123943989Y-88224490D01*
X124412581Y-88131281D01*
X124809834Y-87865845D01*
X124844491Y-87813977D01*
X124844491Y-89200000D01*
X103585872Y-89200000D01*
X104276817Y-88914507D01*
X104912276Y-88280157D01*
X105256607Y-87450915D01*
X105257000Y-87000000D01*
X120131521Y-87000000D01*
X120224730Y-87468592D01*
X120490166Y-87865845D01*
X120887419Y-88131281D01*
X121356011Y-88224490D01*
X121403989Y-88224490D01*
X121872581Y-88131281D01*
X122269834Y-87865845D01*
X122535270Y-87468592D01*
X122628479Y-87000000D01*
X122535270Y-86531408D01*
X122430162Y-86374102D01*
X127412132Y-81392132D01*
X127477164Y-81294805D01*
X127500000Y-81180000D01*
X127500000Y-78253971D01*
X138224909Y-78253971D01*
X138304667Y-78447000D01*
X138450000Y-78592587D01*
X138450000Y-81157666D01*
X138305186Y-81302227D01*
X138225092Y-81495117D01*
X138224909Y-81703975D01*
X138304667Y-81897004D01*
X138452223Y-82044818D01*
X138645113Y-82124912D01*
X138853971Y-82125095D01*
X139047000Y-82045337D01*
X139194814Y-81897781D01*
X139274908Y-81704891D01*
X139275091Y-81496033D01*
X139195333Y-81303004D01*
X139050000Y-81157417D01*
X139050000Y-78593750D01*
X143209000Y-78593750D01*
X143209000Y-79418301D01*
X143250866Y-79519375D01*
X143328225Y-79596734D01*
X143429299Y-79638600D01*
X144406250Y-79638600D01*
X144475000Y-79569850D01*
X144475000Y-78525000D01*
X144525000Y-78525000D01*
X144525000Y-79569850D01*
X144593750Y-79638600D01*
X145570701Y-79638600D01*
X145671775Y-79596734D01*
X145749134Y-79519375D01*
X145791000Y-79418301D01*
X145791000Y-78593750D01*
X146209000Y-78593750D01*
X146209000Y-79418301D01*
X146250866Y-79519375D01*
X146328225Y-79596734D01*
X146429299Y-79638600D01*
X147406250Y-79638600D01*
X147475000Y-79569850D01*
X147475000Y-78525000D01*
X147525000Y-78525000D01*
X147525000Y-79569850D01*
X147593750Y-79638600D01*
X148570701Y-79638600D01*
X148671775Y-79596734D01*
X148749134Y-79519375D01*
X148791000Y-79418301D01*
X148791000Y-78593750D01*
X148722250Y-78525000D01*
X147525000Y-78525000D01*
X147475000Y-78525000D01*
X146277750Y-78525000D01*
X146209000Y-78593750D01*
X145791000Y-78593750D01*
X145722250Y-78525000D01*
X144525000Y-78525000D01*
X144475000Y-78525000D01*
X143277750Y-78525000D01*
X143209000Y-78593750D01*
X139050000Y-78593750D01*
X139050000Y-78592338D01*
X139194814Y-78447777D01*
X139274908Y-78254887D01*
X139275091Y-78046029D01*
X139195333Y-77853000D01*
X139047777Y-77705186D01*
X138854887Y-77625092D01*
X138646029Y-77624909D01*
X138453000Y-77704667D01*
X138305186Y-77852223D01*
X138225092Y-78045113D01*
X138224909Y-78253971D01*
X127500000Y-78253971D01*
X127500000Y-77992338D01*
X127644814Y-77847777D01*
X127724908Y-77654887D01*
X127724972Y-77581699D01*
X143209000Y-77581699D01*
X143209000Y-78406250D01*
X143277750Y-78475000D01*
X144475000Y-78475000D01*
X144475000Y-77430150D01*
X144525000Y-77430150D01*
X144525000Y-78475000D01*
X145722250Y-78475000D01*
X145791000Y-78406250D01*
X145791000Y-77581699D01*
X146209000Y-77581699D01*
X146209000Y-78406250D01*
X146277750Y-78475000D01*
X147475000Y-78475000D01*
X147475000Y-77430150D01*
X147525000Y-77430150D01*
X147525000Y-78475000D01*
X148722250Y-78475000D01*
X148791000Y-78406250D01*
X148791000Y-77581699D01*
X148749134Y-77480625D01*
X148671775Y-77403266D01*
X148570701Y-77361400D01*
X147593750Y-77361400D01*
X147525000Y-77430150D01*
X147475000Y-77430150D01*
X147406250Y-77361400D01*
X146429299Y-77361400D01*
X146328225Y-77403266D01*
X146250866Y-77480625D01*
X146209000Y-77581699D01*
X145791000Y-77581699D01*
X145749134Y-77480625D01*
X145671775Y-77403266D01*
X145570701Y-77361400D01*
X144593750Y-77361400D01*
X144525000Y-77430150D01*
X144475000Y-77430150D01*
X144406250Y-77361400D01*
X143429299Y-77361400D01*
X143328225Y-77403266D01*
X143250866Y-77480625D01*
X143209000Y-77581699D01*
X127724972Y-77581699D01*
X127725091Y-77446029D01*
X127645333Y-77253000D01*
X127497777Y-77105186D01*
X127304887Y-77025092D01*
X127096029Y-77024909D01*
X126903000Y-77104667D01*
X126755186Y-77252223D01*
X126675092Y-77445113D01*
X126674909Y-77653971D01*
X126754667Y-77847000D01*
X126900000Y-77992587D01*
X126900000Y-81055736D01*
X122001126Y-85954610D01*
X121872581Y-85868719D01*
X121403989Y-85775510D01*
X121356011Y-85775510D01*
X120887419Y-85868719D01*
X120490166Y-86134155D01*
X120224730Y-86531408D01*
X120131521Y-87000000D01*
X105257000Y-87000000D01*
X105257391Y-86553025D01*
X104914507Y-85723183D01*
X104280157Y-85087724D01*
X103450915Y-84743393D01*
X102553025Y-84742609D01*
X101723183Y-85085493D01*
X101087724Y-85719843D01*
X100800000Y-86412760D01*
X100800000Y-71603971D01*
X108824909Y-71603971D01*
X108904667Y-71797000D01*
X109052223Y-71944814D01*
X109245113Y-72024908D01*
X109453971Y-72025091D01*
X109647000Y-71945333D01*
X109792587Y-71800000D01*
X109900000Y-71800000D01*
X110014805Y-71777164D01*
X110112132Y-71712132D01*
X111774263Y-70050001D01*
X117157412Y-70050001D01*
X117155186Y-70052223D01*
X117093831Y-70199983D01*
X113600017Y-70199983D01*
X113485212Y-70222819D01*
X113387885Y-70287851D01*
X112700648Y-70975088D01*
X112496029Y-70974909D01*
X112303000Y-71054667D01*
X112155186Y-71202223D01*
X112075092Y-71395113D01*
X112074909Y-71603971D01*
X112154667Y-71797000D01*
X112302223Y-71944814D01*
X112495113Y-72024908D01*
X112703971Y-72025091D01*
X112897000Y-71945333D01*
X113044814Y-71797777D01*
X113124908Y-71604887D01*
X113125088Y-71399176D01*
X113724281Y-70799983D01*
X117157430Y-70799983D01*
X117155186Y-70802223D01*
X117075092Y-70995113D01*
X117074912Y-71200000D01*
X116292338Y-71200000D01*
X116147777Y-71055186D01*
X115954887Y-70975092D01*
X115746029Y-70974909D01*
X115553000Y-71054667D01*
X115405186Y-71202223D01*
X115325092Y-71395113D01*
X115324909Y-71603971D01*
X115404667Y-71797000D01*
X115552223Y-71944814D01*
X115745113Y-72024908D01*
X115953971Y-72025091D01*
X116147000Y-71945333D01*
X116292587Y-71800000D01*
X117200000Y-71800000D01*
X117314805Y-71777164D01*
X117412132Y-71712132D01*
X117499352Y-71624912D01*
X117703971Y-71625091D01*
X117897000Y-71545333D01*
X118044814Y-71397777D01*
X118124908Y-71204887D01*
X118125091Y-70996029D01*
X118045333Y-70803000D01*
X117967463Y-70724993D01*
X118044814Y-70647777D01*
X118124908Y-70454887D01*
X118125091Y-70246029D01*
X118045333Y-70053000D01*
X117967460Y-69974990D01*
X118044814Y-69897771D01*
X118124908Y-69704881D01*
X118125091Y-69496023D01*
X118045333Y-69302994D01*
X117897777Y-69155180D01*
X117704887Y-69075086D01*
X117496029Y-69074903D01*
X117303000Y-69154661D01*
X117155186Y-69302217D01*
X117093821Y-69450001D01*
X111649999Y-69450001D01*
X111535194Y-69472837D01*
X111437867Y-69537869D01*
X109784044Y-71191692D01*
X109647777Y-71055186D01*
X109454887Y-70975092D01*
X109246029Y-70974909D01*
X109053000Y-71054667D01*
X108905186Y-71202223D01*
X108825092Y-71395113D01*
X108824909Y-71603971D01*
X100800000Y-71603971D01*
X100800000Y-70135700D01*
X101899656Y-70135700D01*
X101966066Y-70277429D01*
X102304219Y-70422578D01*
X102672178Y-70427273D01*
X103013923Y-70290799D01*
X103033934Y-70277429D01*
X103100344Y-70135700D01*
X102500000Y-69535355D01*
X101899656Y-70135700D01*
X100800000Y-70135700D01*
X100800000Y-69672178D01*
X101572727Y-69672178D01*
X101709201Y-70013923D01*
X101722571Y-70033934D01*
X101864300Y-70100344D01*
X102464645Y-69500000D01*
X102535355Y-69500000D01*
X103135700Y-70100344D01*
X103277429Y-70033934D01*
X103422578Y-69695781D01*
X103427273Y-69327822D01*
X103290799Y-68986077D01*
X103277429Y-68966066D01*
X103135700Y-68899656D01*
X102535355Y-69500000D01*
X102464645Y-69500000D01*
X101864300Y-68899656D01*
X101722571Y-68966066D01*
X101577422Y-69304219D01*
X101572727Y-69672178D01*
X100800000Y-69672178D01*
X100800000Y-68864300D01*
X101899656Y-68864300D01*
X102500000Y-69464645D01*
X103100344Y-68864300D01*
X103093644Y-68850000D01*
X103620592Y-68850000D01*
X103620592Y-70150000D01*
X103636281Y-70233380D01*
X103685559Y-70309960D01*
X103760747Y-70361334D01*
X103850000Y-70379408D01*
X105150000Y-70379408D01*
X105233380Y-70363719D01*
X105309960Y-70314441D01*
X105361334Y-70239253D01*
X105379408Y-70150000D01*
X105379408Y-68850000D01*
X105363719Y-68766620D01*
X105314441Y-68690040D01*
X105239253Y-68638666D01*
X105150000Y-68620592D01*
X103850000Y-68620592D01*
X103766620Y-68636281D01*
X103690040Y-68685559D01*
X103638666Y-68760747D01*
X103620592Y-68850000D01*
X103093644Y-68850000D01*
X103033934Y-68722571D01*
X102695781Y-68577422D01*
X102327822Y-68572727D01*
X101986077Y-68709201D01*
X101966066Y-68722571D01*
X101899656Y-68864300D01*
X100800000Y-68864300D01*
X100800000Y-60993750D01*
X101650000Y-60993750D01*
X101650000Y-61354701D01*
X101691866Y-61455775D01*
X101769225Y-61533134D01*
X101870299Y-61575000D01*
X102206250Y-61575000D01*
X102275000Y-61506250D01*
X102275000Y-60925000D01*
X102325000Y-60925000D01*
X102325000Y-61506250D01*
X102393750Y-61575000D01*
X102729701Y-61575000D01*
X102830775Y-61533134D01*
X102908134Y-61455775D01*
X102950000Y-61354701D01*
X102950000Y-60993750D01*
X102881250Y-60925000D01*
X102325000Y-60925000D01*
X102275000Y-60925000D01*
X101718750Y-60925000D01*
X101650000Y-60993750D01*
X100800000Y-60993750D01*
X100800000Y-60445299D01*
X101650000Y-60445299D01*
X101650000Y-60806250D01*
X101718750Y-60875000D01*
X102275000Y-60875000D01*
X102275000Y-60293750D01*
X102325000Y-60293750D01*
X102325000Y-60875000D01*
X102881250Y-60875000D01*
X102950000Y-60806250D01*
X102950000Y-60445299D01*
X102908134Y-60344225D01*
X102830775Y-60266866D01*
X102729701Y-60225000D01*
X102393750Y-60225000D01*
X102325000Y-60293750D01*
X102275000Y-60293750D01*
X102206250Y-60225000D01*
X101870299Y-60225000D01*
X101769225Y-60266866D01*
X101691866Y-60344225D01*
X101650000Y-60445299D01*
X100800000Y-60445299D01*
X100800000Y-53585872D01*
X101085493Y-54276817D01*
X101719843Y-54912276D01*
X102549085Y-55256607D01*
X103446975Y-55257391D01*
X104276817Y-54914507D01*
X104912276Y-54280157D01*
X105256607Y-53450915D01*
X105257000Y-53000000D01*
X107171521Y-53000000D01*
X107264730Y-53468592D01*
X107530166Y-53865845D01*
X107927419Y-54131281D01*
X108396011Y-54224490D01*
X108443989Y-54224490D01*
X108912581Y-54131281D01*
X109309834Y-53865845D01*
X109575270Y-53468592D01*
X109668479Y-53000000D01*
X109711521Y-53000000D01*
X109804730Y-53468592D01*
X110070166Y-53865845D01*
X110467419Y-54131281D01*
X110936011Y-54224490D01*
X110983989Y-54224490D01*
X111452581Y-54131281D01*
X111849834Y-53865845D01*
X112115270Y-53468592D01*
X112160243Y-53242498D01*
X112275298Y-53242498D01*
X112461323Y-53692712D01*
X112805477Y-54037467D01*
X113255365Y-54224277D01*
X113742498Y-54224702D01*
X114192712Y-54038677D01*
X114537467Y-53694523D01*
X114724277Y-53244635D01*
X114724702Y-52757502D01*
X114538677Y-52307288D01*
X114194523Y-51962533D01*
X113744635Y-51775723D01*
X113257502Y-51775298D01*
X112807288Y-51961323D01*
X112462533Y-52305477D01*
X112275723Y-52755365D01*
X112275298Y-53242498D01*
X112160243Y-53242498D01*
X112208479Y-53000000D01*
X112115270Y-52531408D01*
X111849834Y-52134155D01*
X111452581Y-51868719D01*
X110983989Y-51775510D01*
X110936011Y-51775510D01*
X110467419Y-51868719D01*
X110070166Y-52134155D01*
X109804730Y-52531408D01*
X109711521Y-53000000D01*
X109668479Y-53000000D01*
X109575270Y-52531408D01*
X109309834Y-52134155D01*
X108912581Y-51868719D01*
X108443989Y-51775510D01*
X108396011Y-51775510D01*
X107927419Y-51868719D01*
X107530166Y-52134155D01*
X107264730Y-52531408D01*
X107171521Y-53000000D01*
X105257000Y-53000000D01*
X105257391Y-52553025D01*
X104914507Y-51723183D01*
X104280157Y-51087724D01*
X103587240Y-50800000D01*
X114725736Y-50800000D01*
X114975088Y-51049352D01*
X114974909Y-51253971D01*
X115054667Y-51447000D01*
X115202223Y-51594814D01*
X115395113Y-51674908D01*
X115425000Y-51674934D01*
X115425000Y-55500000D01*
X115430063Y-55525000D01*
X104500000Y-55525000D01*
X104418222Y-55540388D01*
X104343114Y-55588718D01*
X104292727Y-55662462D01*
X104275000Y-55750000D01*
X104275000Y-56924589D01*
X104184835Y-56984835D01*
X102399078Y-58770592D01*
X101925000Y-58770592D01*
X101841620Y-58786281D01*
X101765040Y-58835559D01*
X101713666Y-58910747D01*
X101695592Y-59000000D01*
X101695592Y-59800000D01*
X101711281Y-59883380D01*
X101760559Y-59959960D01*
X101835747Y-60011334D01*
X101925000Y-60029408D01*
X102675000Y-60029408D01*
X102758380Y-60013719D01*
X102834960Y-59964441D01*
X102886334Y-59889253D01*
X102904408Y-59800000D01*
X102904408Y-59325922D01*
X104275000Y-57955330D01*
X104275000Y-58733598D01*
X104103000Y-58804667D01*
X103955186Y-58952223D01*
X103875092Y-59145113D01*
X103874909Y-59353971D01*
X103954667Y-59547000D01*
X104102223Y-59694814D01*
X104295113Y-59774908D01*
X104475001Y-59775066D01*
X104475001Y-61924967D01*
X104354887Y-61875092D01*
X104146029Y-61874909D01*
X103953000Y-61954667D01*
X103805186Y-62102223D01*
X103725092Y-62295113D01*
X103724909Y-62503971D01*
X103804667Y-62697000D01*
X103952223Y-62844814D01*
X104100000Y-62906176D01*
X104100000Y-64050000D01*
X104122836Y-64164805D01*
X104187868Y-64262132D01*
X107325088Y-67399352D01*
X107324909Y-67603971D01*
X107404667Y-67797000D01*
X107552223Y-67944814D01*
X107745113Y-68024908D01*
X107953971Y-68025091D01*
X108147000Y-67945333D01*
X108225007Y-67867463D01*
X108302223Y-67944814D01*
X108495113Y-68024908D01*
X108703971Y-68025091D01*
X108897000Y-67945333D01*
X109044814Y-67797777D01*
X109124908Y-67604887D01*
X109125091Y-67396029D01*
X109045333Y-67203000D01*
X108900000Y-67057413D01*
X108900000Y-66722998D01*
X108877164Y-66608193D01*
X108812132Y-66510866D01*
X108239134Y-65937868D01*
X108141807Y-65872836D01*
X108027002Y-65850000D01*
X107472820Y-65850000D01*
X105375011Y-63752191D01*
X105375011Y-60499253D01*
X105565956Y-60308308D01*
X105702223Y-60444814D01*
X105895113Y-60524908D01*
X106103971Y-60525091D01*
X106297000Y-60445333D01*
X106444814Y-60297777D01*
X106524908Y-60104887D01*
X106525091Y-59896029D01*
X106445333Y-59703000D01*
X106297777Y-59555186D01*
X106104887Y-59475092D01*
X105896029Y-59474909D01*
X105703000Y-59554667D01*
X105557413Y-59700000D01*
X105450000Y-59700000D01*
X105335195Y-59722836D01*
X105237868Y-59787868D01*
X105075001Y-59950735D01*
X105075001Y-59625001D01*
X105052165Y-59510196D01*
X104987133Y-59412869D01*
X104924912Y-59350648D01*
X104925023Y-59223360D01*
X108599905Y-59209172D01*
X108599905Y-59502001D01*
X108622741Y-59616806D01*
X108687773Y-59714133D01*
X109050000Y-60076360D01*
X109050000Y-61375736D01*
X108462867Y-61962869D01*
X108397835Y-62060196D01*
X108374999Y-62175001D01*
X108374999Y-62774999D01*
X108397835Y-62889804D01*
X108462867Y-62987131D01*
X108700000Y-63224264D01*
X108700000Y-65800000D01*
X108722836Y-65914805D01*
X108787868Y-66012132D01*
X109800000Y-67024264D01*
X109800000Y-67200000D01*
X109822836Y-67314805D01*
X109875630Y-67393817D01*
X109875092Y-67395113D01*
X109874909Y-67603971D01*
X109954667Y-67797000D01*
X110102223Y-67944814D01*
X110295113Y-68024908D01*
X110503971Y-68025091D01*
X110697000Y-67945333D01*
X110737495Y-67904909D01*
X110852223Y-68019837D01*
X111045113Y-68099931D01*
X111253971Y-68100114D01*
X111447000Y-68020356D01*
X111562518Y-67905040D01*
X111602223Y-67944814D01*
X111795113Y-68024908D01*
X112003971Y-68025091D01*
X112197000Y-67945333D01*
X112344814Y-67797777D01*
X112424908Y-67604887D01*
X112425091Y-67396029D01*
X112345333Y-67203000D01*
X112200000Y-67057413D01*
X112200000Y-66722995D01*
X112177164Y-66608190D01*
X112112132Y-66510863D01*
X111539126Y-65937857D01*
X111441799Y-65872825D01*
X111326994Y-65849989D01*
X110824252Y-65849988D01*
X110325011Y-65350747D01*
X110325011Y-60499253D01*
X110524264Y-60300000D01*
X110557662Y-60300000D01*
X110702223Y-60444814D01*
X110895113Y-60524908D01*
X111103971Y-60525091D01*
X111297000Y-60445333D01*
X111444814Y-60297777D01*
X111524908Y-60104887D01*
X111525091Y-59896029D01*
X111445333Y-59703000D01*
X111297777Y-59555186D01*
X111104887Y-59475092D01*
X110896029Y-59474909D01*
X110703000Y-59554667D01*
X110557413Y-59700000D01*
X110400000Y-59700000D01*
X110285195Y-59722836D01*
X110187868Y-59787868D01*
X110025001Y-59950735D01*
X110025001Y-59550095D01*
X110002165Y-59435290D01*
X109949288Y-59356154D01*
X109949814Y-59354887D01*
X109949946Y-59203959D01*
X113900026Y-59188708D01*
X113899881Y-59353971D01*
X113979639Y-59547000D01*
X114127195Y-59694814D01*
X114320085Y-59774908D01*
X114424971Y-59775000D01*
X114424971Y-61945716D01*
X114254887Y-61875092D01*
X114046029Y-61874909D01*
X113853000Y-61954667D01*
X113705186Y-62102223D01*
X113625092Y-62295113D01*
X113624909Y-62503971D01*
X113704667Y-62697000D01*
X113852223Y-62844814D01*
X114045113Y-62924908D01*
X114124961Y-62924978D01*
X114124961Y-65723770D01*
X113562867Y-66285864D01*
X113497835Y-66383191D01*
X113474999Y-66497996D01*
X113474999Y-66974999D01*
X113497835Y-67089804D01*
X113562867Y-67187131D01*
X113775088Y-67399352D01*
X113774909Y-67603971D01*
X113854667Y-67797000D01*
X114002223Y-67944814D01*
X114195113Y-68024908D01*
X114403971Y-68025091D01*
X114597000Y-67945333D01*
X114675007Y-67867463D01*
X114752223Y-67944814D01*
X114945113Y-68024908D01*
X115153971Y-68025091D01*
X115347000Y-67945333D01*
X115494814Y-67797777D01*
X115574908Y-67604887D01*
X115575091Y-67396029D01*
X115495333Y-67203000D01*
X115350000Y-67057413D01*
X115350000Y-64603971D01*
X115474909Y-64603971D01*
X115554667Y-64797000D01*
X115702223Y-64944814D01*
X115895113Y-65024908D01*
X116100824Y-65025088D01*
X118950000Y-67874264D01*
X118950000Y-70657662D01*
X118805186Y-70802223D01*
X118725092Y-70995113D01*
X118724909Y-71203971D01*
X118804667Y-71397000D01*
X118952223Y-71544814D01*
X119145113Y-71624908D01*
X119353971Y-71625091D01*
X119547000Y-71545333D01*
X119694814Y-71397777D01*
X119774908Y-71204887D01*
X119775091Y-70996029D01*
X119695333Y-70803000D01*
X119550000Y-70657413D01*
X119550000Y-67750000D01*
X119527164Y-67635195D01*
X119462132Y-67537868D01*
X116524912Y-64600648D01*
X116525091Y-64396029D01*
X116445333Y-64203000D01*
X116297777Y-64055186D01*
X116104887Y-63975092D01*
X115896029Y-63974909D01*
X115703000Y-64054667D01*
X115555186Y-64202223D01*
X115475092Y-64395113D01*
X115474909Y-64603971D01*
X115350000Y-64603971D01*
X115350000Y-62503971D01*
X117824909Y-62503971D01*
X117904667Y-62697000D01*
X118050000Y-62842587D01*
X118050000Y-64057662D01*
X117905186Y-64202223D01*
X117825092Y-64395113D01*
X117824909Y-64603971D01*
X117904667Y-64797000D01*
X118052223Y-64944814D01*
X118245113Y-65024908D01*
X118453971Y-65025091D01*
X118647000Y-64945333D01*
X118794814Y-64797777D01*
X118874908Y-64604887D01*
X118875091Y-64396029D01*
X118795333Y-64203000D01*
X118650000Y-64057413D01*
X118650000Y-62842338D01*
X118794814Y-62697777D01*
X118874908Y-62504887D01*
X118875091Y-62296029D01*
X118795333Y-62103000D01*
X118647777Y-61955186D01*
X118454887Y-61875092D01*
X118246029Y-61874909D01*
X118053000Y-61954667D01*
X117905186Y-62102223D01*
X117825092Y-62295113D01*
X117824909Y-62503971D01*
X115350000Y-62503971D01*
X115350000Y-60424264D01*
X115474264Y-60300000D01*
X115557662Y-60300000D01*
X115702223Y-60444814D01*
X115895113Y-60524908D01*
X116103971Y-60525091D01*
X116297000Y-60445333D01*
X116444814Y-60297777D01*
X116524908Y-60104887D01*
X116525091Y-59896029D01*
X116445333Y-59703000D01*
X116297777Y-59555186D01*
X116104887Y-59475092D01*
X115896029Y-59474909D01*
X115703000Y-59554667D01*
X115557413Y-59700000D01*
X115350000Y-59700000D01*
X115235195Y-59722836D01*
X115137868Y-59787868D01*
X115024971Y-59900765D01*
X115024971Y-59549999D01*
X115002135Y-59435194D01*
X114949342Y-59356183D01*
X114949880Y-59354887D01*
X114950029Y-59184654D01*
X117450869Y-59174998D01*
X117531778Y-59159612D01*
X117606886Y-59111282D01*
X117630313Y-59076995D01*
X117620592Y-59125000D01*
X117620592Y-59875000D01*
X117636281Y-59958380D01*
X117685559Y-60034960D01*
X117760747Y-60086334D01*
X117850000Y-60104408D01*
X118650000Y-60104408D01*
X118733380Y-60088719D01*
X118809960Y-60039441D01*
X118861334Y-59964253D01*
X118879408Y-59875000D01*
X118879408Y-59593750D01*
X119075000Y-59593750D01*
X119075000Y-59929701D01*
X119116866Y-60030775D01*
X119194225Y-60108134D01*
X119295299Y-60150000D01*
X119656250Y-60150000D01*
X119725000Y-60081250D01*
X119725000Y-59525000D01*
X119775000Y-59525000D01*
X119775000Y-60081250D01*
X119843750Y-60150000D01*
X120204701Y-60150000D01*
X120305775Y-60108134D01*
X120383134Y-60030775D01*
X120425000Y-59929701D01*
X120425000Y-59593750D01*
X120356250Y-59525000D01*
X119775000Y-59525000D01*
X119725000Y-59525000D01*
X119143750Y-59525000D01*
X119075000Y-59593750D01*
X118879408Y-59593750D01*
X118879408Y-59125000D01*
X118869116Y-59070299D01*
X119075000Y-59070299D01*
X119075000Y-59406250D01*
X119143750Y-59475000D01*
X119725000Y-59475000D01*
X119725000Y-58918750D01*
X119775000Y-58918750D01*
X119775000Y-59475000D01*
X120356250Y-59475000D01*
X120425000Y-59406250D01*
X120425000Y-59070299D01*
X120383134Y-58969225D01*
X120305775Y-58891866D01*
X120204701Y-58850000D01*
X119843750Y-58850000D01*
X119775000Y-58918750D01*
X119725000Y-58918750D01*
X119656250Y-58850000D01*
X119295299Y-58850000D01*
X119194225Y-58891866D01*
X119116866Y-58969225D01*
X119075000Y-59070299D01*
X118869116Y-59070299D01*
X118863719Y-59041620D01*
X118814441Y-58965040D01*
X118739253Y-58913666D01*
X118650000Y-58895592D01*
X118625000Y-58895592D01*
X118625000Y-57950000D01*
X118596455Y-57806494D01*
X118515165Y-57684835D01*
X117815165Y-56984835D01*
X117693507Y-56903545D01*
X117675000Y-56899864D01*
X117675000Y-55750000D01*
X117659612Y-55668222D01*
X117611282Y-55593114D01*
X117584771Y-55575000D01*
X122825000Y-55575000D01*
X122825000Y-71200000D01*
X122830909Y-71229179D01*
X122847705Y-71253761D01*
X122872741Y-71269871D01*
X122900000Y-71275000D01*
X123000000Y-71275000D01*
X123000000Y-71275736D01*
X121425043Y-72850693D01*
X121425091Y-72796029D01*
X121345333Y-72603000D01*
X121267463Y-72524993D01*
X121344814Y-72447777D01*
X121424908Y-72254887D01*
X121425091Y-72046029D01*
X121345333Y-71853000D01*
X121267469Y-71774999D01*
X121344826Y-71697777D01*
X121424920Y-71504887D01*
X121425103Y-71296029D01*
X121345345Y-71103000D01*
X121197789Y-70955186D01*
X121004899Y-70875092D01*
X120796041Y-70874909D01*
X120603012Y-70954667D01*
X120455198Y-71102223D01*
X120375104Y-71295113D01*
X120374924Y-71500824D01*
X117475902Y-74399846D01*
X113700154Y-74399846D01*
X113585349Y-74422682D01*
X113488022Y-74487714D01*
X109825736Y-78150000D01*
X107700000Y-78150000D01*
X107585195Y-78172836D01*
X107487868Y-78237868D01*
X106450648Y-79275088D01*
X106246029Y-79274909D01*
X106053000Y-79354667D01*
X105905186Y-79502223D01*
X105825092Y-79695113D01*
X105824909Y-79903971D01*
X105904667Y-80097000D01*
X106052223Y-80244814D01*
X106245113Y-80324908D01*
X106453971Y-80325091D01*
X106647000Y-80245333D01*
X106794814Y-80097777D01*
X106799914Y-80085496D01*
X106804667Y-80097000D01*
X106952223Y-80244814D01*
X107145113Y-80324908D01*
X107353971Y-80325091D01*
X107547000Y-80245333D01*
X107694814Y-80097777D01*
X107699914Y-80085496D01*
X107704667Y-80097000D01*
X107852223Y-80244814D01*
X108045113Y-80324908D01*
X108253971Y-80325091D01*
X108447000Y-80245333D01*
X108594814Y-80097777D01*
X108674908Y-79904887D01*
X108675088Y-79699176D01*
X109024242Y-79350022D01*
X109207391Y-79350022D01*
X109205186Y-79352223D01*
X109125092Y-79545113D01*
X109124909Y-79753971D01*
X109204667Y-79947000D01*
X109352223Y-80094814D01*
X109545113Y-80174908D01*
X109753971Y-80175091D01*
X109947000Y-80095333D01*
X110092587Y-79950000D01*
X110100000Y-79950000D01*
X110186794Y-79932736D01*
X110254667Y-80097000D01*
X110402223Y-80244814D01*
X110595113Y-80324908D01*
X110676478Y-80324979D01*
X109837868Y-81163589D01*
X109772836Y-81260916D01*
X109750000Y-81375721D01*
X109750000Y-82037662D01*
X109605186Y-82182223D01*
X109525092Y-82375113D01*
X109524917Y-82574599D01*
X109495333Y-82503000D01*
X109347777Y-82355186D01*
X109154887Y-82275092D01*
X108946029Y-82274909D01*
X108753000Y-82354667D01*
X108605186Y-82502223D01*
X108525092Y-82695113D01*
X108524909Y-82903971D01*
X108604667Y-83097000D01*
X108752223Y-83244814D01*
X108945113Y-83324908D01*
X109150824Y-83325088D01*
X109192869Y-83367133D01*
X109290196Y-83432165D01*
X109405001Y-83455001D01*
X110472001Y-83455001D01*
X110586806Y-83432165D01*
X110684133Y-83367133D01*
X111017133Y-83034133D01*
X111082165Y-82936806D01*
X111105001Y-82822001D01*
X111105001Y-81169263D01*
X112302798Y-79971466D01*
X112354667Y-80097000D01*
X112502223Y-80244814D01*
X112695113Y-80324908D01*
X112903971Y-80325091D01*
X113097000Y-80245333D01*
X113175007Y-80167463D01*
X113252223Y-80244814D01*
X113445113Y-80324908D01*
X113653971Y-80325091D01*
X113847000Y-80245333D01*
X113925007Y-80167463D01*
X114002223Y-80244814D01*
X114195113Y-80324908D01*
X114403971Y-80325091D01*
X114597000Y-80245333D01*
X114675007Y-80167463D01*
X114752223Y-80244814D01*
X114945113Y-80324908D01*
X115153971Y-80325091D01*
X115347000Y-80245333D01*
X115459989Y-80132541D01*
X115459989Y-80765747D01*
X115225736Y-81000000D01*
X113400000Y-81000000D01*
X113285195Y-81022836D01*
X113187868Y-81087868D01*
X112587868Y-81687868D01*
X112522836Y-81785195D01*
X112500000Y-81900000D01*
X112500000Y-82357662D01*
X112355186Y-82502223D01*
X112275092Y-82695113D01*
X112274909Y-82903971D01*
X112354667Y-83097000D01*
X112502223Y-83244814D01*
X112695113Y-83324908D01*
X112903971Y-83325091D01*
X113097000Y-83245333D01*
X113244814Y-83097777D01*
X113324908Y-82904887D01*
X113324909Y-82903971D01*
X113404667Y-83097000D01*
X113552223Y-83244814D01*
X113745113Y-83324908D01*
X113953971Y-83325091D01*
X114147000Y-83245333D01*
X114294814Y-83097777D01*
X114374908Y-82904887D01*
X114374909Y-82903971D01*
X114454667Y-83097000D01*
X114602223Y-83244814D01*
X114795113Y-83324908D01*
X115003971Y-83325091D01*
X115197000Y-83245333D01*
X115344814Y-83097777D01*
X115424908Y-82904887D01*
X115425088Y-82699176D01*
X116612152Y-81512112D01*
X116677184Y-81414785D01*
X116700020Y-81299980D01*
X116700020Y-79785753D01*
X116704667Y-79797000D01*
X116852223Y-79944814D01*
X117045113Y-80024908D01*
X117253971Y-80025091D01*
X117447000Y-79945333D01*
X117594814Y-79797777D01*
X117674908Y-79604887D01*
X117675088Y-79399176D01*
X117874264Y-79200000D01*
X120467069Y-79200000D01*
X120581874Y-79177164D01*
X120679201Y-79112132D01*
X126637362Y-73153971D01*
X128624909Y-73153971D01*
X128704667Y-73347000D01*
X128852223Y-73494814D01*
X129045113Y-73574908D01*
X129253971Y-73575091D01*
X129447000Y-73495333D01*
X129594814Y-73347777D01*
X129674908Y-73154887D01*
X129675091Y-72946029D01*
X129595333Y-72753000D01*
X129450000Y-72607413D01*
X129450000Y-72135705D01*
X129454667Y-72147000D01*
X129602223Y-72294814D01*
X129795113Y-72374908D01*
X130003971Y-72375091D01*
X130197000Y-72295333D01*
X130344814Y-72147777D01*
X130424908Y-71954887D01*
X130425088Y-71749176D01*
X131612132Y-70562132D01*
X131677164Y-70464805D01*
X131700000Y-70350000D01*
X131700000Y-69974994D01*
X131803971Y-69975085D01*
X131997000Y-69895327D01*
X132144814Y-69747771D01*
X132224908Y-69554881D01*
X132225091Y-69346023D01*
X132145333Y-69152994D01*
X131997777Y-69005180D01*
X131804887Y-68925086D01*
X131596029Y-68924903D01*
X131464852Y-68979104D01*
X131474908Y-68954887D01*
X131475091Y-68746029D01*
X131395333Y-68553000D01*
X131247777Y-68405186D01*
X131054887Y-68325092D01*
X130846029Y-68324909D01*
X130653000Y-68404667D01*
X130574992Y-68482539D01*
X130497774Y-68405186D01*
X130304884Y-68325092D01*
X130096026Y-68324909D01*
X129902997Y-68404667D01*
X129755183Y-68552223D01*
X129675089Y-68745113D01*
X129674906Y-68953971D01*
X129754664Y-69147000D01*
X129902220Y-69294814D01*
X130095110Y-69374908D01*
X130200000Y-69375000D01*
X130200000Y-69907413D01*
X130197777Y-69905186D01*
X130004887Y-69825092D01*
X129796029Y-69824909D01*
X129603000Y-69904667D01*
X129455186Y-70052223D01*
X129450000Y-70064712D01*
X129450000Y-68128557D01*
X132224957Y-65353600D01*
X132224901Y-65417261D01*
X132304659Y-65610290D01*
X132452215Y-65758104D01*
X132645105Y-65838198D01*
X132850816Y-65838378D01*
X132996213Y-65983775D01*
X132854887Y-65925092D01*
X132646029Y-65924909D01*
X132453000Y-66004667D01*
X132305186Y-66152223D01*
X132225092Y-66345113D01*
X132224909Y-66553971D01*
X132304667Y-66747000D01*
X132452223Y-66894814D01*
X132645113Y-66974908D01*
X132853971Y-66975091D01*
X132856001Y-66974252D01*
X132935206Y-67027175D01*
X133050011Y-67050011D01*
X137433269Y-67050011D01*
X140891516Y-70508258D01*
X140850000Y-70500000D01*
X140074264Y-70500000D01*
X138374912Y-68800648D01*
X138375091Y-68596029D01*
X138295333Y-68403000D01*
X138147777Y-68255186D01*
X137954887Y-68175092D01*
X137746029Y-68174909D01*
X137553000Y-68254667D01*
X137405186Y-68402223D01*
X137325092Y-68595113D01*
X137324909Y-68803971D01*
X137404667Y-68997000D01*
X137552223Y-69144814D01*
X137745113Y-69224908D01*
X137950824Y-69225088D01*
X139737868Y-71012132D01*
X139835195Y-71077164D01*
X139950000Y-71100000D01*
X140725736Y-71100000D01*
X141225088Y-71599352D01*
X141224909Y-71803971D01*
X141304667Y-71997000D01*
X141452223Y-72144814D01*
X141645113Y-72224908D01*
X141853971Y-72225091D01*
X142047000Y-72145333D01*
X142163341Y-72029195D01*
X142156318Y-72046109D01*
X142156135Y-72254967D01*
X142235893Y-72447996D01*
X142383449Y-72595810D01*
X142576339Y-72675904D01*
X142785197Y-72676087D01*
X142978226Y-72596329D01*
X143126040Y-72448773D01*
X143206134Y-72255883D01*
X143206317Y-72047025D01*
X143186887Y-72000000D01*
X143407662Y-72000000D01*
X143552223Y-72144814D01*
X143745113Y-72224908D01*
X143953971Y-72225091D01*
X144147000Y-72145333D01*
X144294814Y-71997777D01*
X144374908Y-71804887D01*
X144375091Y-71596029D01*
X144295333Y-71403000D01*
X144147777Y-71255186D01*
X143954887Y-71175092D01*
X143746029Y-71174909D01*
X143553000Y-71254667D01*
X143407413Y-71400000D01*
X143074264Y-71400000D01*
X137912132Y-66237868D01*
X137814805Y-66172836D01*
X137700000Y-66150000D01*
X134010966Y-66150000D01*
X133274904Y-65413938D01*
X133275083Y-65209319D01*
X133195325Y-65016290D01*
X133047769Y-64868476D01*
X132854879Y-64788382D01*
X132790232Y-64788325D01*
X132790366Y-64788191D01*
X132994985Y-64788370D01*
X133188014Y-64708612D01*
X133335828Y-64561056D01*
X133415922Y-64368166D01*
X133416105Y-64159308D01*
X133336347Y-63966279D01*
X133188791Y-63818465D01*
X132995901Y-63738371D01*
X132787043Y-63738188D01*
X132594014Y-63817946D01*
X132446200Y-63965502D01*
X132366106Y-64158392D01*
X132365926Y-64364103D01*
X128937868Y-67792161D01*
X128872836Y-67889488D01*
X128850000Y-68004293D01*
X128850000Y-72607662D01*
X128705186Y-72752223D01*
X128625092Y-72945113D01*
X128624909Y-73153971D01*
X126637362Y-73153971D01*
X126812253Y-72979080D01*
X126877285Y-72881753D01*
X126900121Y-72766948D01*
X126900121Y-63315015D01*
X127614748Y-62600388D01*
X127654667Y-62697000D01*
X127732537Y-62775007D01*
X127655186Y-62852223D01*
X127575092Y-63045113D01*
X127574909Y-63253971D01*
X127654667Y-63447000D01*
X127732537Y-63525007D01*
X127655186Y-63602223D01*
X127575092Y-63795113D01*
X127574909Y-64003971D01*
X127654667Y-64197000D01*
X127732539Y-64275008D01*
X127655186Y-64352226D01*
X127575092Y-64545116D01*
X127574909Y-64753974D01*
X127654667Y-64947003D01*
X127802223Y-65094817D01*
X127995113Y-65174911D01*
X128203971Y-65175094D01*
X128397000Y-65095336D01*
X128544814Y-64947780D01*
X128624908Y-64754890D01*
X128625088Y-64549179D01*
X129574237Y-63600030D01*
X138025766Y-63600030D01*
X142049988Y-67624252D01*
X142049988Y-67950001D01*
X142072824Y-68064806D01*
X142125617Y-68143817D01*
X142125079Y-68145113D01*
X142124896Y-68353971D01*
X142204654Y-68547000D01*
X142352210Y-68694814D01*
X142497567Y-68755171D01*
X142252738Y-69000000D01*
X142016741Y-69000000D01*
X140996151Y-67979410D01*
X140996330Y-67774791D01*
X140916572Y-67581762D01*
X140769016Y-67433948D01*
X140576126Y-67353854D01*
X140367268Y-67353671D01*
X140174239Y-67433429D01*
X140026425Y-67580985D01*
X139946331Y-67773875D01*
X139946148Y-67982733D01*
X140025906Y-68175762D01*
X140173462Y-68323576D01*
X140366352Y-68403670D01*
X140572063Y-68403850D01*
X141680345Y-69512132D01*
X141777672Y-69577164D01*
X141892477Y-69600000D01*
X142377002Y-69600000D01*
X142382831Y-69598841D01*
X142382816Y-69615530D01*
X142462574Y-69808559D01*
X142610130Y-69956373D01*
X142803020Y-70036467D01*
X143011878Y-70036650D01*
X143204907Y-69956892D01*
X143259776Y-69902118D01*
X143402223Y-70044814D01*
X143595113Y-70124908D01*
X143803971Y-70125091D01*
X143997000Y-70045333D01*
X144144814Y-69897777D01*
X144224908Y-69704887D01*
X144225091Y-69496029D01*
X144145333Y-69303000D01*
X144069423Y-69226957D01*
X144127164Y-69140541D01*
X144150000Y-69025736D01*
X144150000Y-67784236D01*
X144224999Y-67859235D01*
X144224999Y-69224999D01*
X144247835Y-69339804D01*
X144312867Y-69437131D01*
X144525088Y-69649352D01*
X144524909Y-69853971D01*
X144604667Y-70047000D01*
X144752223Y-70194814D01*
X144945113Y-70274908D01*
X145153971Y-70275091D01*
X145347000Y-70195333D01*
X145494814Y-70047777D01*
X145574908Y-69854887D01*
X145575091Y-69646029D01*
X145495333Y-69453000D01*
X145347777Y-69305186D01*
X145154887Y-69225092D01*
X144949176Y-69224912D01*
X144824999Y-69100735D01*
X144824999Y-68636400D01*
X145754592Y-68636400D01*
X145754592Y-70363600D01*
X145770281Y-70446980D01*
X145819559Y-70523560D01*
X145894747Y-70574934D01*
X145984000Y-70593008D01*
X148016000Y-70593008D01*
X148099380Y-70577319D01*
X148175960Y-70528041D01*
X148227334Y-70452853D01*
X148245408Y-70363600D01*
X148245408Y-68636400D01*
X148229719Y-68553020D01*
X148180441Y-68476440D01*
X148105253Y-68425066D01*
X148016000Y-68406992D01*
X145984000Y-68406992D01*
X145900620Y-68422681D01*
X145824040Y-68471959D01*
X145772666Y-68547147D01*
X145754592Y-68636400D01*
X144824999Y-68636400D01*
X144824999Y-68275031D01*
X144945117Y-68324908D01*
X145153975Y-68325091D01*
X145347004Y-68245333D01*
X145494818Y-68097777D01*
X145574912Y-67904887D01*
X145575095Y-67696029D01*
X145495337Y-67503000D01*
X145347781Y-67355186D01*
X145154891Y-67275092D01*
X144949180Y-67274912D01*
X144634268Y-66960000D01*
X145734687Y-66960000D01*
X145817552Y-67376589D01*
X146053531Y-67729756D01*
X146406698Y-67965735D01*
X146823287Y-68048600D01*
X147176713Y-68048600D01*
X147593302Y-67965735D01*
X147946469Y-67729756D01*
X148182448Y-67376589D01*
X148265313Y-66960000D01*
X148182448Y-66543411D01*
X147946469Y-66190244D01*
X147593302Y-65954265D01*
X147176713Y-65871400D01*
X146823287Y-65871400D01*
X146406698Y-65954265D01*
X146053531Y-66190244D01*
X145817552Y-66543411D01*
X145734687Y-66960000D01*
X144634268Y-66960000D01*
X144600011Y-66925743D01*
X144600011Y-64420000D01*
X145734687Y-64420000D01*
X145817552Y-64836589D01*
X146053531Y-65189756D01*
X146406698Y-65425735D01*
X146823287Y-65508600D01*
X147176713Y-65508600D01*
X147593302Y-65425735D01*
X147946469Y-65189756D01*
X148182448Y-64836589D01*
X148265313Y-64420000D01*
X148182448Y-64003411D01*
X147946469Y-63650244D01*
X147593302Y-63414265D01*
X147176713Y-63331400D01*
X146823287Y-63331400D01*
X146406698Y-63414265D01*
X146053531Y-63650244D01*
X145817552Y-64003411D01*
X145734687Y-64420000D01*
X144600011Y-64420000D01*
X144600011Y-61880000D01*
X145734687Y-61880000D01*
X145817552Y-62296589D01*
X146053531Y-62649756D01*
X146406698Y-62885735D01*
X146823287Y-62968600D01*
X147176713Y-62968600D01*
X147593302Y-62885735D01*
X147946469Y-62649756D01*
X148182448Y-62296589D01*
X148265313Y-61880000D01*
X148182448Y-61463411D01*
X147946469Y-61110244D01*
X147593302Y-60874265D01*
X147176713Y-60791400D01*
X146823287Y-60791400D01*
X146406698Y-60874265D01*
X146053531Y-61110244D01*
X145817552Y-61463411D01*
X145734687Y-61880000D01*
X144600011Y-61880000D01*
X144600011Y-59542766D01*
X145727200Y-59542766D01*
X145786104Y-59752626D01*
X146024811Y-60127434D01*
X146388780Y-60382362D01*
X146822600Y-60478600D01*
X146975000Y-60478600D01*
X146975000Y-59365000D01*
X147025000Y-59365000D01*
X147025000Y-60478600D01*
X147177400Y-60478600D01*
X147611220Y-60382362D01*
X147975189Y-60127434D01*
X148213896Y-59752626D01*
X148272800Y-59542766D01*
X148221958Y-59365000D01*
X147025000Y-59365000D01*
X146975000Y-59365000D01*
X145778042Y-59365000D01*
X145727200Y-59542766D01*
X144600011Y-59542766D01*
X144600011Y-59137234D01*
X145727200Y-59137234D01*
X145778042Y-59315000D01*
X146975000Y-59315000D01*
X146975000Y-58201400D01*
X147025000Y-58201400D01*
X147025000Y-59315000D01*
X148221958Y-59315000D01*
X148272800Y-59137234D01*
X148213896Y-58927374D01*
X147975189Y-58552566D01*
X147611220Y-58297638D01*
X147177400Y-58201400D01*
X147025000Y-58201400D01*
X146975000Y-58201400D01*
X146822600Y-58201400D01*
X146388780Y-58297638D01*
X146024811Y-58552566D01*
X145786104Y-58927374D01*
X145727200Y-59137234D01*
X144600011Y-59137234D01*
X144600011Y-58624253D01*
X145112132Y-58112132D01*
X145177164Y-58014805D01*
X145200000Y-57900000D01*
X145200000Y-56803971D01*
X145574909Y-56803971D01*
X145654667Y-56997000D01*
X145802223Y-57144814D01*
X145995113Y-57224908D01*
X146203971Y-57225091D01*
X146397000Y-57145333D01*
X146542587Y-57000000D01*
X147907662Y-57000000D01*
X148052223Y-57144814D01*
X148245113Y-57224908D01*
X148453971Y-57225091D01*
X148647000Y-57145333D01*
X148794814Y-56997777D01*
X148874908Y-56804887D01*
X148875091Y-56596029D01*
X148795333Y-56403000D01*
X148647777Y-56255186D01*
X148454887Y-56175092D01*
X148246029Y-56174909D01*
X148053000Y-56254667D01*
X147907413Y-56400000D01*
X146542338Y-56400000D01*
X146397777Y-56255186D01*
X146204887Y-56175092D01*
X145996029Y-56174909D01*
X145803000Y-56254667D01*
X145655186Y-56402223D01*
X145575092Y-56595113D01*
X145574909Y-56803971D01*
X145200000Y-56803971D01*
X145200000Y-56250000D01*
X145177164Y-56135195D01*
X145112132Y-56037868D01*
X143624912Y-54550648D01*
X143625091Y-54346029D01*
X143545333Y-54153000D01*
X143397777Y-54005186D01*
X143204887Y-53925092D01*
X142996029Y-53924909D01*
X142803000Y-54004667D01*
X142655186Y-54152223D01*
X142575092Y-54345113D01*
X142574909Y-54553971D01*
X142654667Y-54747000D01*
X142802223Y-54894814D01*
X142995113Y-54974908D01*
X143200824Y-54975088D01*
X144600000Y-56374264D01*
X144600000Y-57007413D01*
X144597777Y-57005186D01*
X144404887Y-56925092D01*
X144196029Y-56924909D01*
X144003000Y-57004667D01*
X143999989Y-57007673D01*
X143999989Y-56601431D01*
X143977153Y-56486626D01*
X143912121Y-56389299D01*
X141434437Y-53911615D01*
X141693020Y-53915731D01*
X142081435Y-53762041D01*
X142109768Y-53743109D01*
X142191396Y-53588391D01*
X141500900Y-52897895D01*
X141486758Y-52912038D01*
X141451403Y-52876683D01*
X141465545Y-52862540D01*
X141536255Y-52862540D01*
X142226751Y-53553036D01*
X142381469Y-53471408D01*
X142392048Y-53446975D01*
X144742609Y-53446975D01*
X145085493Y-54276817D01*
X145719843Y-54912276D01*
X146549085Y-55256607D01*
X147446975Y-55257391D01*
X148276817Y-54914507D01*
X148912276Y-54280157D01*
X149256607Y-53450915D01*
X149257391Y-52553025D01*
X148914507Y-51723183D01*
X148280157Y-51087724D01*
X147450915Y-50743393D01*
X146553025Y-50742609D01*
X145723183Y-51085493D01*
X145087724Y-51719843D01*
X144743393Y-52549085D01*
X144742609Y-53446975D01*
X142392048Y-53446975D01*
X142547443Y-53088082D01*
X142554091Y-52670420D01*
X142400401Y-52282005D01*
X142381469Y-52253672D01*
X142226751Y-52172044D01*
X141536255Y-52862540D01*
X141465545Y-52862540D01*
X140775049Y-52172044D01*
X140620331Y-52253672D01*
X140454357Y-52636998D01*
X140449742Y-52926920D01*
X139659511Y-52136689D01*
X140810404Y-52136689D01*
X141500900Y-52827185D01*
X142191396Y-52136689D01*
X142109768Y-51981971D01*
X141726442Y-51815997D01*
X141308780Y-51809349D01*
X140920365Y-51963039D01*
X140892032Y-51981971D01*
X140810404Y-52136689D01*
X139659511Y-52136689D01*
X138097822Y-50575000D01*
X149425000Y-50575000D01*
X149425000Y-74282457D01*
G36*
X140488057Y-54662321D02*
X140332712Y-54660453D01*
X140000300Y-54793483D01*
X139981955Y-54805741D01*
X139918588Y-54944872D01*
X140500900Y-55527185D01*
X140515042Y-55513042D01*
X140550398Y-55548398D01*
X140536255Y-55562540D01*
X141118568Y-56144852D01*
X141257699Y-56081485D01*
X141398682Y-55752368D01*
X141400814Y-55575078D01*
X142799967Y-56974231D01*
X142799967Y-63574971D01*
X142679844Y-63525092D01*
X142470986Y-63524909D01*
X142277957Y-63604667D01*
X142130143Y-63752223D01*
X142050049Y-63945113D01*
X142049869Y-64150824D01*
X141768963Y-64431730D01*
X141624650Y-64431730D01*
X141674525Y-64311616D01*
X141674708Y-64102758D01*
X141594950Y-63909729D01*
X141538991Y-63853672D01*
X141637118Y-63755717D01*
X141717212Y-63562827D01*
X141717395Y-63353969D01*
X141637637Y-63160940D01*
X141534670Y-63057793D01*
X141608235Y-62984356D01*
X141688329Y-62791466D01*
X141688512Y-62582608D01*
X141608754Y-62389579D01*
X141461198Y-62241765D01*
X141268308Y-62161671D01*
X141059450Y-62161488D01*
X140866421Y-62241246D01*
X140718607Y-62388802D01*
X140713957Y-62400000D01*
X140674264Y-62400000D01*
X139624275Y-61350011D01*
X140674987Y-61350011D01*
X140789792Y-61327175D01*
X140887119Y-61262143D01*
X141949352Y-60199910D01*
X142153971Y-60200089D01*
X142347000Y-60120331D01*
X142494814Y-59972775D01*
X142574908Y-59779885D01*
X142575091Y-59571027D01*
X142495333Y-59377998D01*
X142418455Y-59300986D01*
X142496812Y-59222766D01*
X142576906Y-59029876D01*
X142577089Y-58821018D01*
X142497331Y-58627989D01*
X142349775Y-58480175D01*
X142156885Y-58400081D01*
X141948027Y-58399898D01*
X141754998Y-58479656D01*
X141607184Y-58627212D01*
X141527090Y-58820102D01*
X141526910Y-59025813D01*
X140102723Y-60450000D01*
X136324264Y-60450000D01*
X135674912Y-59800648D01*
X135675040Y-59653971D01*
X137774909Y-59653971D01*
X137854667Y-59847000D01*
X138002223Y-59994814D01*
X138195113Y-60074908D01*
X138403971Y-60075091D01*
X138597000Y-59995333D01*
X138742587Y-59850000D01*
X139800000Y-59850000D01*
X139914805Y-59827164D01*
X140012132Y-59762132D01*
X141499352Y-58274912D01*
X141703971Y-58275091D01*
X141897000Y-58195333D01*
X142044814Y-58047777D01*
X142124908Y-57854887D01*
X142125091Y-57646029D01*
X142045333Y-57453000D01*
X141897777Y-57305186D01*
X141704887Y-57225092D01*
X141496029Y-57224909D01*
X141303000Y-57304667D01*
X141155186Y-57452223D01*
X141075092Y-57645113D01*
X141074912Y-57850824D01*
X139675736Y-59250000D01*
X138742338Y-59250000D01*
X138597777Y-59105186D01*
X138404887Y-59025092D01*
X138196029Y-59024909D01*
X138003000Y-59104667D01*
X137855186Y-59252223D01*
X137775092Y-59445113D01*
X137774909Y-59653971D01*
X135675040Y-59653971D01*
X135675091Y-59596029D01*
X135595333Y-59403000D01*
X135447777Y-59255186D01*
X135254887Y-59175092D01*
X135046029Y-59174909D01*
X134853000Y-59254667D01*
X134705186Y-59402223D01*
X134625092Y-59595113D01*
X134624909Y-59803971D01*
X134704667Y-59997000D01*
X134852223Y-60144814D01*
X135045113Y-60224908D01*
X135250824Y-60225088D01*
X135775747Y-60750011D01*
X134524275Y-60750011D01*
X133574912Y-59800648D01*
X133575091Y-59596029D01*
X133495333Y-59403000D01*
X133347777Y-59255186D01*
X133154887Y-59175092D01*
X132946029Y-59174909D01*
X132753000Y-59254667D01*
X132605186Y-59402223D01*
X132525092Y-59595113D01*
X132524909Y-59803971D01*
X132604667Y-59997000D01*
X132752223Y-60144814D01*
X132945113Y-60224908D01*
X133150824Y-60225088D01*
X134105736Y-61180000D01*
X132375017Y-61180000D01*
X132375091Y-61096029D01*
X132295333Y-60903000D01*
X132147777Y-60755186D01*
X131954887Y-60675092D01*
X131746029Y-60674909D01*
X131553000Y-60754667D01*
X131405186Y-60902223D01*
X131325092Y-61095113D01*
X131324909Y-61303971D01*
X131401770Y-61489989D01*
X129114253Y-61489989D01*
X128924912Y-61300648D01*
X128925091Y-61096029D01*
X128845333Y-60903000D01*
X128697777Y-60755186D01*
X128504887Y-60675092D01*
X128296029Y-60674909D01*
X128103000Y-60754667D01*
X127955186Y-60902223D01*
X127875092Y-61095113D01*
X127874909Y-61303971D01*
X127954667Y-61497000D01*
X127957662Y-61500000D01*
X127824882Y-61500000D01*
X127710077Y-61522836D01*
X127612750Y-61587868D01*
X127504060Y-61696558D01*
X127504060Y-61285723D01*
X130429783Y-58360000D01*
X136269758Y-58360000D01*
X136595219Y-58685461D01*
X136595040Y-58890080D01*
X136674798Y-59083109D01*
X136822354Y-59230923D01*
X137015244Y-59311017D01*
X137224102Y-59311200D01*
X137417131Y-59231442D01*
X137564945Y-59083886D01*
X137645039Y-58890996D01*
X137645066Y-58860320D01*
X137771877Y-58912976D01*
X137980735Y-58913159D01*
X138173764Y-58833401D01*
X138196246Y-58810958D01*
X138321777Y-58936708D01*
X138514667Y-59016802D01*
X138723525Y-59016985D01*
X138916554Y-58937227D01*
X139064368Y-58789671D01*
X139144462Y-58596781D01*
X139144645Y-58387923D01*
X139064887Y-58194894D01*
X139005562Y-58135465D01*
X139144945Y-57996326D01*
X139169022Y-57938342D01*
X139310245Y-57996982D01*
X139519103Y-57997165D01*
X139593437Y-57966451D01*
X139645970Y-58093589D01*
X139793526Y-58241403D01*
X139986416Y-58321497D01*
X140195274Y-58321680D01*
X140388303Y-58241922D01*
X140536117Y-58094366D01*
X140616211Y-57901476D01*
X140616394Y-57692618D01*
X140536636Y-57499589D01*
X140389080Y-57351775D01*
X140382848Y-57349187D01*
X140368467Y-57276890D01*
X140303435Y-57179563D01*
X139461693Y-56337821D01*
X139364366Y-56272789D01*
X139249561Y-56249953D01*
X136051447Y-56249953D01*
X136083212Y-56180208D01*
X139918588Y-56180208D01*
X139981955Y-56319339D01*
X140311072Y-56460322D01*
X140669088Y-56464627D01*
X141001500Y-56331597D01*
X141019845Y-56319339D01*
X141083212Y-56180208D01*
X140500900Y-55597895D01*
X139918588Y-56180208D01*
X136083212Y-56180208D01*
X135500900Y-55597895D01*
X134918588Y-56180208D01*
X134950353Y-56249953D01*
X129600047Y-56249953D01*
X129485242Y-56272789D01*
X129387915Y-56337821D01*
X126674912Y-59050824D01*
X126675091Y-58846029D01*
X126595333Y-58653000D01*
X126447777Y-58505186D01*
X126254887Y-58425092D01*
X126225000Y-58425066D01*
X126225000Y-55730728D01*
X134598813Y-55730728D01*
X134731843Y-56063140D01*
X134744101Y-56081485D01*
X134883232Y-56144852D01*
X135465545Y-55562540D01*
X135536255Y-55562540D01*
X136118568Y-56144852D01*
X136257699Y-56081485D01*
X136398682Y-55752368D01*
X136398942Y-55730728D01*
X139598813Y-55730728D01*
X139731843Y-56063140D01*
X139744101Y-56081485D01*
X139883232Y-56144852D01*
X140465545Y-55562540D01*
X139883232Y-54980228D01*
X139744101Y-55043595D01*
X139603118Y-55372712D01*
X139598813Y-55730728D01*
X136398942Y-55730728D01*
X136402987Y-55394352D01*
X136269957Y-55061940D01*
X136257699Y-55043595D01*
X136118568Y-54980228D01*
X135536255Y-55562540D01*
X135465545Y-55562540D01*
X134883232Y-54980228D01*
X134744101Y-55043595D01*
X134603118Y-55372712D01*
X134598813Y-55730728D01*
X126225000Y-55730728D01*
X126225000Y-54944872D01*
X134918588Y-54944872D01*
X135500900Y-55527185D01*
X136083212Y-54944872D01*
X136019845Y-54805741D01*
X135690728Y-54664758D01*
X135332712Y-54660453D01*
X135000300Y-54793483D01*
X134981955Y-54805741D01*
X134918588Y-54944872D01*
X126225000Y-54944872D01*
X126225000Y-53093750D01*
X126225510Y-53093750D01*
X126225510Y-54054191D01*
X126267376Y-54155265D01*
X126344735Y-54232624D01*
X126445809Y-54274490D01*
X127406250Y-54274490D01*
X127475000Y-54205740D01*
X127475000Y-53025000D01*
X127525000Y-53025000D01*
X127525000Y-54205740D01*
X127593750Y-54274490D01*
X128554191Y-54274490D01*
X128655265Y-54232624D01*
X128732624Y-54155265D01*
X128774490Y-54054191D01*
X128774490Y-53588391D01*
X133810404Y-53588391D01*
X133892032Y-53743109D01*
X134275358Y-53909083D01*
X134693020Y-53915731D01*
X135081435Y-53762041D01*
X135109768Y-53743109D01*
X135191396Y-53588391D01*
X134500900Y-52897895D01*
X133810404Y-53588391D01*
X128774490Y-53588391D01*
X128774490Y-53093750D01*
X128735400Y-53054660D01*
X133447709Y-53054660D01*
X133601399Y-53443075D01*
X133620331Y-53471408D01*
X133775049Y-53553036D01*
X134465545Y-52862540D01*
X134536255Y-52862540D01*
X135226751Y-53553036D01*
X135381469Y-53471408D01*
X135547443Y-53088082D01*
X135554091Y-52670420D01*
X135400401Y-52282005D01*
X135381469Y-52253672D01*
X135226751Y-52172044D01*
X134536255Y-52862540D01*
X134465545Y-52862540D01*
X133775049Y-52172044D01*
X133620331Y-52253672D01*
X133454357Y-52636998D01*
X133447709Y-53054660D01*
X128735400Y-53054660D01*
X128705740Y-53025000D01*
X127525000Y-53025000D01*
X127475000Y-53025000D01*
X126294260Y-53025000D01*
X126225510Y-53093750D01*
X126225000Y-53093750D01*
X126225000Y-51945809D01*
X126225510Y-51945809D01*
X126225510Y-52906250D01*
X126294260Y-52975000D01*
X127475000Y-52975000D01*
X127475000Y-51794260D01*
X127525000Y-51794260D01*
X127525000Y-52975000D01*
X128705740Y-52975000D01*
X128774490Y-52906250D01*
X128774490Y-52136689D01*
X133810404Y-52136689D01*
X134500900Y-52827185D01*
X135191396Y-52136689D01*
X135109768Y-51981971D01*
X134726442Y-51815997D01*
X134308780Y-51809349D01*
X133920365Y-51963039D01*
X133892032Y-51981971D01*
X133810404Y-52136689D01*
X128774490Y-52136689D01*
X128774490Y-51945809D01*
X128732624Y-51844735D01*
X128655265Y-51767376D01*
X128554191Y-51725510D01*
X127593750Y-51725510D01*
X127525000Y-51794260D01*
X127475000Y-51794260D01*
X127406250Y-51725510D01*
X126445809Y-51725510D01*
X126344735Y-51767376D01*
X126267376Y-51844735D01*
X126225510Y-51945809D01*
X126225000Y-51945809D01*
X126225000Y-51450000D01*
X137275736Y-51450000D01*
X140488057Y-54662321D01*
X140488057Y-54662321D01*
G37*
X140488057Y-54662321D02*
X140332712Y-54660453D01*
X140000300Y-54793483D01*
X139981955Y-54805741D01*
X139918588Y-54944872D01*
X140500900Y-55527185D01*
X140515042Y-55513042D01*
X140550398Y-55548398D01*
X140536255Y-55562540D01*
X141118568Y-56144852D01*
X141257699Y-56081485D01*
X141398682Y-55752368D01*
X141400814Y-55575078D01*
X142799967Y-56974231D01*
X142799967Y-63574971D01*
X142679844Y-63525092D01*
X142470986Y-63524909D01*
X142277957Y-63604667D01*
X142130143Y-63752223D01*
X142050049Y-63945113D01*
X142049869Y-64150824D01*
X141768963Y-64431730D01*
X141624650Y-64431730D01*
X141674525Y-64311616D01*
X141674708Y-64102758D01*
X141594950Y-63909729D01*
X141538991Y-63853672D01*
X141637118Y-63755717D01*
X141717212Y-63562827D01*
X141717395Y-63353969D01*
X141637637Y-63160940D01*
X141534670Y-63057793D01*
X141608235Y-62984356D01*
X141688329Y-62791466D01*
X141688512Y-62582608D01*
X141608754Y-62389579D01*
X141461198Y-62241765D01*
X141268308Y-62161671D01*
X141059450Y-62161488D01*
X140866421Y-62241246D01*
X140718607Y-62388802D01*
X140713957Y-62400000D01*
X140674264Y-62400000D01*
X139624275Y-61350011D01*
X140674987Y-61350011D01*
X140789792Y-61327175D01*
X140887119Y-61262143D01*
X141949352Y-60199910D01*
X142153971Y-60200089D01*
X142347000Y-60120331D01*
X142494814Y-59972775D01*
X142574908Y-59779885D01*
X142575091Y-59571027D01*
X142495333Y-59377998D01*
X142418455Y-59300986D01*
X142496812Y-59222766D01*
X142576906Y-59029876D01*
X142577089Y-58821018D01*
X142497331Y-58627989D01*
X142349775Y-58480175D01*
X142156885Y-58400081D01*
X141948027Y-58399898D01*
X141754998Y-58479656D01*
X141607184Y-58627212D01*
X141527090Y-58820102D01*
X141526910Y-59025813D01*
X140102723Y-60450000D01*
X136324264Y-60450000D01*
X135674912Y-59800648D01*
X135675040Y-59653971D01*
X137774909Y-59653971D01*
X137854667Y-59847000D01*
X138002223Y-59994814D01*
X138195113Y-60074908D01*
X138403971Y-60075091D01*
X138597000Y-59995333D01*
X138742587Y-59850000D01*
X139800000Y-59850000D01*
X139914805Y-59827164D01*
X140012132Y-59762132D01*
X141499352Y-58274912D01*
X141703971Y-58275091D01*
X141897000Y-58195333D01*
X142044814Y-58047777D01*
X142124908Y-57854887D01*
X142125091Y-57646029D01*
X142045333Y-57453000D01*
X141897777Y-57305186D01*
X141704887Y-57225092D01*
X141496029Y-57224909D01*
X141303000Y-57304667D01*
X141155186Y-57452223D01*
X141075092Y-57645113D01*
X141074912Y-57850824D01*
X139675736Y-59250000D01*
X138742338Y-59250000D01*
X138597777Y-59105186D01*
X138404887Y-59025092D01*
X138196029Y-59024909D01*
X138003000Y-59104667D01*
X137855186Y-59252223D01*
X137775092Y-59445113D01*
X137774909Y-59653971D01*
X135675040Y-59653971D01*
X135675091Y-59596029D01*
X135595333Y-59403000D01*
X135447777Y-59255186D01*
X135254887Y-59175092D01*
X135046029Y-59174909D01*
X134853000Y-59254667D01*
X134705186Y-59402223D01*
X134625092Y-59595113D01*
X134624909Y-59803971D01*
X134704667Y-59997000D01*
X134852223Y-60144814D01*
X135045113Y-60224908D01*
X135250824Y-60225088D01*
X135775747Y-60750011D01*
X134524275Y-60750011D01*
X133574912Y-59800648D01*
X133575091Y-59596029D01*
X133495333Y-59403000D01*
X133347777Y-59255186D01*
X133154887Y-59175092D01*
X132946029Y-59174909D01*
X132753000Y-59254667D01*
X132605186Y-59402223D01*
X132525092Y-59595113D01*
X132524909Y-59803971D01*
X132604667Y-59997000D01*
X132752223Y-60144814D01*
X132945113Y-60224908D01*
X133150824Y-60225088D01*
X134105736Y-61180000D01*
X132375017Y-61180000D01*
X132375091Y-61096029D01*
X132295333Y-60903000D01*
X132147777Y-60755186D01*
X131954887Y-60675092D01*
X131746029Y-60674909D01*
X131553000Y-60754667D01*
X131405186Y-60902223D01*
X131325092Y-61095113D01*
X131324909Y-61303971D01*
X131401770Y-61489989D01*
X129114253Y-61489989D01*
X128924912Y-61300648D01*
X128925091Y-61096029D01*
X128845333Y-60903000D01*
X128697777Y-60755186D01*
X128504887Y-60675092D01*
X128296029Y-60674909D01*
X128103000Y-60754667D01*
X127955186Y-60902223D01*
X127875092Y-61095113D01*
X127874909Y-61303971D01*
X127954667Y-61497000D01*
X127957662Y-61500000D01*
X127824882Y-61500000D01*
X127710077Y-61522836D01*
X127612750Y-61587868D01*
X127504060Y-61696558D01*
X127504060Y-61285723D01*
X130429783Y-58360000D01*
X136269758Y-58360000D01*
X136595219Y-58685461D01*
X136595040Y-58890080D01*
X136674798Y-59083109D01*
X136822354Y-59230923D01*
X137015244Y-59311017D01*
X137224102Y-59311200D01*
X137417131Y-59231442D01*
X137564945Y-59083886D01*
X137645039Y-58890996D01*
X137645066Y-58860320D01*
X137771877Y-58912976D01*
X137980735Y-58913159D01*
X138173764Y-58833401D01*
X138196246Y-58810958D01*
X138321777Y-58936708D01*
X138514667Y-59016802D01*
X138723525Y-59016985D01*
X138916554Y-58937227D01*
X139064368Y-58789671D01*
X139144462Y-58596781D01*
X139144645Y-58387923D01*
X139064887Y-58194894D01*
X139005562Y-58135465D01*
X139144945Y-57996326D01*
X139169022Y-57938342D01*
X139310245Y-57996982D01*
X139519103Y-57997165D01*
X139593437Y-57966451D01*
X139645970Y-58093589D01*
X139793526Y-58241403D01*
X139986416Y-58321497D01*
X140195274Y-58321680D01*
X140388303Y-58241922D01*
X140536117Y-58094366D01*
X140616211Y-57901476D01*
X140616394Y-57692618D01*
X140536636Y-57499589D01*
X140389080Y-57351775D01*
X140382848Y-57349187D01*
X140368467Y-57276890D01*
X140303435Y-57179563D01*
X139461693Y-56337821D01*
X139364366Y-56272789D01*
X139249561Y-56249953D01*
X136051447Y-56249953D01*
X136083212Y-56180208D01*
X139918588Y-56180208D01*
X139981955Y-56319339D01*
X140311072Y-56460322D01*
X140669088Y-56464627D01*
X141001500Y-56331597D01*
X141019845Y-56319339D01*
X141083212Y-56180208D01*
X140500900Y-55597895D01*
X139918588Y-56180208D01*
X136083212Y-56180208D01*
X135500900Y-55597895D01*
X134918588Y-56180208D01*
X134950353Y-56249953D01*
X129600047Y-56249953D01*
X129485242Y-56272789D01*
X129387915Y-56337821D01*
X126674912Y-59050824D01*
X126675091Y-58846029D01*
X126595333Y-58653000D01*
X126447777Y-58505186D01*
X126254887Y-58425092D01*
X126225000Y-58425066D01*
X126225000Y-55730728D01*
X134598813Y-55730728D01*
X134731843Y-56063140D01*
X134744101Y-56081485D01*
X134883232Y-56144852D01*
X135465545Y-55562540D01*
X135536255Y-55562540D01*
X136118568Y-56144852D01*
X136257699Y-56081485D01*
X136398682Y-55752368D01*
X136398942Y-55730728D01*
X139598813Y-55730728D01*
X139731843Y-56063140D01*
X139744101Y-56081485D01*
X139883232Y-56144852D01*
X140465545Y-55562540D01*
X139883232Y-54980228D01*
X139744101Y-55043595D01*
X139603118Y-55372712D01*
X139598813Y-55730728D01*
X136398942Y-55730728D01*
X136402987Y-55394352D01*
X136269957Y-55061940D01*
X136257699Y-55043595D01*
X136118568Y-54980228D01*
X135536255Y-55562540D01*
X135465545Y-55562540D01*
X134883232Y-54980228D01*
X134744101Y-55043595D01*
X134603118Y-55372712D01*
X134598813Y-55730728D01*
X126225000Y-55730728D01*
X126225000Y-54944872D01*
X134918588Y-54944872D01*
X135500900Y-55527185D01*
X136083212Y-54944872D01*
X136019845Y-54805741D01*
X135690728Y-54664758D01*
X135332712Y-54660453D01*
X135000300Y-54793483D01*
X134981955Y-54805741D01*
X134918588Y-54944872D01*
X126225000Y-54944872D01*
X126225000Y-53093750D01*
X126225510Y-53093750D01*
X126225510Y-54054191D01*
X126267376Y-54155265D01*
X126344735Y-54232624D01*
X126445809Y-54274490D01*
X127406250Y-54274490D01*
X127475000Y-54205740D01*
X127475000Y-53025000D01*
X127525000Y-53025000D01*
X127525000Y-54205740D01*
X127593750Y-54274490D01*
X128554191Y-54274490D01*
X128655265Y-54232624D01*
X128732624Y-54155265D01*
X128774490Y-54054191D01*
X128774490Y-53588391D01*
X133810404Y-53588391D01*
X133892032Y-53743109D01*
X134275358Y-53909083D01*
X134693020Y-53915731D01*
X135081435Y-53762041D01*
X135109768Y-53743109D01*
X135191396Y-53588391D01*
X134500900Y-52897895D01*
X133810404Y-53588391D01*
X128774490Y-53588391D01*
X128774490Y-53093750D01*
X128735400Y-53054660D01*
X133447709Y-53054660D01*
X133601399Y-53443075D01*
X133620331Y-53471408D01*
X133775049Y-53553036D01*
X134465545Y-52862540D01*
X134536255Y-52862540D01*
X135226751Y-53553036D01*
X135381469Y-53471408D01*
X135547443Y-53088082D01*
X135554091Y-52670420D01*
X135400401Y-52282005D01*
X135381469Y-52253672D01*
X135226751Y-52172044D01*
X134536255Y-52862540D01*
X134465545Y-52862540D01*
X133775049Y-52172044D01*
X133620331Y-52253672D01*
X133454357Y-52636998D01*
X133447709Y-53054660D01*
X128735400Y-53054660D01*
X128705740Y-53025000D01*
X127525000Y-53025000D01*
X127475000Y-53025000D01*
X126294260Y-53025000D01*
X126225510Y-53093750D01*
X126225000Y-53093750D01*
X126225000Y-51945809D01*
X126225510Y-51945809D01*
X126225510Y-52906250D01*
X126294260Y-52975000D01*
X127475000Y-52975000D01*
X127475000Y-51794260D01*
X127525000Y-51794260D01*
X127525000Y-52975000D01*
X128705740Y-52975000D01*
X128774490Y-52906250D01*
X128774490Y-52136689D01*
X133810404Y-52136689D01*
X134500900Y-52827185D01*
X135191396Y-52136689D01*
X135109768Y-51981971D01*
X134726442Y-51815997D01*
X134308780Y-51809349D01*
X133920365Y-51963039D01*
X133892032Y-51981971D01*
X133810404Y-52136689D01*
X128774490Y-52136689D01*
X128774490Y-51945809D01*
X128732624Y-51844735D01*
X128655265Y-51767376D01*
X128554191Y-51725510D01*
X127593750Y-51725510D01*
X127525000Y-51794260D01*
X127475000Y-51794260D01*
X127406250Y-51725510D01*
X126445809Y-51725510D01*
X126344735Y-51767376D01*
X126267376Y-51844735D01*
X126225510Y-51945809D01*
X126225000Y-51945809D01*
X126225000Y-51450000D01*
X137275736Y-51450000D01*
X140488057Y-54662321D01*
G36*
X117375000Y-58875289D02*
X114802644Y-58885221D01*
X114722749Y-58805186D01*
X114529859Y-58725092D01*
X114321001Y-58724909D01*
X114127972Y-58804667D01*
X114044344Y-58888149D01*
X109821776Y-58904452D01*
X109722683Y-58805186D01*
X109529793Y-58725092D01*
X109320935Y-58724909D01*
X109127906Y-58804667D01*
X109024864Y-58907529D01*
X104816163Y-58923779D01*
X104697777Y-58805186D01*
X104575000Y-58754205D01*
X104575000Y-55825000D01*
X117375000Y-55825000D01*
X117375000Y-58875289D01*
X117375000Y-58875289D01*
G37*
X117375000Y-58875289D02*
X114802644Y-58885221D01*
X114722749Y-58805186D01*
X114529859Y-58725092D01*
X114321001Y-58724909D01*
X114127972Y-58804667D01*
X114044344Y-58888149D01*
X109821776Y-58904452D01*
X109722683Y-58805186D01*
X109529793Y-58725092D01*
X109320935Y-58724909D01*
X109127906Y-58804667D01*
X109024864Y-58907529D01*
X104816163Y-58923779D01*
X104697777Y-58805186D01*
X104575000Y-58754205D01*
X104575000Y-55825000D01*
X117375000Y-55825000D01*
X117375000Y-58875289D01*
M02*
